M48
; DRILL file {KiCad 9.0.3} date 2025-07-28T11:42:38+0200
; FORMAT={-:-/ absolute / inch / decimal}
; #@! TF.CreationDate,2025-07-28T11:42:38+02:00
; #@! TF.GenerationSoftware,Kicad,Pcbnew,9.0.3
; #@! TF.FileFunction,Plated,1,4,PTH
FMAT,2
INCH
; #@! TA.AperFunction,Plated,PTH,ViaDrill
T1C0.0118
; #@! TA.AperFunction,Plated,PTH,ComponentDrill
T2C0.0118
; #@! TA.AperFunction,Plated,PTH,ViaDrill
T3C0.0177
; #@! TA.AperFunction,Plated,PTH,ComponentDrill
T4C0.0197
; #@! TA.AperFunction,Plated,PTH,ComponentDrill
T5C0.0236
; #@! TA.AperFunction,Plated,PTH,ComponentDrill
T6C0.0240
; #@! TA.AperFunction,Plated,PTH,ComponentDrill
T7C0.0547
; #@! TA.AperFunction,Plated,PTH,ComponentDrill
T8C0.0669
; #@! TA.AperFunction,Plated,PTH,ComponentDrill
T9C0.1260
%
G90
G05
T1
X2.2392Y-5.0915
X2.2392Y-5.2884
X2.2894Y-3.2697
X2.315Y-3.2382
X2.315Y-3.2992
X2.6035Y-1.9961
X2.6035Y-2.4291
X2.6329Y-1.7451
X2.6329Y-2.9262
X2.6329Y-3.123
X2.6329Y-3.5167
X2.6329Y-3.7136
X2.6329Y-4.1073
X2.6329Y-4.6978
X2.6329Y-5.0915
X2.6329Y-5.2884
X2.7303Y-3.0236
X2.7992Y-3.9764
X2.8051Y-3.9016
X2.811Y-4.9114
X2.8268Y-3.7598
X2.8287Y-3.2539
X2.8297Y-5.2884
X2.8543Y-1.9961
X2.8622Y-4.8012
X2.8701Y-3.2126
X2.8701Y-4.1417
X2.874Y-4.6791
X2.8969Y-4.963
X2.8971Y-5.0084
X2.9067Y-4.7882
X2.9079Y-4.813
X2.9402Y-4.9969
X2.9547Y-3.3642
X2.9675Y-3.8976
X3.0059Y-3.0276
X3.0197Y-4.8642
X3.0197Y-4.9094
X3.0207Y-3.878
X3.0207Y-3.9232
X3.0266Y-1.7451
X3.0266Y-1.9419
X3.0266Y-5.2884
X3.0728Y-4.8898
X3.1002Y-3.7906
X3.1325Y-3.9744
X3.1337Y-3.9992
X3.1376Y-4.1016
X3.1432Y-3.779
X3.1435Y-3.8244
X3.2028Y-2.4606
X3.2205Y-4.7697
X3.2234Y-1.3514
X3.2234Y-1.7451
X3.2234Y-1.9419
X3.2234Y-2.1388
X3.2234Y-3.123
X3.2234Y-4.1073
X3.2234Y-5.2884
X3.2293Y-3.876
X3.2293Y-3.9449
X3.3149Y-2.2775
X3.3691Y-2.6378
X3.3691Y-2.6762
X3.3818Y-2.2795
X3.3819Y-2.3307
X3.3819Y-2.3671
X3.3878Y-2.4331
X3.3927Y-2.6555
X3.4085Y-2.2421
X3.4203Y-1.7451
X3.4203Y-1.9419
X3.4203Y-5.0915
X3.4203Y-5.2884
X3.4281Y-2.5689
X3.4352Y-2.3563
X3.44Y-2.3327
X3.4439Y-2.2136
X3.4439Y-2.2411
X3.4587Y-2.4921
X3.4615Y-2.1901
X3.4848Y-2.1749
X3.5039Y-2.1486
X3.5217Y-1.936
X3.5291Y-2.1283
X3.5523Y-2.3386
X3.5732Y-2.3177
X3.5732Y-2.3595
X3.5778Y-2.5187
X3.5906Y-4.565
X3.5941Y-2.2968
X3.5941Y-2.3386
X3.5941Y-2.3803
X3.6063Y-2.5315
X3.6122Y-2.0974
X3.6149Y-2.2759
X3.6149Y-2.3177
X3.6149Y-2.3595
X3.6149Y-2.4012
X3.6171Y-1.7451
X3.6171Y-5.0915
X3.6358Y-2.2968
X3.6358Y-2.3386
X3.6358Y-2.3803
X3.6378Y-4.3415
X3.6452Y-4.4429
X3.6457Y-4.4134
X3.6567Y-2.3177
X3.6567Y-2.3595
X3.6752Y-2.1545
X3.6776Y-2.3386
X3.7264Y-2.2126
X3.7625Y-2.5295
X3.7805Y-2.3346
X3.8004Y-2.5067
X3.813Y-2.4713
X3.814Y-1.7451
X3.814Y-1.9419
X3.814Y-3.9104
X3.814Y-4.501
X3.8962Y-2.28
X3.9203Y-2.3504
X4.0108Y-1.7451
X4.0108Y-1.9419
X4.0108Y-2.5325
X4.0108Y-2.7293
X4.0108Y-3.9104
X4.0415Y-2.8888
X4.1398Y-2.8917
X4.2077Y-1.7451
X4.2077Y-2.5325
X4.2077Y-2.7293
X4.2254Y-3.376
X4.2283Y-4.5551
X4.2329Y-2.0287
X4.2402Y-2.8898
X4.3366Y-2.8898
X4.4045Y-2.5325
X4.4045Y-2.7293
X4.4045Y-4.1073
X4.4045Y-4.501
X4.4045Y-5.0915
X4.4045Y-5.2884
X4.4331Y-2.8907
X4.497Y-3.3711
X4.5Y-4.3858
X4.5285Y-2.8898
X4.5335Y-1.7225
X4.5748Y-4.2907
X4.6014Y-2.7293
X4.6014Y-4.501
X4.6299Y-3.124
X4.6535Y-4.2165
X4.72Y-1.9034
X4.7691Y-3.7217
X4.7982Y-1.5482
X4.7982Y-2.7293
X4.7982Y-4.501
X4.7982Y-5.2884
X4.8248Y-4.9311
X4.8484Y-4.9055
X4.8652Y-4.872
X4.874Y-4.2165
X4.8917Y-4.8356
X4.9035Y-4.2579
X4.9183Y-4.8051
X4.9193Y-2.9941
X4.9262Y-3.4242
X4.9424Y-2.4205
X4.9488Y-2.8622
X4.9567Y-3.6909
X4.9567Y-5.2244
X4.9646Y-5.0827
X4.9823Y-4.1043
X4.9921Y-3.4242
X5.0217Y-4.063
X5.0376Y-1.7308
X5.0413Y-4.811
X5.0522Y-3.4242
X5.0571Y-2.937
X5.065Y-4.811
X5.0681Y-4.1157
X5.0787Y-4.0079
X5.0827Y-4.2382
X5.0889Y-4.0948
X5.0889Y-4.1366
X5.0906Y-5.1339
X5.0925Y-2.937
X5.0925Y-2.9744
X5.0925Y-3.0157
X5.0925Y-3.0571
X5.1098Y-4.074
X5.1098Y-4.1157
X5.1098Y-4.1575
X5.1102Y-3.4242
X5.1142Y-1.813
X5.1191Y-5.2244
X5.1196Y-1.7377
X5.126Y-4.9941
X5.128Y-2.937
X5.128Y-2.9744
X5.1307Y-4.0531
X5.1307Y-4.0948
X5.1307Y-4.1366
X5.1307Y-4.1784
X5.1329Y-1.6634
X5.1398Y-2.0807
X5.1398Y-2.1043
X5.1398Y-2.128
X5.1398Y-4.2579
X5.1516Y-4.074
X5.1516Y-4.1157
X5.1516Y-4.1575
X5.1594Y-2.937
X5.1594Y-2.9744
X5.1594Y-4.3524
X5.1644Y-2.0807
X5.1644Y-2.1043
X5.1644Y-2.128
X5.1644Y-4.2333
X5.1725Y-4.0948
X5.1725Y-4.1366
X5.1762Y-3.4242
X5.1841Y-1.6407
X5.1919Y-2.0807
X5.1919Y-2.1043
X5.1919Y-1.5482
X5.1919Y-2.128
X5.1933Y-4.1157
X5.2165Y-4.9724
X5.2165Y-5.0079
X5.2195Y-2.0807
X5.2195Y-2.1043
X5.2195Y-2.128
X5.2214Y-5.0394
X5.2362Y-3.4242
X5.2417Y-4.3094
X5.251Y-2.0807
X5.251Y-2.1043
X5.251Y-2.128
X5.2638Y-1.7264
X5.2785Y-2.128
X5.2785Y-2.0807
X5.2785Y-2.1043
X5.2923Y-3.4242
X5.2992Y-3.6457
X5.2992Y-4.6378
X5.3061Y-2.0807
X5.3061Y-2.1043
X5.3061Y-2.128
X5.312Y-5.0394
X5.3228Y-4.5591
X5.3268Y-2.9547
X5.3268Y-2.9803
X5.3268Y-3.0079
X5.3268Y-3.0354
X5.3268Y-3.061
X5.3268Y-3.0846
X5.3268Y-3.1122
X5.3317Y-2.0807
X5.3317Y-2.1043
X5.3317Y-2.128
X5.3376Y-4.2884
X5.3413Y-4.2138
X5.3425Y-4.6322
X5.3524Y-2.9547
X5.3524Y-2.9803
X5.3524Y-3.0079
X5.3524Y-3.0354
X5.3524Y-3.061
X5.3524Y-3.0846
X5.3543Y-4.5236
X5.3543Y-4.5512
X5.3622Y-4.2608
X5.3701Y-4.1914
X5.377Y-4.6388
X5.378Y-2.6732
X5.378Y-2.9547
X5.378Y-2.9803
X5.378Y-3.0079
X5.378Y-3.0354
X5.378Y-3.061
X5.3799Y-2.4114
X5.3809Y-4.2362
X5.3858Y-4.5236
X5.3858Y-4.5512
X5.3888Y-3.5167
X5.3976Y-1.7835
X5.3986Y-1.7008
X5.4114Y-4.6388
X5.4173Y-4.5512
X5.4291Y-2.9547
X5.4291Y-2.9803
X5.4291Y-3.0079
X5.439Y-3.2874
X5.439Y-3.313
X5.4439Y-4.6388
X5.4547Y-2.9547
X5.4547Y-2.9803
X5.4567Y-4.0413
X5.4646Y-3.2598
X5.4646Y-3.2874
X5.4646Y-3.313
X5.4774Y-4.6398
X5.498Y-2.7313
X5.499Y-2.0364
X5.499Y-3.5157
X5.5256Y-2.7579
X5.5551Y-2.7303
X5.5693Y-4.4872
X5.5846Y-2.7579
X5.6102Y-4.5423
X5.6299Y-4.2717
X5.6299Y-4.311
X5.6299Y-4.3465
X5.6535Y-4.1304
X5.6693Y-4.2717
X5.6742Y-3.9724
X5.6781Y-4.5512
X5.6959Y-3.8071
X5.7037Y-3.9724
X5.7087Y-4.2717
X5.7116Y-4.5522
X5.7338Y-3.8511
X5.7451Y-4.5522
X5.7573Y-3.8749
X5.7756Y-4.7283
X5.7756Y-4.7677
X5.7756Y-4.8031
X5.7756Y-4.8386
X5.7785Y-4.5522
X5.8031Y-2.7677
X5.8081Y-2.2362
X5.8376Y-2.2362
X5.8376Y-2.7638
X5.8465Y-4.4961
X5.8543Y-4.8701
X5.8547Y-3.6828
X5.8583Y-3.7135
X5.8976Y-4.1417
X5.9528Y-3.8937
X5.9793Y-1.3514
X5.9921Y-3.8937
X5.9941Y-4.4488
X6.0423Y-4.6516
X6.0423Y-4.7303
X6.0531Y-4.813
X6.0728Y-4.9144
X6.0768Y-5.0394
X6.0787Y-3.7874
X6.1762Y-4.1073
X6.1762Y-5.0915
X6.2047Y-4.4843
X6.219Y-4.9178
X6.2195Y-4.8494
T2
X3.4488Y-4.3622
X3.4488Y-4.4409
X3.4488Y-4.4016
X3.4882Y-4.4016
X3.4882Y-4.3622
X3.4882Y-4.4409
X5.1949Y-1.8858
X5.1949Y-1.9252
X5.2343Y-1.8858
X5.2343Y-1.9252
X5.2736Y-1.8858
X5.2736Y-1.9252
T3
X5.437Y-4.7638
X5.437Y-4.813
X5.437Y-4.872
X5.437Y-4.9311
X5.437Y-4.9803
X5.5157Y-4.7638
X5.5157Y-4.9803
X5.5846Y-4.7638
X5.5846Y-4.9803
X5.6535Y-4.7638
X5.6535Y-4.813
X5.6535Y-4.872
X5.6535Y-4.9311
X5.6535Y-4.9803
T4
X1.7362Y-1.4173
X1.7362Y-5.2165
X1.7639Y-1.3505
X1.7639Y-1.4841
X1.7639Y-5.1497
X1.7639Y-5.2833
X1.8307Y-1.3228
X1.8307Y-1.5118
X1.8307Y-5.122
X1.8307Y-5.311
X1.8975Y-1.3505
X1.8975Y-1.4841
X1.8975Y-5.1497
X1.8975Y-5.2833
X1.9252Y-1.4173
X1.9252Y-5.2165
X4.5118Y-5.2165
X4.5395Y-5.1497
X4.5395Y-5.2833
X4.6063Y-5.122
X4.6063Y-5.311
X4.6731Y-5.1497
X4.6731Y-5.2833
X4.7008Y-5.2165
X5.8504Y-1.6142
X5.8781Y-1.5474
X5.8781Y-1.681
X5.9449Y-1.5197
X5.9449Y-1.7087
X6.0117Y-1.5474
X6.0117Y-1.681
X6.0394Y-1.6142
T5
X5.696Y-3.6634
X5.9048Y-3.8721
T7
X3.4685Y-4.7087
X3.7677Y-4.7126
X4.0748Y-4.7126
T8
X2.1809Y-1.4213
X2.3368Y-1.4213
X2.4882Y-3.5179
X2.4882Y-3.6738
X2.4882Y-3.8297
X2.4882Y-3.9856
X2.4882Y-4.1415
X2.4892Y-4.66
X2.4892Y-4.8159
X2.4892Y-4.9719
X2.4892Y-5.1278
X2.4892Y-5.2837
X2.4927Y-1.4213
X2.6486Y-1.4213
X2.8045Y-1.4213
X2.9604Y-1.4213
X3.1163Y-1.4213
X3.6449Y-5.2638
X3.8008Y-5.2638
X3.9567Y-5.2638
X4.1126Y-5.2638
X4.2685Y-5.2638
X4.4518Y-1.4213
X4.6077Y-1.4213
X4.7636Y-1.4213
X4.9195Y-1.4213
X4.9695Y-1.8376
X5.0754Y-1.4213
X5.2313Y-1.4213
X5.3872Y-1.4213
X5.5431Y-1.4213
X5.699Y-1.4213
X5.937Y-1.851
X5.937Y-2.0069
X5.937Y-2.1628
X5.937Y-2.3187
X5.937Y-2.4746
X5.937Y-2.6305
T9
X1.8307Y-1.4173
X1.8307Y-5.2165
X4.6063Y-5.2165
X5.9449Y-1.6142
T6
G00X5.6683Y-3.7554
M15
G01X5.6792Y-3.7662
M16
G05
G00X5.7881Y-3.6357
M15
G01X5.7989Y-3.6465
M16
G05
G00X5.802Y-3.889
M15
G01X5.8128Y-3.8999
M16
G05
G00X5.9217Y-3.7693
M15
G01X5.9325Y-3.7801
M16
G05
M30
