%TF.GenerationSoftware,KiCad,Pcbnew,9.0.3*%
%TF.CreationDate,2025-07-28T11:42:38+02:00*%
%TF.ProjectId,HUB_MPE,4855425f-4d50-4452-9e6b-696361645f70,0.1*%
%TF.SameCoordinates,Original*%
%TF.FileFunction,Legend,Bot*%
%TF.FilePolarity,Positive*%
%FSLAX46Y46*%
G04 Gerber Fmt 4.6, Leading zero omitted, Abs format (unit mm)*
G04 Created by KiCad (PCBNEW 9.0.3) date 2025-07-28 11:42:38*
%MOMM*%
%LPD*%
G01*
G04 APERTURE LIST*
G04 Aperture macros list*
%AMRoundRect*
0 Rectangle with rounded corners*
0 $1 Rounding radius*
0 $2 $3 $4 $5 $6 $7 $8 $9 X,Y pos of 4 corners*
0 Add a 4 corners polygon primitive as box body*
4,1,4,$2,$3,$4,$5,$6,$7,$8,$9,$2,$3,0*
0 Add four circle primitives for the rounded corners*
1,1,$1+$1,$2,$3*
1,1,$1+$1,$4,$5*
1,1,$1+$1,$6,$7*
1,1,$1+$1,$8,$9*
0 Add four rect primitives between the rounded corners*
20,1,$1+$1,$2,$3,$4,$5,0*
20,1,$1+$1,$4,$5,$6,$7,0*
20,1,$1+$1,$6,$7,$8,$9,0*
20,1,$1+$1,$8,$9,$2,$3,0*%
%AMHorizOval*
0 Thick line with rounded ends*
0 $1 width*
0 $2 $3 position (X,Y) of the first rounded end (center of the circle)*
0 $4 $5 position (X,Y) of the second rounded end (center of the circle)*
0 Add line between two ends*
20,1,$1,$2,$3,$4,$5,0*
0 Add two circle primitives to create the rounded ends*
1,1,$1,$2,$3*
1,1,$1,$4,$5*%
G04 Aperture macros list end*
%ADD10C,0.100000*%
%ADD11C,0.150000*%
%ADD12C,0.200000*%
%ADD13C,0.120000*%
%ADD14C,0.250000*%
%ADD15C,0.300000*%
%ADD16RoundRect,0.250000X-0.250000X-0.475000X0.250000X-0.475000X0.250000X0.475000X-0.250000X0.475000X0*%
%ADD17C,1.900000*%
%ADD18O,2.700000X3.500000*%
%ADD19C,0.610000*%
%ADD20O,3.500000X2.700000*%
%ADD21C,0.800000*%
%ADD22C,6.400000*%
%ADD23C,0.600000*%
%ADD24HorizOval,1.200000X0.106066X-0.106066X-0.106066X0.106066X0*%
%ADD25RoundRect,0.225000X-0.017678X0.335876X-0.335876X0.017678X0.017678X-0.335876X0.335876X-0.017678X0*%
%ADD26R,0.800000X0.400000*%
%ADD27R,0.400000X0.800000*%
%ADD28R,0.800000X0.800000*%
%ADD29R,1.200000X1.200000*%
%ADD30RoundRect,0.200000X0.200000X0.275000X-0.200000X0.275000X-0.200000X-0.275000X0.200000X-0.275000X0*%
%ADD31R,2.400000X2.400000*%
%ADD32RoundRect,0.225000X0.250000X-0.225000X0.250000X0.225000X-0.250000X0.225000X-0.250000X-0.225000X0*%
%ADD33R,0.810000X0.860000*%
%ADD34RoundRect,0.200000X-0.200000X-0.275000X0.200000X-0.275000X0.200000X0.275000X-0.200000X0.275000X0*%
%ADD35RoundRect,0.200000X0.275000X-0.200000X0.275000X0.200000X-0.275000X0.200000X-0.275000X-0.200000X0*%
%ADD36RoundRect,0.225000X0.225000X0.250000X-0.225000X0.250000X-0.225000X-0.250000X0.225000X-0.250000X0*%
%ADD37R,1.100000X1.000000*%
%ADD38RoundRect,0.225000X-0.225000X-0.250000X0.225000X-0.250000X0.225000X0.250000X-0.225000X0.250000X0*%
%ADD39R,1.000000X0.800000*%
%ADD40RoundRect,0.200000X-0.275000X0.200000X-0.275000X-0.200000X0.275000X-0.200000X0.275000X0.200000X0*%
%ADD41RoundRect,0.225000X0.335876X0.017678X0.017678X0.335876X-0.335876X-0.017678X-0.017678X-0.335876X0*%
%ADD42RoundRect,0.225000X-0.250000X0.225000X-0.250000X-0.225000X0.250000X-0.225000X0.250000X0.225000X0*%
%ADD43R,1.540000X2.060000*%
%ADD44RoundRect,0.200000X0.335876X0.053033X0.053033X0.335876X-0.335876X-0.053033X-0.053033X-0.335876X0*%
%ADD45R,0.530000X1.070000*%
%ADD46RoundRect,0.200000X-0.335876X-0.053033X-0.053033X-0.335876X0.335876X0.053033X0.053033X0.335876X0*%
%ADD47R,1.000000X1.100000*%
G04 APERTURE END LIST*
D10*
X133074999Y-45800001D02*
X128374999Y-45800000D01*
X128374998Y-42600000D01*
X133074999Y-42600000D01*
X133074999Y-45800001D01*
X128649132Y-132200000D02*
X131949132Y-132200000D01*
X128649132Y-137200000D02*
X128649132Y-132200000D01*
X137724999Y-49650000D02*
X132074999Y-49650000D01*
X132074999Y-46450001D01*
X137724999Y-46449999D01*
X137724999Y-49650000D01*
X155550000Y-115825000D02*
X155550000Y-121775000D01*
X131949132Y-135500000D02*
X128649132Y-135500000D01*
X128699132Y-127200000D02*
X131899132Y-127200000D01*
X131899132Y-132000000D01*
X128699132Y-132000000D01*
X128699132Y-127200000D01*
X131949132Y-137200000D02*
X128649132Y-137200000D01*
X156950000Y-115787500D02*
X156950000Y-121762500D01*
X133074999Y-42600000D02*
X137724999Y-46449999D01*
X128649132Y-135600000D02*
X128649132Y-133900000D01*
X131449999Y-49099999D02*
X128374999Y-49100000D01*
X128374999Y-45800000D01*
X131449999Y-45800000D01*
X131449999Y-49099999D01*
X131474999Y-45800000D02*
X131474999Y-42599999D01*
X128699132Y-132000000D02*
X128649132Y-132200000D01*
X131899132Y-132000000D02*
X131949132Y-132200000D01*
X132074998Y-51225000D02*
X135925000Y-51225000D01*
X154150000Y-121750000D02*
X153625000Y-122575000D01*
X135925000Y-48050000D02*
X132074999Y-48050001D01*
X135925000Y-52800000D02*
X132074998Y-52800000D01*
X132074999Y-49650000D01*
X135924999Y-49650000D01*
X135925000Y-52800000D01*
X131949132Y-132200000D02*
X131949132Y-137200000D01*
X154150000Y-115800000D02*
X158325000Y-115800000D01*
X158325000Y-121750000D01*
X154150000Y-121750000D01*
X154150000Y-115800000D01*
X158325000Y-118775000D02*
X154150000Y-118775000D01*
X135924999Y-49650000D02*
X135924999Y-46450001D01*
X128374999Y-49100000D02*
X132074998Y-52800000D01*
X128649132Y-133900000D02*
X131949133Y-133900000D01*
X148925000Y-122575000D02*
X153625000Y-122575000D01*
X153625000Y-128575000D01*
X148925000Y-128575000D01*
X148925000Y-122575000D01*
X140703884Y-129772419D02*
X140703884Y-128772419D01*
X140703884Y-128772419D02*
X140941979Y-128772419D01*
X140941979Y-128772419D02*
X141084836Y-128820038D01*
X141084836Y-128820038D02*
X141180074Y-128915276D01*
X141180074Y-128915276D02*
X141227693Y-129010514D01*
X141227693Y-129010514D02*
X141275312Y-129200990D01*
X141275312Y-129200990D02*
X141275312Y-129343847D01*
X141275312Y-129343847D02*
X141227693Y-129534323D01*
X141227693Y-129534323D02*
X141180074Y-129629561D01*
X141180074Y-129629561D02*
X141084836Y-129724800D01*
X141084836Y-129724800D02*
X140941979Y-129772419D01*
X140941979Y-129772419D02*
X140703884Y-129772419D01*
X139924687Y-129772419D02*
X140258020Y-129296228D01*
X140496115Y-129772419D02*
X140496115Y-128772419D01*
X140496115Y-128772419D02*
X140115163Y-128772419D01*
X140115163Y-128772419D02*
X140019925Y-128820038D01*
X140019925Y-128820038D02*
X139972306Y-128867657D01*
X139972306Y-128867657D02*
X139924687Y-128962895D01*
X139924687Y-128962895D02*
X139924687Y-129105752D01*
X139924687Y-129105752D02*
X139972306Y-129200990D01*
X139972306Y-129200990D02*
X140019925Y-129248609D01*
X140019925Y-129248609D02*
X140115163Y-129296228D01*
X140115163Y-129296228D02*
X140496115Y-129296228D01*
D11*
X130942857Y-133459580D02*
X130990476Y-133507200D01*
X130990476Y-133507200D02*
X131133333Y-133554819D01*
X131133333Y-133554819D02*
X131228571Y-133554819D01*
X131228571Y-133554819D02*
X131371428Y-133507200D01*
X131371428Y-133507200D02*
X131466666Y-133411961D01*
X131466666Y-133411961D02*
X131514285Y-133316723D01*
X131514285Y-133316723D02*
X131561904Y-133126247D01*
X131561904Y-133126247D02*
X131561904Y-132983390D01*
X131561904Y-132983390D02*
X131514285Y-132792914D01*
X131514285Y-132792914D02*
X131466666Y-132697676D01*
X131466666Y-132697676D02*
X131371428Y-132602438D01*
X131371428Y-132602438D02*
X131228571Y-132554819D01*
X131228571Y-132554819D02*
X131133333Y-132554819D01*
X131133333Y-132554819D02*
X130990476Y-132602438D01*
X130990476Y-132602438D02*
X130942857Y-132650057D01*
X130085714Y-132888152D02*
X130085714Y-133554819D01*
X130323809Y-132507200D02*
X130561904Y-133221485D01*
X130561904Y-133221485D02*
X129942857Y-133221485D01*
X129657142Y-132554819D02*
X129038095Y-132554819D01*
X129038095Y-132554819D02*
X129371428Y-132935771D01*
X129371428Y-132935771D02*
X129228571Y-132935771D01*
X129228571Y-132935771D02*
X129133333Y-132983390D01*
X129133333Y-132983390D02*
X129085714Y-133031009D01*
X129085714Y-133031009D02*
X129038095Y-133126247D01*
X129038095Y-133126247D02*
X129038095Y-133364342D01*
X129038095Y-133364342D02*
X129085714Y-133459580D01*
X129085714Y-133459580D02*
X129133333Y-133507200D01*
X129133333Y-133507200D02*
X129228571Y-133554819D01*
X129228571Y-133554819D02*
X129514285Y-133554819D01*
X129514285Y-133554819D02*
X129609523Y-133507200D01*
X129609523Y-133507200D02*
X129657142Y-133459580D01*
X115800306Y-48708830D02*
X115800306Y-48776174D01*
X115800306Y-48776174D02*
X115867650Y-48910861D01*
X115867650Y-48910861D02*
X115934993Y-48978204D01*
X115934993Y-48978204D02*
X116069680Y-49045548D01*
X116069680Y-49045548D02*
X116204367Y-49045548D01*
X116204367Y-49045548D02*
X116305382Y-49011876D01*
X116305382Y-49011876D02*
X116473741Y-48910861D01*
X116473741Y-48910861D02*
X116574756Y-48809846D01*
X116574756Y-48809846D02*
X116675772Y-48641487D01*
X116675772Y-48641487D02*
X116709443Y-48540472D01*
X116709443Y-48540472D02*
X116709443Y-48405785D01*
X116709443Y-48405785D02*
X116642100Y-48271098D01*
X116642100Y-48271098D02*
X116574756Y-48203754D01*
X116574756Y-48203754D02*
X116440069Y-48136411D01*
X116440069Y-48136411D02*
X116372726Y-48136411D01*
X116204367Y-47833365D02*
X115766634Y-47395632D01*
X115766634Y-47395632D02*
X115732963Y-47900708D01*
X115732963Y-47900708D02*
X115631947Y-47799693D01*
X115631947Y-47799693D02*
X115530932Y-47766021D01*
X115530932Y-47766021D02*
X115463589Y-47766021D01*
X115463589Y-47766021D02*
X115362573Y-47799693D01*
X115362573Y-47799693D02*
X115194215Y-47968052D01*
X115194215Y-47968052D02*
X115160543Y-48069067D01*
X115160543Y-48069067D02*
X115160543Y-48136411D01*
X115160543Y-48136411D02*
X115194215Y-48237426D01*
X115194215Y-48237426D02*
X115396245Y-48439456D01*
X115396245Y-48439456D02*
X115497260Y-48473128D01*
X115497260Y-48473128D02*
X115564604Y-48473128D01*
X115429917Y-47193601D02*
X115429917Y-47126258D01*
X115429917Y-47126258D02*
X115396245Y-47025243D01*
X115396245Y-47025243D02*
X115227886Y-46856884D01*
X115227886Y-46856884D02*
X115126871Y-46823212D01*
X115126871Y-46823212D02*
X115059527Y-46823212D01*
X115059527Y-46823212D02*
X114958512Y-46856884D01*
X114958512Y-46856884D02*
X114891169Y-46924227D01*
X114891169Y-46924227D02*
X114823825Y-47058914D01*
X114823825Y-47058914D02*
X114823825Y-47867036D01*
X114823825Y-47867036D02*
X114386092Y-47429304D01*
X150711904Y-129654819D02*
X150711904Y-130464342D01*
X150711904Y-130464342D02*
X150664285Y-130559580D01*
X150664285Y-130559580D02*
X150616666Y-130607200D01*
X150616666Y-130607200D02*
X150521428Y-130654819D01*
X150521428Y-130654819D02*
X150330952Y-130654819D01*
X150330952Y-130654819D02*
X150235714Y-130607200D01*
X150235714Y-130607200D02*
X150188095Y-130559580D01*
X150188095Y-130559580D02*
X150140476Y-130464342D01*
X150140476Y-130464342D02*
X150140476Y-129654819D01*
X149235714Y-129988152D02*
X149235714Y-130654819D01*
X149473809Y-129607200D02*
X149711904Y-130321485D01*
X149711904Y-130321485D02*
X149092857Y-130321485D01*
X71629819Y-98357142D02*
X71153628Y-98023809D01*
X71629819Y-97785714D02*
X70629819Y-97785714D01*
X70629819Y-97785714D02*
X70629819Y-98166666D01*
X70629819Y-98166666D02*
X70677438Y-98261904D01*
X70677438Y-98261904D02*
X70725057Y-98309523D01*
X70725057Y-98309523D02*
X70820295Y-98357142D01*
X70820295Y-98357142D02*
X70963152Y-98357142D01*
X70963152Y-98357142D02*
X71058390Y-98309523D01*
X71058390Y-98309523D02*
X71106009Y-98261904D01*
X71106009Y-98261904D02*
X71153628Y-98166666D01*
X71153628Y-98166666D02*
X71153628Y-97785714D01*
X70725057Y-98738095D02*
X70677438Y-98785714D01*
X70677438Y-98785714D02*
X70629819Y-98880952D01*
X70629819Y-98880952D02*
X70629819Y-99119047D01*
X70629819Y-99119047D02*
X70677438Y-99214285D01*
X70677438Y-99214285D02*
X70725057Y-99261904D01*
X70725057Y-99261904D02*
X70820295Y-99309523D01*
X70820295Y-99309523D02*
X70915533Y-99309523D01*
X70915533Y-99309523D02*
X71058390Y-99261904D01*
X71058390Y-99261904D02*
X71629819Y-98690476D01*
X71629819Y-98690476D02*
X71629819Y-99309523D01*
X71629819Y-99785714D02*
X71629819Y-99976190D01*
X71629819Y-99976190D02*
X71582200Y-100071428D01*
X71582200Y-100071428D02*
X71534580Y-100119047D01*
X71534580Y-100119047D02*
X71391723Y-100214285D01*
X71391723Y-100214285D02*
X71201247Y-100261904D01*
X71201247Y-100261904D02*
X70820295Y-100261904D01*
X70820295Y-100261904D02*
X70725057Y-100214285D01*
X70725057Y-100214285D02*
X70677438Y-100166666D01*
X70677438Y-100166666D02*
X70629819Y-100071428D01*
X70629819Y-100071428D02*
X70629819Y-99880952D01*
X70629819Y-99880952D02*
X70677438Y-99785714D01*
X70677438Y-99785714D02*
X70725057Y-99738095D01*
X70725057Y-99738095D02*
X70820295Y-99690476D01*
X70820295Y-99690476D02*
X71058390Y-99690476D01*
X71058390Y-99690476D02*
X71153628Y-99738095D01*
X71153628Y-99738095D02*
X71201247Y-99785714D01*
X71201247Y-99785714D02*
X71248866Y-99880952D01*
X71248866Y-99880952D02*
X71248866Y-100071428D01*
X71248866Y-100071428D02*
X71201247Y-100166666D01*
X71201247Y-100166666D02*
X71153628Y-100214285D01*
X71153628Y-100214285D02*
X71058390Y-100261904D01*
X78717857Y-105004819D02*
X79051190Y-104528628D01*
X79289285Y-105004819D02*
X79289285Y-104004819D01*
X79289285Y-104004819D02*
X78908333Y-104004819D01*
X78908333Y-104004819D02*
X78813095Y-104052438D01*
X78813095Y-104052438D02*
X78765476Y-104100057D01*
X78765476Y-104100057D02*
X78717857Y-104195295D01*
X78717857Y-104195295D02*
X78717857Y-104338152D01*
X78717857Y-104338152D02*
X78765476Y-104433390D01*
X78765476Y-104433390D02*
X78813095Y-104481009D01*
X78813095Y-104481009D02*
X78908333Y-104528628D01*
X78908333Y-104528628D02*
X79289285Y-104528628D01*
X78336904Y-104100057D02*
X78289285Y-104052438D01*
X78289285Y-104052438D02*
X78194047Y-104004819D01*
X78194047Y-104004819D02*
X77955952Y-104004819D01*
X77955952Y-104004819D02*
X77860714Y-104052438D01*
X77860714Y-104052438D02*
X77813095Y-104100057D01*
X77813095Y-104100057D02*
X77765476Y-104195295D01*
X77765476Y-104195295D02*
X77765476Y-104290533D01*
X77765476Y-104290533D02*
X77813095Y-104433390D01*
X77813095Y-104433390D02*
X78384523Y-105004819D01*
X78384523Y-105004819D02*
X77765476Y-105004819D01*
X77432142Y-104004819D02*
X76765476Y-104004819D01*
X76765476Y-104004819D02*
X77194047Y-105004819D01*
X65666666Y-53854819D02*
X65999999Y-53378628D01*
X66238094Y-53854819D02*
X66238094Y-52854819D01*
X66238094Y-52854819D02*
X65857142Y-52854819D01*
X65857142Y-52854819D02*
X65761904Y-52902438D01*
X65761904Y-52902438D02*
X65714285Y-52950057D01*
X65714285Y-52950057D02*
X65666666Y-53045295D01*
X65666666Y-53045295D02*
X65666666Y-53188152D01*
X65666666Y-53188152D02*
X65714285Y-53283390D01*
X65714285Y-53283390D02*
X65761904Y-53331009D01*
X65761904Y-53331009D02*
X65857142Y-53378628D01*
X65857142Y-53378628D02*
X66238094Y-53378628D01*
X65095237Y-53283390D02*
X65190475Y-53235771D01*
X65190475Y-53235771D02*
X65238094Y-53188152D01*
X65238094Y-53188152D02*
X65285713Y-53092914D01*
X65285713Y-53092914D02*
X65285713Y-53045295D01*
X65285713Y-53045295D02*
X65238094Y-52950057D01*
X65238094Y-52950057D02*
X65190475Y-52902438D01*
X65190475Y-52902438D02*
X65095237Y-52854819D01*
X65095237Y-52854819D02*
X64904761Y-52854819D01*
X64904761Y-52854819D02*
X64809523Y-52902438D01*
X64809523Y-52902438D02*
X64761904Y-52950057D01*
X64761904Y-52950057D02*
X64714285Y-53045295D01*
X64714285Y-53045295D02*
X64714285Y-53092914D01*
X64714285Y-53092914D02*
X64761904Y-53188152D01*
X64761904Y-53188152D02*
X64809523Y-53235771D01*
X64809523Y-53235771D02*
X64904761Y-53283390D01*
X64904761Y-53283390D02*
X65095237Y-53283390D01*
X65095237Y-53283390D02*
X65190475Y-53331009D01*
X65190475Y-53331009D02*
X65238094Y-53378628D01*
X65238094Y-53378628D02*
X65285713Y-53473866D01*
X65285713Y-53473866D02*
X65285713Y-53664342D01*
X65285713Y-53664342D02*
X65238094Y-53759580D01*
X65238094Y-53759580D02*
X65190475Y-53807200D01*
X65190475Y-53807200D02*
X65095237Y-53854819D01*
X65095237Y-53854819D02*
X64904761Y-53854819D01*
X64904761Y-53854819D02*
X64809523Y-53807200D01*
X64809523Y-53807200D02*
X64761904Y-53759580D01*
X64761904Y-53759580D02*
X64714285Y-53664342D01*
X64714285Y-53664342D02*
X64714285Y-53473866D01*
X64714285Y-53473866D02*
X64761904Y-53378628D01*
X64761904Y-53378628D02*
X64809523Y-53331009D01*
X64809523Y-53331009D02*
X64904761Y-53283390D01*
X146806877Y-102416666D02*
X146854496Y-102559523D01*
X146854496Y-102559523D02*
X146902115Y-102607142D01*
X146902115Y-102607142D02*
X146997353Y-102654761D01*
X146997353Y-102654761D02*
X147140210Y-102654761D01*
X147140210Y-102654761D02*
X147235448Y-102607142D01*
X147235448Y-102607142D02*
X147283068Y-102559523D01*
X147283068Y-102559523D02*
X147330687Y-102464285D01*
X147330687Y-102464285D02*
X147330687Y-102083333D01*
X147330687Y-102083333D02*
X146330687Y-102083333D01*
X146330687Y-102083333D02*
X146330687Y-102416666D01*
X146330687Y-102416666D02*
X146378306Y-102511904D01*
X146378306Y-102511904D02*
X146425925Y-102559523D01*
X146425925Y-102559523D02*
X146521163Y-102607142D01*
X146521163Y-102607142D02*
X146616401Y-102607142D01*
X146616401Y-102607142D02*
X146711639Y-102559523D01*
X146711639Y-102559523D02*
X146759258Y-102511904D01*
X146759258Y-102511904D02*
X146806877Y-102416666D01*
X146806877Y-102416666D02*
X146806877Y-102083333D01*
X146330687Y-103083333D02*
X147140210Y-103083333D01*
X147140210Y-103083333D02*
X147235448Y-103130952D01*
X147235448Y-103130952D02*
X147283068Y-103178571D01*
X147283068Y-103178571D02*
X147330687Y-103273809D01*
X147330687Y-103273809D02*
X147330687Y-103464285D01*
X147330687Y-103464285D02*
X147283068Y-103559523D01*
X147283068Y-103559523D02*
X147235448Y-103607142D01*
X147235448Y-103607142D02*
X147140210Y-103654761D01*
X147140210Y-103654761D02*
X146330687Y-103654761D01*
X146330687Y-104035714D02*
X146330687Y-104702380D01*
X146330687Y-104702380D02*
X147330687Y-104035714D01*
X147330687Y-104035714D02*
X147330687Y-104702380D01*
X146330687Y-104988095D02*
X146330687Y-105654761D01*
X146330687Y-105654761D02*
X147330687Y-104988095D01*
X147330687Y-104988095D02*
X147330687Y-105654761D01*
X146806877Y-106035714D02*
X146806877Y-106369047D01*
X147330687Y-106511904D02*
X147330687Y-106035714D01*
X147330687Y-106035714D02*
X146330687Y-106035714D01*
X146330687Y-106035714D02*
X146330687Y-106511904D01*
X147330687Y-107511904D02*
X146854496Y-107178571D01*
X147330687Y-106940476D02*
X146330687Y-106940476D01*
X146330687Y-106940476D02*
X146330687Y-107321428D01*
X146330687Y-107321428D02*
X146378306Y-107416666D01*
X146378306Y-107416666D02*
X146425925Y-107464285D01*
X146425925Y-107464285D02*
X146521163Y-107511904D01*
X146521163Y-107511904D02*
X146664020Y-107511904D01*
X146664020Y-107511904D02*
X146759258Y-107464285D01*
X146759258Y-107464285D02*
X146806877Y-107416666D01*
X146806877Y-107416666D02*
X146854496Y-107321428D01*
X146854496Y-107321428D02*
X146854496Y-106940476D01*
X147330687Y-108464285D02*
X147330687Y-107892857D01*
X147330687Y-108178571D02*
X146330687Y-108178571D01*
X146330687Y-108178571D02*
X146473544Y-108083333D01*
X146473544Y-108083333D02*
X146568782Y-107988095D01*
X146568782Y-107988095D02*
X146616401Y-107892857D01*
D12*
X153855383Y-105438422D02*
X153855383Y-106985089D01*
X154628716Y-106211755D02*
X153082050Y-106211755D01*
D11*
X156634580Y-116632142D02*
X156682200Y-116584523D01*
X156682200Y-116584523D02*
X156729819Y-116441666D01*
X156729819Y-116441666D02*
X156729819Y-116346428D01*
X156729819Y-116346428D02*
X156682200Y-116203571D01*
X156682200Y-116203571D02*
X156586961Y-116108333D01*
X156586961Y-116108333D02*
X156491723Y-116060714D01*
X156491723Y-116060714D02*
X156301247Y-116013095D01*
X156301247Y-116013095D02*
X156158390Y-116013095D01*
X156158390Y-116013095D02*
X155967914Y-116060714D01*
X155967914Y-116060714D02*
X155872676Y-116108333D01*
X155872676Y-116108333D02*
X155777438Y-116203571D01*
X155777438Y-116203571D02*
X155729819Y-116346428D01*
X155729819Y-116346428D02*
X155729819Y-116441666D01*
X155729819Y-116441666D02*
X155777438Y-116584523D01*
X155777438Y-116584523D02*
X155825057Y-116632142D01*
X156063152Y-117489285D02*
X156729819Y-117489285D01*
X155682200Y-117251190D02*
X156396485Y-117013095D01*
X156396485Y-117013095D02*
X156396485Y-117632142D01*
X155729819Y-117917857D02*
X155729819Y-118584523D01*
X155729819Y-118584523D02*
X156729819Y-118155952D01*
X77317857Y-124104819D02*
X77651190Y-123628628D01*
X77889285Y-124104819D02*
X77889285Y-123104819D01*
X77889285Y-123104819D02*
X77508333Y-123104819D01*
X77508333Y-123104819D02*
X77413095Y-123152438D01*
X77413095Y-123152438D02*
X77365476Y-123200057D01*
X77365476Y-123200057D02*
X77317857Y-123295295D01*
X77317857Y-123295295D02*
X77317857Y-123438152D01*
X77317857Y-123438152D02*
X77365476Y-123533390D01*
X77365476Y-123533390D02*
X77413095Y-123581009D01*
X77413095Y-123581009D02*
X77508333Y-123628628D01*
X77508333Y-123628628D02*
X77889285Y-123628628D01*
X76841666Y-124104819D02*
X76651190Y-124104819D01*
X76651190Y-124104819D02*
X76555952Y-124057200D01*
X76555952Y-124057200D02*
X76508333Y-124009580D01*
X76508333Y-124009580D02*
X76413095Y-123866723D01*
X76413095Y-123866723D02*
X76365476Y-123676247D01*
X76365476Y-123676247D02*
X76365476Y-123295295D01*
X76365476Y-123295295D02*
X76413095Y-123200057D01*
X76413095Y-123200057D02*
X76460714Y-123152438D01*
X76460714Y-123152438D02*
X76555952Y-123104819D01*
X76555952Y-123104819D02*
X76746428Y-123104819D01*
X76746428Y-123104819D02*
X76841666Y-123152438D01*
X76841666Y-123152438D02*
X76889285Y-123200057D01*
X76889285Y-123200057D02*
X76936904Y-123295295D01*
X76936904Y-123295295D02*
X76936904Y-123533390D01*
X76936904Y-123533390D02*
X76889285Y-123628628D01*
X76889285Y-123628628D02*
X76841666Y-123676247D01*
X76841666Y-123676247D02*
X76746428Y-123723866D01*
X76746428Y-123723866D02*
X76555952Y-123723866D01*
X76555952Y-123723866D02*
X76460714Y-123676247D01*
X76460714Y-123676247D02*
X76413095Y-123628628D01*
X76413095Y-123628628D02*
X76365476Y-123533390D01*
X75508333Y-123438152D02*
X75508333Y-124104819D01*
X75746428Y-123057200D02*
X75984523Y-123771485D01*
X75984523Y-123771485D02*
X75365476Y-123771485D01*
X134742857Y-49354819D02*
X135076190Y-48878628D01*
X135314285Y-49354819D02*
X135314285Y-48354819D01*
X135314285Y-48354819D02*
X134933333Y-48354819D01*
X134933333Y-48354819D02*
X134838095Y-48402438D01*
X134838095Y-48402438D02*
X134790476Y-48450057D01*
X134790476Y-48450057D02*
X134742857Y-48545295D01*
X134742857Y-48545295D02*
X134742857Y-48688152D01*
X134742857Y-48688152D02*
X134790476Y-48783390D01*
X134790476Y-48783390D02*
X134838095Y-48831009D01*
X134838095Y-48831009D02*
X134933333Y-48878628D01*
X134933333Y-48878628D02*
X135314285Y-48878628D01*
X133885714Y-48688152D02*
X133885714Y-49354819D01*
X134123809Y-48307200D02*
X134361904Y-49021485D01*
X134361904Y-49021485D02*
X133742857Y-49021485D01*
X133409523Y-48450057D02*
X133361904Y-48402438D01*
X133361904Y-48402438D02*
X133266666Y-48354819D01*
X133266666Y-48354819D02*
X133028571Y-48354819D01*
X133028571Y-48354819D02*
X132933333Y-48402438D01*
X132933333Y-48402438D02*
X132885714Y-48450057D01*
X132885714Y-48450057D02*
X132838095Y-48545295D01*
X132838095Y-48545295D02*
X132838095Y-48640533D01*
X132838095Y-48640533D02*
X132885714Y-48783390D01*
X132885714Y-48783390D02*
X133457142Y-49354819D01*
X133457142Y-49354819D02*
X132838095Y-49354819D01*
X77267857Y-128004819D02*
X77601190Y-127528628D01*
X77839285Y-128004819D02*
X77839285Y-127004819D01*
X77839285Y-127004819D02*
X77458333Y-127004819D01*
X77458333Y-127004819D02*
X77363095Y-127052438D01*
X77363095Y-127052438D02*
X77315476Y-127100057D01*
X77315476Y-127100057D02*
X77267857Y-127195295D01*
X77267857Y-127195295D02*
X77267857Y-127338152D01*
X77267857Y-127338152D02*
X77315476Y-127433390D01*
X77315476Y-127433390D02*
X77363095Y-127481009D01*
X77363095Y-127481009D02*
X77458333Y-127528628D01*
X77458333Y-127528628D02*
X77839285Y-127528628D01*
X76791666Y-128004819D02*
X76601190Y-128004819D01*
X76601190Y-128004819D02*
X76505952Y-127957200D01*
X76505952Y-127957200D02*
X76458333Y-127909580D01*
X76458333Y-127909580D02*
X76363095Y-127766723D01*
X76363095Y-127766723D02*
X76315476Y-127576247D01*
X76315476Y-127576247D02*
X76315476Y-127195295D01*
X76315476Y-127195295D02*
X76363095Y-127100057D01*
X76363095Y-127100057D02*
X76410714Y-127052438D01*
X76410714Y-127052438D02*
X76505952Y-127004819D01*
X76505952Y-127004819D02*
X76696428Y-127004819D01*
X76696428Y-127004819D02*
X76791666Y-127052438D01*
X76791666Y-127052438D02*
X76839285Y-127100057D01*
X76839285Y-127100057D02*
X76886904Y-127195295D01*
X76886904Y-127195295D02*
X76886904Y-127433390D01*
X76886904Y-127433390D02*
X76839285Y-127528628D01*
X76839285Y-127528628D02*
X76791666Y-127576247D01*
X76791666Y-127576247D02*
X76696428Y-127623866D01*
X76696428Y-127623866D02*
X76505952Y-127623866D01*
X76505952Y-127623866D02*
X76410714Y-127576247D01*
X76410714Y-127576247D02*
X76363095Y-127528628D01*
X76363095Y-127528628D02*
X76315476Y-127433390D01*
X75982142Y-127004819D02*
X75363095Y-127004819D01*
X75363095Y-127004819D02*
X75696428Y-127385771D01*
X75696428Y-127385771D02*
X75553571Y-127385771D01*
X75553571Y-127385771D02*
X75458333Y-127433390D01*
X75458333Y-127433390D02*
X75410714Y-127481009D01*
X75410714Y-127481009D02*
X75363095Y-127576247D01*
X75363095Y-127576247D02*
X75363095Y-127814342D01*
X75363095Y-127814342D02*
X75410714Y-127909580D01*
X75410714Y-127909580D02*
X75458333Y-127957200D01*
X75458333Y-127957200D02*
X75553571Y-128004819D01*
X75553571Y-128004819D02*
X75839285Y-128004819D01*
X75839285Y-128004819D02*
X75934523Y-127957200D01*
X75934523Y-127957200D02*
X75982142Y-127909580D01*
X157642857Y-113704819D02*
X157976190Y-113228628D01*
X158214285Y-113704819D02*
X158214285Y-112704819D01*
X158214285Y-112704819D02*
X157833333Y-112704819D01*
X157833333Y-112704819D02*
X157738095Y-112752438D01*
X157738095Y-112752438D02*
X157690476Y-112800057D01*
X157690476Y-112800057D02*
X157642857Y-112895295D01*
X157642857Y-112895295D02*
X157642857Y-113038152D01*
X157642857Y-113038152D02*
X157690476Y-113133390D01*
X157690476Y-113133390D02*
X157738095Y-113181009D01*
X157738095Y-113181009D02*
X157833333Y-113228628D01*
X157833333Y-113228628D02*
X158214285Y-113228628D01*
X157309523Y-112704819D02*
X156690476Y-112704819D01*
X156690476Y-112704819D02*
X157023809Y-113085771D01*
X157023809Y-113085771D02*
X156880952Y-113085771D01*
X156880952Y-113085771D02*
X156785714Y-113133390D01*
X156785714Y-113133390D02*
X156738095Y-113181009D01*
X156738095Y-113181009D02*
X156690476Y-113276247D01*
X156690476Y-113276247D02*
X156690476Y-113514342D01*
X156690476Y-113514342D02*
X156738095Y-113609580D01*
X156738095Y-113609580D02*
X156785714Y-113657200D01*
X156785714Y-113657200D02*
X156880952Y-113704819D01*
X156880952Y-113704819D02*
X157166666Y-113704819D01*
X157166666Y-113704819D02*
X157261904Y-113657200D01*
X157261904Y-113657200D02*
X157309523Y-113609580D01*
X155833333Y-112704819D02*
X156023809Y-112704819D01*
X156023809Y-112704819D02*
X156119047Y-112752438D01*
X156119047Y-112752438D02*
X156166666Y-112800057D01*
X156166666Y-112800057D02*
X156261904Y-112942914D01*
X156261904Y-112942914D02*
X156309523Y-113133390D01*
X156309523Y-113133390D02*
X156309523Y-113514342D01*
X156309523Y-113514342D02*
X156261904Y-113609580D01*
X156261904Y-113609580D02*
X156214285Y-113657200D01*
X156214285Y-113657200D02*
X156119047Y-113704819D01*
X156119047Y-113704819D02*
X155928571Y-113704819D01*
X155928571Y-113704819D02*
X155833333Y-113657200D01*
X155833333Y-113657200D02*
X155785714Y-113609580D01*
X155785714Y-113609580D02*
X155738095Y-113514342D01*
X155738095Y-113514342D02*
X155738095Y-113276247D01*
X155738095Y-113276247D02*
X155785714Y-113181009D01*
X155785714Y-113181009D02*
X155833333Y-113133390D01*
X155833333Y-113133390D02*
X155928571Y-113085771D01*
X155928571Y-113085771D02*
X156119047Y-113085771D01*
X156119047Y-113085771D02*
X156214285Y-113133390D01*
X156214285Y-113133390D02*
X156261904Y-113181009D01*
X156261904Y-113181009D02*
X156309523Y-113276247D01*
X123954817Y-80133333D02*
X123478626Y-79800000D01*
X123954817Y-79561905D02*
X122954817Y-79561905D01*
X122954817Y-79561905D02*
X122954817Y-79942857D01*
X122954817Y-79942857D02*
X123002436Y-80038095D01*
X123002436Y-80038095D02*
X123050055Y-80085714D01*
X123050055Y-80085714D02*
X123145293Y-80133333D01*
X123145293Y-80133333D02*
X123288150Y-80133333D01*
X123288150Y-80133333D02*
X123383388Y-80085714D01*
X123383388Y-80085714D02*
X123431007Y-80038095D01*
X123431007Y-80038095D02*
X123478626Y-79942857D01*
X123478626Y-79942857D02*
X123478626Y-79561905D01*
X123954817Y-81085714D02*
X123954817Y-80514286D01*
X123954817Y-80800000D02*
X122954817Y-80800000D01*
X122954817Y-80800000D02*
X123097674Y-80704762D01*
X123097674Y-80704762D02*
X123192912Y-80609524D01*
X123192912Y-80609524D02*
X123240531Y-80514286D01*
X134459580Y-64057142D02*
X134507200Y-64009523D01*
X134507200Y-64009523D02*
X134554819Y-63866666D01*
X134554819Y-63866666D02*
X134554819Y-63771428D01*
X134554819Y-63771428D02*
X134507200Y-63628571D01*
X134507200Y-63628571D02*
X134411961Y-63533333D01*
X134411961Y-63533333D02*
X134316723Y-63485714D01*
X134316723Y-63485714D02*
X134126247Y-63438095D01*
X134126247Y-63438095D02*
X133983390Y-63438095D01*
X133983390Y-63438095D02*
X133792914Y-63485714D01*
X133792914Y-63485714D02*
X133697676Y-63533333D01*
X133697676Y-63533333D02*
X133602438Y-63628571D01*
X133602438Y-63628571D02*
X133554819Y-63771428D01*
X133554819Y-63771428D02*
X133554819Y-63866666D01*
X133554819Y-63866666D02*
X133602438Y-64009523D01*
X133602438Y-64009523D02*
X133650057Y-64057142D01*
X133650057Y-64438095D02*
X133602438Y-64485714D01*
X133602438Y-64485714D02*
X133554819Y-64580952D01*
X133554819Y-64580952D02*
X133554819Y-64819047D01*
X133554819Y-64819047D02*
X133602438Y-64914285D01*
X133602438Y-64914285D02*
X133650057Y-64961904D01*
X133650057Y-64961904D02*
X133745295Y-65009523D01*
X133745295Y-65009523D02*
X133840533Y-65009523D01*
X133840533Y-65009523D02*
X133983390Y-64961904D01*
X133983390Y-64961904D02*
X134554819Y-64390476D01*
X134554819Y-64390476D02*
X134554819Y-65009523D01*
X133554819Y-65342857D02*
X133554819Y-66009523D01*
X133554819Y-66009523D02*
X134554819Y-65580952D01*
X77392857Y-100004819D02*
X77726190Y-99528628D01*
X77964285Y-100004819D02*
X77964285Y-99004819D01*
X77964285Y-99004819D02*
X77583333Y-99004819D01*
X77583333Y-99004819D02*
X77488095Y-99052438D01*
X77488095Y-99052438D02*
X77440476Y-99100057D01*
X77440476Y-99100057D02*
X77392857Y-99195295D01*
X77392857Y-99195295D02*
X77392857Y-99338152D01*
X77392857Y-99338152D02*
X77440476Y-99433390D01*
X77440476Y-99433390D02*
X77488095Y-99481009D01*
X77488095Y-99481009D02*
X77583333Y-99528628D01*
X77583333Y-99528628D02*
X77964285Y-99528628D01*
X77059523Y-99004819D02*
X76440476Y-99004819D01*
X76440476Y-99004819D02*
X76773809Y-99385771D01*
X76773809Y-99385771D02*
X76630952Y-99385771D01*
X76630952Y-99385771D02*
X76535714Y-99433390D01*
X76535714Y-99433390D02*
X76488095Y-99481009D01*
X76488095Y-99481009D02*
X76440476Y-99576247D01*
X76440476Y-99576247D02*
X76440476Y-99814342D01*
X76440476Y-99814342D02*
X76488095Y-99909580D01*
X76488095Y-99909580D02*
X76535714Y-99957200D01*
X76535714Y-99957200D02*
X76630952Y-100004819D01*
X76630952Y-100004819D02*
X76916666Y-100004819D01*
X76916666Y-100004819D02*
X77011904Y-99957200D01*
X77011904Y-99957200D02*
X77059523Y-99909580D01*
X75488095Y-100004819D02*
X76059523Y-100004819D01*
X75773809Y-100004819D02*
X75773809Y-99004819D01*
X75773809Y-99004819D02*
X75869047Y-99147676D01*
X75869047Y-99147676D02*
X75964285Y-99242914D01*
X75964285Y-99242914D02*
X76059523Y-99290533D01*
X92734820Y-113357142D02*
X92258629Y-113023809D01*
X92734820Y-112785714D02*
X91734820Y-112785714D01*
X91734820Y-112785714D02*
X91734820Y-113166666D01*
X91734820Y-113166666D02*
X91782439Y-113261904D01*
X91782439Y-113261904D02*
X91830058Y-113309523D01*
X91830058Y-113309523D02*
X91925296Y-113357142D01*
X91925296Y-113357142D02*
X92068153Y-113357142D01*
X92068153Y-113357142D02*
X92163391Y-113309523D01*
X92163391Y-113309523D02*
X92211010Y-113261904D01*
X92211010Y-113261904D02*
X92258629Y-113166666D01*
X92258629Y-113166666D02*
X92258629Y-112785714D01*
X92163391Y-113928571D02*
X92115772Y-113833333D01*
X92115772Y-113833333D02*
X92068153Y-113785714D01*
X92068153Y-113785714D02*
X91972915Y-113738095D01*
X91972915Y-113738095D02*
X91925296Y-113738095D01*
X91925296Y-113738095D02*
X91830058Y-113785714D01*
X91830058Y-113785714D02*
X91782439Y-113833333D01*
X91782439Y-113833333D02*
X91734820Y-113928571D01*
X91734820Y-113928571D02*
X91734820Y-114119047D01*
X91734820Y-114119047D02*
X91782439Y-114214285D01*
X91782439Y-114214285D02*
X91830058Y-114261904D01*
X91830058Y-114261904D02*
X91925296Y-114309523D01*
X91925296Y-114309523D02*
X91972915Y-114309523D01*
X91972915Y-114309523D02*
X92068153Y-114261904D01*
X92068153Y-114261904D02*
X92115772Y-114214285D01*
X92115772Y-114214285D02*
X92163391Y-114119047D01*
X92163391Y-114119047D02*
X92163391Y-113928571D01*
X92163391Y-113928571D02*
X92211010Y-113833333D01*
X92211010Y-113833333D02*
X92258629Y-113785714D01*
X92258629Y-113785714D02*
X92353867Y-113738095D01*
X92353867Y-113738095D02*
X92544343Y-113738095D01*
X92544343Y-113738095D02*
X92639581Y-113785714D01*
X92639581Y-113785714D02*
X92687201Y-113833333D01*
X92687201Y-113833333D02*
X92734820Y-113928571D01*
X92734820Y-113928571D02*
X92734820Y-114119047D01*
X92734820Y-114119047D02*
X92687201Y-114214285D01*
X92687201Y-114214285D02*
X92639581Y-114261904D01*
X92639581Y-114261904D02*
X92544343Y-114309523D01*
X92544343Y-114309523D02*
X92353867Y-114309523D01*
X92353867Y-114309523D02*
X92258629Y-114261904D01*
X92258629Y-114261904D02*
X92211010Y-114214285D01*
X92211010Y-114214285D02*
X92163391Y-114119047D01*
X92163391Y-114880952D02*
X92115772Y-114785714D01*
X92115772Y-114785714D02*
X92068153Y-114738095D01*
X92068153Y-114738095D02*
X91972915Y-114690476D01*
X91972915Y-114690476D02*
X91925296Y-114690476D01*
X91925296Y-114690476D02*
X91830058Y-114738095D01*
X91830058Y-114738095D02*
X91782439Y-114785714D01*
X91782439Y-114785714D02*
X91734820Y-114880952D01*
X91734820Y-114880952D02*
X91734820Y-115071428D01*
X91734820Y-115071428D02*
X91782439Y-115166666D01*
X91782439Y-115166666D02*
X91830058Y-115214285D01*
X91830058Y-115214285D02*
X91925296Y-115261904D01*
X91925296Y-115261904D02*
X91972915Y-115261904D01*
X91972915Y-115261904D02*
X92068153Y-115214285D01*
X92068153Y-115214285D02*
X92115772Y-115166666D01*
X92115772Y-115166666D02*
X92163391Y-115071428D01*
X92163391Y-115071428D02*
X92163391Y-114880952D01*
X92163391Y-114880952D02*
X92211010Y-114785714D01*
X92211010Y-114785714D02*
X92258629Y-114738095D01*
X92258629Y-114738095D02*
X92353867Y-114690476D01*
X92353867Y-114690476D02*
X92544343Y-114690476D01*
X92544343Y-114690476D02*
X92639581Y-114738095D01*
X92639581Y-114738095D02*
X92687201Y-114785714D01*
X92687201Y-114785714D02*
X92734820Y-114880952D01*
X92734820Y-114880952D02*
X92734820Y-115071428D01*
X92734820Y-115071428D02*
X92687201Y-115166666D01*
X92687201Y-115166666D02*
X92639581Y-115214285D01*
X92639581Y-115214285D02*
X92544343Y-115261904D01*
X92544343Y-115261904D02*
X92353867Y-115261904D01*
X92353867Y-115261904D02*
X92258629Y-115214285D01*
X92258629Y-115214285D02*
X92211010Y-115166666D01*
X92211010Y-115166666D02*
X92163391Y-115071428D01*
X153238094Y-107654819D02*
X153238094Y-106654819D01*
X153238094Y-106654819D02*
X152999999Y-106654819D01*
X152999999Y-106654819D02*
X152857142Y-106702438D01*
X152857142Y-106702438D02*
X152761904Y-106797676D01*
X152761904Y-106797676D02*
X152714285Y-106892914D01*
X152714285Y-106892914D02*
X152666666Y-107083390D01*
X152666666Y-107083390D02*
X152666666Y-107226247D01*
X152666666Y-107226247D02*
X152714285Y-107416723D01*
X152714285Y-107416723D02*
X152761904Y-107511961D01*
X152761904Y-107511961D02*
X152857142Y-107607200D01*
X152857142Y-107607200D02*
X152999999Y-107654819D01*
X152999999Y-107654819D02*
X153238094Y-107654819D01*
X151714285Y-107654819D02*
X152285713Y-107654819D01*
X151999999Y-107654819D02*
X151999999Y-106654819D01*
X151999999Y-106654819D02*
X152095237Y-106797676D01*
X152095237Y-106797676D02*
X152190475Y-106892914D01*
X152190475Y-106892914D02*
X152285713Y-106940533D01*
X128659580Y-60057142D02*
X128707200Y-60009523D01*
X128707200Y-60009523D02*
X128754819Y-59866666D01*
X128754819Y-59866666D02*
X128754819Y-59771428D01*
X128754819Y-59771428D02*
X128707200Y-59628571D01*
X128707200Y-59628571D02*
X128611961Y-59533333D01*
X128611961Y-59533333D02*
X128516723Y-59485714D01*
X128516723Y-59485714D02*
X128326247Y-59438095D01*
X128326247Y-59438095D02*
X128183390Y-59438095D01*
X128183390Y-59438095D02*
X127992914Y-59485714D01*
X127992914Y-59485714D02*
X127897676Y-59533333D01*
X127897676Y-59533333D02*
X127802438Y-59628571D01*
X127802438Y-59628571D02*
X127754819Y-59771428D01*
X127754819Y-59771428D02*
X127754819Y-59866666D01*
X127754819Y-59866666D02*
X127802438Y-60009523D01*
X127802438Y-60009523D02*
X127850057Y-60057142D01*
X127850057Y-60438095D02*
X127802438Y-60485714D01*
X127802438Y-60485714D02*
X127754819Y-60580952D01*
X127754819Y-60580952D02*
X127754819Y-60819047D01*
X127754819Y-60819047D02*
X127802438Y-60914285D01*
X127802438Y-60914285D02*
X127850057Y-60961904D01*
X127850057Y-60961904D02*
X127945295Y-61009523D01*
X127945295Y-61009523D02*
X128040533Y-61009523D01*
X128040533Y-61009523D02*
X128183390Y-60961904D01*
X128183390Y-60961904D02*
X128754819Y-60390476D01*
X128754819Y-60390476D02*
X128754819Y-61009523D01*
X128088152Y-61866666D02*
X128754819Y-61866666D01*
X127707200Y-61628571D02*
X128421485Y-61390476D01*
X128421485Y-61390476D02*
X128421485Y-62009523D01*
X151316989Y-122054819D02*
X151650322Y-121578628D01*
X151888417Y-122054819D02*
X151888417Y-121054819D01*
X151888417Y-121054819D02*
X151507465Y-121054819D01*
X151507465Y-121054819D02*
X151412227Y-121102438D01*
X151412227Y-121102438D02*
X151364608Y-121150057D01*
X151364608Y-121150057D02*
X151316989Y-121245295D01*
X151316989Y-121245295D02*
X151316989Y-121388152D01*
X151316989Y-121388152D02*
X151364608Y-121483390D01*
X151364608Y-121483390D02*
X151412227Y-121531009D01*
X151412227Y-121531009D02*
X151507465Y-121578628D01*
X151507465Y-121578628D02*
X151888417Y-121578628D01*
X150983655Y-121054819D02*
X150364608Y-121054819D01*
X150364608Y-121054819D02*
X150697941Y-121435771D01*
X150697941Y-121435771D02*
X150555084Y-121435771D01*
X150555084Y-121435771D02*
X150459846Y-121483390D01*
X150459846Y-121483390D02*
X150412227Y-121531009D01*
X150412227Y-121531009D02*
X150364608Y-121626247D01*
X150364608Y-121626247D02*
X150364608Y-121864342D01*
X150364608Y-121864342D02*
X150412227Y-121959580D01*
X150412227Y-121959580D02*
X150459846Y-122007200D01*
X150459846Y-122007200D02*
X150555084Y-122054819D01*
X150555084Y-122054819D02*
X150840798Y-122054819D01*
X150840798Y-122054819D02*
X150936036Y-122007200D01*
X150936036Y-122007200D02*
X150983655Y-121959580D01*
X150031274Y-121054819D02*
X149412227Y-121054819D01*
X149412227Y-121054819D02*
X149745560Y-121435771D01*
X149745560Y-121435771D02*
X149602703Y-121435771D01*
X149602703Y-121435771D02*
X149507465Y-121483390D01*
X149507465Y-121483390D02*
X149459846Y-121531009D01*
X149459846Y-121531009D02*
X149412227Y-121626247D01*
X149412227Y-121626247D02*
X149412227Y-121864342D01*
X149412227Y-121864342D02*
X149459846Y-121959580D01*
X149459846Y-121959580D02*
X149507465Y-122007200D01*
X149507465Y-122007200D02*
X149602703Y-122054819D01*
X149602703Y-122054819D02*
X149888417Y-122054819D01*
X149888417Y-122054819D02*
X149983655Y-122007200D01*
X149983655Y-122007200D02*
X150031274Y-121959580D01*
X67542857Y-62459580D02*
X67590476Y-62507200D01*
X67590476Y-62507200D02*
X67733333Y-62554819D01*
X67733333Y-62554819D02*
X67828571Y-62554819D01*
X67828571Y-62554819D02*
X67971428Y-62507200D01*
X67971428Y-62507200D02*
X68066666Y-62411961D01*
X68066666Y-62411961D02*
X68114285Y-62316723D01*
X68114285Y-62316723D02*
X68161904Y-62126247D01*
X68161904Y-62126247D02*
X68161904Y-61983390D01*
X68161904Y-61983390D02*
X68114285Y-61792914D01*
X68114285Y-61792914D02*
X68066666Y-61697676D01*
X68066666Y-61697676D02*
X67971428Y-61602438D01*
X67971428Y-61602438D02*
X67828571Y-61554819D01*
X67828571Y-61554819D02*
X67733333Y-61554819D01*
X67733333Y-61554819D02*
X67590476Y-61602438D01*
X67590476Y-61602438D02*
X67542857Y-61650057D01*
X67161904Y-61650057D02*
X67114285Y-61602438D01*
X67114285Y-61602438D02*
X67019047Y-61554819D01*
X67019047Y-61554819D02*
X66780952Y-61554819D01*
X66780952Y-61554819D02*
X66685714Y-61602438D01*
X66685714Y-61602438D02*
X66638095Y-61650057D01*
X66638095Y-61650057D02*
X66590476Y-61745295D01*
X66590476Y-61745295D02*
X66590476Y-61840533D01*
X66590476Y-61840533D02*
X66638095Y-61983390D01*
X66638095Y-61983390D02*
X67209523Y-62554819D01*
X67209523Y-62554819D02*
X66590476Y-62554819D01*
X66209523Y-61650057D02*
X66161904Y-61602438D01*
X66161904Y-61602438D02*
X66066666Y-61554819D01*
X66066666Y-61554819D02*
X65828571Y-61554819D01*
X65828571Y-61554819D02*
X65733333Y-61602438D01*
X65733333Y-61602438D02*
X65685714Y-61650057D01*
X65685714Y-61650057D02*
X65638095Y-61745295D01*
X65638095Y-61745295D02*
X65638095Y-61840533D01*
X65638095Y-61840533D02*
X65685714Y-61983390D01*
X65685714Y-61983390D02*
X66257142Y-62554819D01*
X66257142Y-62554819D02*
X65638095Y-62554819D01*
X148100057Y-113954761D02*
X148052438Y-113859523D01*
X148052438Y-113859523D02*
X147957200Y-113764285D01*
X147957200Y-113764285D02*
X147814342Y-113621428D01*
X147814342Y-113621428D02*
X147766723Y-113526190D01*
X147766723Y-113526190D02*
X147766723Y-113430952D01*
X148004819Y-113478571D02*
X147957200Y-113383333D01*
X147957200Y-113383333D02*
X147861961Y-113288095D01*
X147861961Y-113288095D02*
X147671485Y-113240476D01*
X147671485Y-113240476D02*
X147338152Y-113240476D01*
X147338152Y-113240476D02*
X147147676Y-113288095D01*
X147147676Y-113288095D02*
X147052438Y-113383333D01*
X147052438Y-113383333D02*
X147004819Y-113478571D01*
X147004819Y-113478571D02*
X147004819Y-113669047D01*
X147004819Y-113669047D02*
X147052438Y-113764285D01*
X147052438Y-113764285D02*
X147147676Y-113859523D01*
X147147676Y-113859523D02*
X147338152Y-113907142D01*
X147338152Y-113907142D02*
X147671485Y-113907142D01*
X147671485Y-113907142D02*
X147861961Y-113859523D01*
X147861961Y-113859523D02*
X147957200Y-113764285D01*
X147957200Y-113764285D02*
X148004819Y-113669047D01*
X148004819Y-113669047D02*
X148004819Y-113478571D01*
X148004819Y-114859523D02*
X148004819Y-114288095D01*
X148004819Y-114573809D02*
X147004819Y-114573809D01*
X147004819Y-114573809D02*
X147147676Y-114478571D01*
X147147676Y-114478571D02*
X147242914Y-114383333D01*
X147242914Y-114383333D02*
X147290533Y-114288095D01*
X134454819Y-67057142D02*
X133978628Y-66723809D01*
X134454819Y-66485714D02*
X133454819Y-66485714D01*
X133454819Y-66485714D02*
X133454819Y-66866666D01*
X133454819Y-66866666D02*
X133502438Y-66961904D01*
X133502438Y-66961904D02*
X133550057Y-67009523D01*
X133550057Y-67009523D02*
X133645295Y-67057142D01*
X133645295Y-67057142D02*
X133788152Y-67057142D01*
X133788152Y-67057142D02*
X133883390Y-67009523D01*
X133883390Y-67009523D02*
X133931009Y-66961904D01*
X133931009Y-66961904D02*
X133978628Y-66866666D01*
X133978628Y-66866666D02*
X133978628Y-66485714D01*
X134454819Y-68009523D02*
X134454819Y-67438095D01*
X134454819Y-67723809D02*
X133454819Y-67723809D01*
X133454819Y-67723809D02*
X133597676Y-67628571D01*
X133597676Y-67628571D02*
X133692914Y-67533333D01*
X133692914Y-67533333D02*
X133740533Y-67438095D01*
X134454819Y-68961904D02*
X134454819Y-68390476D01*
X134454819Y-68676190D02*
X133454819Y-68676190D01*
X133454819Y-68676190D02*
X133597676Y-68580952D01*
X133597676Y-68580952D02*
X133692914Y-68485714D01*
X133692914Y-68485714D02*
X133740533Y-68390476D01*
X130991989Y-136659580D02*
X131039608Y-136707200D01*
X131039608Y-136707200D02*
X131182465Y-136754819D01*
X131182465Y-136754819D02*
X131277703Y-136754819D01*
X131277703Y-136754819D02*
X131420560Y-136707200D01*
X131420560Y-136707200D02*
X131515798Y-136611961D01*
X131515798Y-136611961D02*
X131563417Y-136516723D01*
X131563417Y-136516723D02*
X131611036Y-136326247D01*
X131611036Y-136326247D02*
X131611036Y-136183390D01*
X131611036Y-136183390D02*
X131563417Y-135992914D01*
X131563417Y-135992914D02*
X131515798Y-135897676D01*
X131515798Y-135897676D02*
X131420560Y-135802438D01*
X131420560Y-135802438D02*
X131277703Y-135754819D01*
X131277703Y-135754819D02*
X131182465Y-135754819D01*
X131182465Y-135754819D02*
X131039608Y-135802438D01*
X131039608Y-135802438D02*
X130991989Y-135850057D01*
X130134846Y-136088152D02*
X130134846Y-136754819D01*
X130372941Y-135707200D02*
X130611036Y-136421485D01*
X130611036Y-136421485D02*
X129991989Y-136421485D01*
X129087227Y-136754819D02*
X129658655Y-136754819D01*
X129372941Y-136754819D02*
X129372941Y-135754819D01*
X129372941Y-135754819D02*
X129468179Y-135897676D01*
X129468179Y-135897676D02*
X129563417Y-135992914D01*
X129563417Y-135992914D02*
X129658655Y-136040533D01*
X96794048Y-105104819D02*
X97127381Y-104628628D01*
X97365476Y-105104819D02*
X97365476Y-104104819D01*
X97365476Y-104104819D02*
X96984524Y-104104819D01*
X96984524Y-104104819D02*
X96889286Y-104152438D01*
X96889286Y-104152438D02*
X96841667Y-104200057D01*
X96841667Y-104200057D02*
X96794048Y-104295295D01*
X96794048Y-104295295D02*
X96794048Y-104438152D01*
X96794048Y-104438152D02*
X96841667Y-104533390D01*
X96841667Y-104533390D02*
X96889286Y-104581009D01*
X96889286Y-104581009D02*
X96984524Y-104628628D01*
X96984524Y-104628628D02*
X97365476Y-104628628D01*
X95841667Y-105104819D02*
X96413095Y-105104819D01*
X96127381Y-105104819D02*
X96127381Y-104104819D01*
X96127381Y-104104819D02*
X96222619Y-104247676D01*
X96222619Y-104247676D02*
X96317857Y-104342914D01*
X96317857Y-104342914D02*
X96413095Y-104390533D01*
X95222619Y-104104819D02*
X95127381Y-104104819D01*
X95127381Y-104104819D02*
X95032143Y-104152438D01*
X95032143Y-104152438D02*
X94984524Y-104200057D01*
X94984524Y-104200057D02*
X94936905Y-104295295D01*
X94936905Y-104295295D02*
X94889286Y-104485771D01*
X94889286Y-104485771D02*
X94889286Y-104723866D01*
X94889286Y-104723866D02*
X94936905Y-104914342D01*
X94936905Y-104914342D02*
X94984524Y-105009580D01*
X94984524Y-105009580D02*
X95032143Y-105057200D01*
X95032143Y-105057200D02*
X95127381Y-105104819D01*
X95127381Y-105104819D02*
X95222619Y-105104819D01*
X95222619Y-105104819D02*
X95317857Y-105057200D01*
X95317857Y-105057200D02*
X95365476Y-105009580D01*
X95365476Y-105009580D02*
X95413095Y-104914342D01*
X95413095Y-104914342D02*
X95460714Y-104723866D01*
X95460714Y-104723866D02*
X95460714Y-104485771D01*
X95460714Y-104485771D02*
X95413095Y-104295295D01*
X95413095Y-104295295D02*
X95365476Y-104200057D01*
X95365476Y-104200057D02*
X95317857Y-104152438D01*
X95317857Y-104152438D02*
X95222619Y-104104819D01*
X93936905Y-105104819D02*
X94508333Y-105104819D01*
X94222619Y-105104819D02*
X94222619Y-104104819D01*
X94222619Y-104104819D02*
X94317857Y-104247676D01*
X94317857Y-104247676D02*
X94413095Y-104342914D01*
X94413095Y-104342914D02*
X94508333Y-104390533D01*
X109000306Y-49708830D02*
X109000306Y-49776174D01*
X109000306Y-49776174D02*
X109067650Y-49910861D01*
X109067650Y-49910861D02*
X109134993Y-49978204D01*
X109134993Y-49978204D02*
X109269680Y-50045548D01*
X109269680Y-50045548D02*
X109404367Y-50045548D01*
X109404367Y-50045548D02*
X109505382Y-50011876D01*
X109505382Y-50011876D02*
X109673741Y-49910861D01*
X109673741Y-49910861D02*
X109774756Y-49809846D01*
X109774756Y-49809846D02*
X109875772Y-49641487D01*
X109875772Y-49641487D02*
X109909443Y-49540472D01*
X109909443Y-49540472D02*
X109909443Y-49405785D01*
X109909443Y-49405785D02*
X109842100Y-49271098D01*
X109842100Y-49271098D02*
X109774756Y-49203754D01*
X109774756Y-49203754D02*
X109640069Y-49136411D01*
X109640069Y-49136411D02*
X109572726Y-49136411D01*
X109404367Y-48833365D02*
X108966634Y-48395632D01*
X108966634Y-48395632D02*
X108932963Y-48900708D01*
X108932963Y-48900708D02*
X108831947Y-48799693D01*
X108831947Y-48799693D02*
X108730932Y-48766021D01*
X108730932Y-48766021D02*
X108663589Y-48766021D01*
X108663589Y-48766021D02*
X108562573Y-48799693D01*
X108562573Y-48799693D02*
X108394215Y-48968052D01*
X108394215Y-48968052D02*
X108360543Y-49069067D01*
X108360543Y-49069067D02*
X108360543Y-49136411D01*
X108360543Y-49136411D02*
X108394215Y-49237426D01*
X108394215Y-49237426D02*
X108596245Y-49439456D01*
X108596245Y-49439456D02*
X108697260Y-49473128D01*
X108697260Y-49473128D02*
X108764604Y-49473128D01*
X107586092Y-48429304D02*
X107990153Y-48833365D01*
X107788123Y-48631334D02*
X108495230Y-47924227D01*
X108495230Y-47924227D02*
X108461558Y-48092586D01*
X108461558Y-48092586D02*
X108461558Y-48227273D01*
X108461558Y-48227273D02*
X108495230Y-48328288D01*
X153559623Y-119587142D02*
X153083432Y-119253809D01*
X153559623Y-119015714D02*
X152559623Y-119015714D01*
X152559623Y-119015714D02*
X152559623Y-119396666D01*
X152559623Y-119396666D02*
X152607242Y-119491904D01*
X152607242Y-119491904D02*
X152654861Y-119539523D01*
X152654861Y-119539523D02*
X152750099Y-119587142D01*
X152750099Y-119587142D02*
X152892956Y-119587142D01*
X152892956Y-119587142D02*
X152988194Y-119539523D01*
X152988194Y-119539523D02*
X153035813Y-119491904D01*
X153035813Y-119491904D02*
X153083432Y-119396666D01*
X153083432Y-119396666D02*
X153083432Y-119015714D01*
X152559623Y-119920476D02*
X152559623Y-120539523D01*
X152559623Y-120539523D02*
X152940575Y-120206190D01*
X152940575Y-120206190D02*
X152940575Y-120349047D01*
X152940575Y-120349047D02*
X152988194Y-120444285D01*
X152988194Y-120444285D02*
X153035813Y-120491904D01*
X153035813Y-120491904D02*
X153131051Y-120539523D01*
X153131051Y-120539523D02*
X153369146Y-120539523D01*
X153369146Y-120539523D02*
X153464384Y-120491904D01*
X153464384Y-120491904D02*
X153512004Y-120444285D01*
X153512004Y-120444285D02*
X153559623Y-120349047D01*
X153559623Y-120349047D02*
X153559623Y-120063333D01*
X153559623Y-120063333D02*
X153512004Y-119968095D01*
X153512004Y-119968095D02*
X153464384Y-119920476D01*
X152892956Y-121396666D02*
X153559623Y-121396666D01*
X152512004Y-121158571D02*
X153226289Y-120920476D01*
X153226289Y-120920476D02*
X153226289Y-121539523D01*
X67492857Y-84959580D02*
X67540476Y-85007200D01*
X67540476Y-85007200D02*
X67683333Y-85054819D01*
X67683333Y-85054819D02*
X67778571Y-85054819D01*
X67778571Y-85054819D02*
X67921428Y-85007200D01*
X67921428Y-85007200D02*
X68016666Y-84911961D01*
X68016666Y-84911961D02*
X68064285Y-84816723D01*
X68064285Y-84816723D02*
X68111904Y-84626247D01*
X68111904Y-84626247D02*
X68111904Y-84483390D01*
X68111904Y-84483390D02*
X68064285Y-84292914D01*
X68064285Y-84292914D02*
X68016666Y-84197676D01*
X68016666Y-84197676D02*
X67921428Y-84102438D01*
X67921428Y-84102438D02*
X67778571Y-84054819D01*
X67778571Y-84054819D02*
X67683333Y-84054819D01*
X67683333Y-84054819D02*
X67540476Y-84102438D01*
X67540476Y-84102438D02*
X67492857Y-84150057D01*
X67159523Y-84054819D02*
X66492857Y-84054819D01*
X66492857Y-84054819D02*
X66921428Y-85054819D01*
X65635714Y-84054819D02*
X66111904Y-84054819D01*
X66111904Y-84054819D02*
X66159523Y-84531009D01*
X66159523Y-84531009D02*
X66111904Y-84483390D01*
X66111904Y-84483390D02*
X66016666Y-84435771D01*
X66016666Y-84435771D02*
X65778571Y-84435771D01*
X65778571Y-84435771D02*
X65683333Y-84483390D01*
X65683333Y-84483390D02*
X65635714Y-84531009D01*
X65635714Y-84531009D02*
X65588095Y-84626247D01*
X65588095Y-84626247D02*
X65588095Y-84864342D01*
X65588095Y-84864342D02*
X65635714Y-84959580D01*
X65635714Y-84959580D02*
X65683333Y-85007200D01*
X65683333Y-85007200D02*
X65778571Y-85054819D01*
X65778571Y-85054819D02*
X66016666Y-85054819D01*
X66016666Y-85054819D02*
X66111904Y-85007200D01*
X66111904Y-85007200D02*
X66159523Y-84959580D01*
X155284580Y-119607142D02*
X155332200Y-119559523D01*
X155332200Y-119559523D02*
X155379819Y-119416666D01*
X155379819Y-119416666D02*
X155379819Y-119321428D01*
X155379819Y-119321428D02*
X155332200Y-119178571D01*
X155332200Y-119178571D02*
X155236961Y-119083333D01*
X155236961Y-119083333D02*
X155141723Y-119035714D01*
X155141723Y-119035714D02*
X154951247Y-118988095D01*
X154951247Y-118988095D02*
X154808390Y-118988095D01*
X154808390Y-118988095D02*
X154617914Y-119035714D01*
X154617914Y-119035714D02*
X154522676Y-119083333D01*
X154522676Y-119083333D02*
X154427438Y-119178571D01*
X154427438Y-119178571D02*
X154379819Y-119321428D01*
X154379819Y-119321428D02*
X154379819Y-119416666D01*
X154379819Y-119416666D02*
X154427438Y-119559523D01*
X154427438Y-119559523D02*
X154475057Y-119607142D01*
X154713152Y-120464285D02*
X155379819Y-120464285D01*
X154332200Y-120226190D02*
X155046485Y-119988095D01*
X155046485Y-119988095D02*
X155046485Y-120607142D01*
X154713152Y-121416666D02*
X155379819Y-121416666D01*
X154332200Y-121178571D02*
X155046485Y-120940476D01*
X155046485Y-120940476D02*
X155046485Y-121559523D01*
X128142857Y-75009580D02*
X128190476Y-75057200D01*
X128190476Y-75057200D02*
X128333333Y-75104819D01*
X128333333Y-75104819D02*
X128428571Y-75104819D01*
X128428571Y-75104819D02*
X128571428Y-75057200D01*
X128571428Y-75057200D02*
X128666666Y-74961961D01*
X128666666Y-74961961D02*
X128714285Y-74866723D01*
X128714285Y-74866723D02*
X128761904Y-74676247D01*
X128761904Y-74676247D02*
X128761904Y-74533390D01*
X128761904Y-74533390D02*
X128714285Y-74342914D01*
X128714285Y-74342914D02*
X128666666Y-74247676D01*
X128666666Y-74247676D02*
X128571428Y-74152438D01*
X128571428Y-74152438D02*
X128428571Y-74104819D01*
X128428571Y-74104819D02*
X128333333Y-74104819D01*
X128333333Y-74104819D02*
X128190476Y-74152438D01*
X128190476Y-74152438D02*
X128142857Y-74200057D01*
X127571428Y-74533390D02*
X127666666Y-74485771D01*
X127666666Y-74485771D02*
X127714285Y-74438152D01*
X127714285Y-74438152D02*
X127761904Y-74342914D01*
X127761904Y-74342914D02*
X127761904Y-74295295D01*
X127761904Y-74295295D02*
X127714285Y-74200057D01*
X127714285Y-74200057D02*
X127666666Y-74152438D01*
X127666666Y-74152438D02*
X127571428Y-74104819D01*
X127571428Y-74104819D02*
X127380952Y-74104819D01*
X127380952Y-74104819D02*
X127285714Y-74152438D01*
X127285714Y-74152438D02*
X127238095Y-74200057D01*
X127238095Y-74200057D02*
X127190476Y-74295295D01*
X127190476Y-74295295D02*
X127190476Y-74342914D01*
X127190476Y-74342914D02*
X127238095Y-74438152D01*
X127238095Y-74438152D02*
X127285714Y-74485771D01*
X127285714Y-74485771D02*
X127380952Y-74533390D01*
X127380952Y-74533390D02*
X127571428Y-74533390D01*
X127571428Y-74533390D02*
X127666666Y-74581009D01*
X127666666Y-74581009D02*
X127714285Y-74628628D01*
X127714285Y-74628628D02*
X127761904Y-74723866D01*
X127761904Y-74723866D02*
X127761904Y-74914342D01*
X127761904Y-74914342D02*
X127714285Y-75009580D01*
X127714285Y-75009580D02*
X127666666Y-75057200D01*
X127666666Y-75057200D02*
X127571428Y-75104819D01*
X127571428Y-75104819D02*
X127380952Y-75104819D01*
X127380952Y-75104819D02*
X127285714Y-75057200D01*
X127285714Y-75057200D02*
X127238095Y-75009580D01*
X127238095Y-75009580D02*
X127190476Y-74914342D01*
X127190476Y-74914342D02*
X127190476Y-74723866D01*
X127190476Y-74723866D02*
X127238095Y-74628628D01*
X127238095Y-74628628D02*
X127285714Y-74581009D01*
X127285714Y-74581009D02*
X127380952Y-74533390D01*
X126571428Y-74104819D02*
X126476190Y-74104819D01*
X126476190Y-74104819D02*
X126380952Y-74152438D01*
X126380952Y-74152438D02*
X126333333Y-74200057D01*
X126333333Y-74200057D02*
X126285714Y-74295295D01*
X126285714Y-74295295D02*
X126238095Y-74485771D01*
X126238095Y-74485771D02*
X126238095Y-74723866D01*
X126238095Y-74723866D02*
X126285714Y-74914342D01*
X126285714Y-74914342D02*
X126333333Y-75009580D01*
X126333333Y-75009580D02*
X126380952Y-75057200D01*
X126380952Y-75057200D02*
X126476190Y-75104819D01*
X126476190Y-75104819D02*
X126571428Y-75104819D01*
X126571428Y-75104819D02*
X126666666Y-75057200D01*
X126666666Y-75057200D02*
X126714285Y-75009580D01*
X126714285Y-75009580D02*
X126761904Y-74914342D01*
X126761904Y-74914342D02*
X126809523Y-74723866D01*
X126809523Y-74723866D02*
X126809523Y-74485771D01*
X126809523Y-74485771D02*
X126761904Y-74295295D01*
X126761904Y-74295295D02*
X126714285Y-74200057D01*
X126714285Y-74200057D02*
X126666666Y-74152438D01*
X126666666Y-74152438D02*
X126571428Y-74104819D01*
X124992857Y-78109580D02*
X125040476Y-78157200D01*
X125040476Y-78157200D02*
X125183333Y-78204819D01*
X125183333Y-78204819D02*
X125278571Y-78204819D01*
X125278571Y-78204819D02*
X125421428Y-78157200D01*
X125421428Y-78157200D02*
X125516666Y-78061961D01*
X125516666Y-78061961D02*
X125564285Y-77966723D01*
X125564285Y-77966723D02*
X125611904Y-77776247D01*
X125611904Y-77776247D02*
X125611904Y-77633390D01*
X125611904Y-77633390D02*
X125564285Y-77442914D01*
X125564285Y-77442914D02*
X125516666Y-77347676D01*
X125516666Y-77347676D02*
X125421428Y-77252438D01*
X125421428Y-77252438D02*
X125278571Y-77204819D01*
X125278571Y-77204819D02*
X125183333Y-77204819D01*
X125183333Y-77204819D02*
X125040476Y-77252438D01*
X125040476Y-77252438D02*
X124992857Y-77300057D01*
X124659523Y-77204819D02*
X123992857Y-77204819D01*
X123992857Y-77204819D02*
X124421428Y-78204819D01*
X123564285Y-78204819D02*
X123373809Y-78204819D01*
X123373809Y-78204819D02*
X123278571Y-78157200D01*
X123278571Y-78157200D02*
X123230952Y-78109580D01*
X123230952Y-78109580D02*
X123135714Y-77966723D01*
X123135714Y-77966723D02*
X123088095Y-77776247D01*
X123088095Y-77776247D02*
X123088095Y-77395295D01*
X123088095Y-77395295D02*
X123135714Y-77300057D01*
X123135714Y-77300057D02*
X123183333Y-77252438D01*
X123183333Y-77252438D02*
X123278571Y-77204819D01*
X123278571Y-77204819D02*
X123469047Y-77204819D01*
X123469047Y-77204819D02*
X123564285Y-77252438D01*
X123564285Y-77252438D02*
X123611904Y-77300057D01*
X123611904Y-77300057D02*
X123659523Y-77395295D01*
X123659523Y-77395295D02*
X123659523Y-77633390D01*
X123659523Y-77633390D02*
X123611904Y-77728628D01*
X123611904Y-77728628D02*
X123564285Y-77776247D01*
X123564285Y-77776247D02*
X123469047Y-77823866D01*
X123469047Y-77823866D02*
X123278571Y-77823866D01*
X123278571Y-77823866D02*
X123183333Y-77776247D01*
X123183333Y-77776247D02*
X123135714Y-77728628D01*
X123135714Y-77728628D02*
X123088095Y-77633390D01*
X126859580Y-80233333D02*
X126907200Y-80185714D01*
X126907200Y-80185714D02*
X126954819Y-80042857D01*
X126954819Y-80042857D02*
X126954819Y-79947619D01*
X126954819Y-79947619D02*
X126907200Y-79804762D01*
X126907200Y-79804762D02*
X126811961Y-79709524D01*
X126811961Y-79709524D02*
X126716723Y-79661905D01*
X126716723Y-79661905D02*
X126526247Y-79614286D01*
X126526247Y-79614286D02*
X126383390Y-79614286D01*
X126383390Y-79614286D02*
X126192914Y-79661905D01*
X126192914Y-79661905D02*
X126097676Y-79709524D01*
X126097676Y-79709524D02*
X126002438Y-79804762D01*
X126002438Y-79804762D02*
X125954819Y-79947619D01*
X125954819Y-79947619D02*
X125954819Y-80042857D01*
X125954819Y-80042857D02*
X126002438Y-80185714D01*
X126002438Y-80185714D02*
X126050057Y-80233333D01*
X126050057Y-80614286D02*
X126002438Y-80661905D01*
X126002438Y-80661905D02*
X125954819Y-80757143D01*
X125954819Y-80757143D02*
X125954819Y-80995238D01*
X125954819Y-80995238D02*
X126002438Y-81090476D01*
X126002438Y-81090476D02*
X126050057Y-81138095D01*
X126050057Y-81138095D02*
X126145295Y-81185714D01*
X126145295Y-81185714D02*
X126240533Y-81185714D01*
X126240533Y-81185714D02*
X126383390Y-81138095D01*
X126383390Y-81138095D02*
X126954819Y-80566667D01*
X126954819Y-80566667D02*
X126954819Y-81185714D01*
X156634580Y-119607142D02*
X156682200Y-119559523D01*
X156682200Y-119559523D02*
X156729819Y-119416666D01*
X156729819Y-119416666D02*
X156729819Y-119321428D01*
X156729819Y-119321428D02*
X156682200Y-119178571D01*
X156682200Y-119178571D02*
X156586961Y-119083333D01*
X156586961Y-119083333D02*
X156491723Y-119035714D01*
X156491723Y-119035714D02*
X156301247Y-118988095D01*
X156301247Y-118988095D02*
X156158390Y-118988095D01*
X156158390Y-118988095D02*
X155967914Y-119035714D01*
X155967914Y-119035714D02*
X155872676Y-119083333D01*
X155872676Y-119083333D02*
X155777438Y-119178571D01*
X155777438Y-119178571D02*
X155729819Y-119321428D01*
X155729819Y-119321428D02*
X155729819Y-119416666D01*
X155729819Y-119416666D02*
X155777438Y-119559523D01*
X155777438Y-119559523D02*
X155825057Y-119607142D01*
X156063152Y-120464285D02*
X156729819Y-120464285D01*
X155682200Y-120226190D02*
X156396485Y-119988095D01*
X156396485Y-119988095D02*
X156396485Y-120607142D01*
X155729819Y-121464285D02*
X155729819Y-120988095D01*
X155729819Y-120988095D02*
X156206009Y-120940476D01*
X156206009Y-120940476D02*
X156158390Y-120988095D01*
X156158390Y-120988095D02*
X156110771Y-121083333D01*
X156110771Y-121083333D02*
X156110771Y-121321428D01*
X156110771Y-121321428D02*
X156158390Y-121416666D01*
X156158390Y-121416666D02*
X156206009Y-121464285D01*
X156206009Y-121464285D02*
X156301247Y-121511904D01*
X156301247Y-121511904D02*
X156539342Y-121511904D01*
X156539342Y-121511904D02*
X156634580Y-121464285D01*
X156634580Y-121464285D02*
X156682200Y-121416666D01*
X156682200Y-121416666D02*
X156729819Y-121321428D01*
X156729819Y-121321428D02*
X156729819Y-121083333D01*
X156729819Y-121083333D02*
X156682200Y-120988095D01*
X156682200Y-120988095D02*
X156634580Y-120940476D01*
X144759580Y-106857142D02*
X144807200Y-106809523D01*
X144807200Y-106809523D02*
X144854819Y-106666666D01*
X144854819Y-106666666D02*
X144854819Y-106571428D01*
X144854819Y-106571428D02*
X144807200Y-106428571D01*
X144807200Y-106428571D02*
X144711961Y-106333333D01*
X144711961Y-106333333D02*
X144616723Y-106285714D01*
X144616723Y-106285714D02*
X144426247Y-106238095D01*
X144426247Y-106238095D02*
X144283390Y-106238095D01*
X144283390Y-106238095D02*
X144092914Y-106285714D01*
X144092914Y-106285714D02*
X143997676Y-106333333D01*
X143997676Y-106333333D02*
X143902438Y-106428571D01*
X143902438Y-106428571D02*
X143854819Y-106571428D01*
X143854819Y-106571428D02*
X143854819Y-106666666D01*
X143854819Y-106666666D02*
X143902438Y-106809523D01*
X143902438Y-106809523D02*
X143950057Y-106857142D01*
X144188152Y-107714285D02*
X144854819Y-107714285D01*
X143807200Y-107476190D02*
X144521485Y-107238095D01*
X144521485Y-107238095D02*
X144521485Y-107857142D01*
X143854819Y-108428571D02*
X143854819Y-108523809D01*
X143854819Y-108523809D02*
X143902438Y-108619047D01*
X143902438Y-108619047D02*
X143950057Y-108666666D01*
X143950057Y-108666666D02*
X144045295Y-108714285D01*
X144045295Y-108714285D02*
X144235771Y-108761904D01*
X144235771Y-108761904D02*
X144473866Y-108761904D01*
X144473866Y-108761904D02*
X144664342Y-108714285D01*
X144664342Y-108714285D02*
X144759580Y-108666666D01*
X144759580Y-108666666D02*
X144807200Y-108619047D01*
X144807200Y-108619047D02*
X144854819Y-108523809D01*
X144854819Y-108523809D02*
X144854819Y-108428571D01*
X144854819Y-108428571D02*
X144807200Y-108333333D01*
X144807200Y-108333333D02*
X144759580Y-108285714D01*
X144759580Y-108285714D02*
X144664342Y-108238095D01*
X144664342Y-108238095D02*
X144473866Y-108190476D01*
X144473866Y-108190476D02*
X144235771Y-108190476D01*
X144235771Y-108190476D02*
X144045295Y-108238095D01*
X144045295Y-108238095D02*
X143950057Y-108285714D01*
X143950057Y-108285714D02*
X143902438Y-108333333D01*
X143902438Y-108333333D02*
X143854819Y-108428571D01*
X156519047Y-98354819D02*
X156852380Y-97878628D01*
X157090475Y-98354819D02*
X157090475Y-97354819D01*
X157090475Y-97354819D02*
X156709523Y-97354819D01*
X156709523Y-97354819D02*
X156614285Y-97402438D01*
X156614285Y-97402438D02*
X156566666Y-97450057D01*
X156566666Y-97450057D02*
X156519047Y-97545295D01*
X156519047Y-97545295D02*
X156519047Y-97688152D01*
X156519047Y-97688152D02*
X156566666Y-97783390D01*
X156566666Y-97783390D02*
X156614285Y-97831009D01*
X156614285Y-97831009D02*
X156709523Y-97878628D01*
X156709523Y-97878628D02*
X157090475Y-97878628D01*
X155566666Y-98354819D02*
X156138094Y-98354819D01*
X155852380Y-98354819D02*
X155852380Y-97354819D01*
X155852380Y-97354819D02*
X155947618Y-97497676D01*
X155947618Y-97497676D02*
X156042856Y-97592914D01*
X156042856Y-97592914D02*
X156138094Y-97640533D01*
X154614285Y-98354819D02*
X155185713Y-98354819D01*
X154899999Y-98354819D02*
X154899999Y-97354819D01*
X154899999Y-97354819D02*
X154995237Y-97497676D01*
X154995237Y-97497676D02*
X155090475Y-97592914D01*
X155090475Y-97592914D02*
X155185713Y-97640533D01*
X153661904Y-98354819D02*
X154233332Y-98354819D01*
X153947618Y-98354819D02*
X153947618Y-97354819D01*
X153947618Y-97354819D02*
X154042856Y-97497676D01*
X154042856Y-97497676D02*
X154138094Y-97592914D01*
X154138094Y-97592914D02*
X154233332Y-97640533D01*
X131054819Y-119257142D02*
X130578628Y-118923809D01*
X131054819Y-118685714D02*
X130054819Y-118685714D01*
X130054819Y-118685714D02*
X130054819Y-119066666D01*
X130054819Y-119066666D02*
X130102438Y-119161904D01*
X130102438Y-119161904D02*
X130150057Y-119209523D01*
X130150057Y-119209523D02*
X130245295Y-119257142D01*
X130245295Y-119257142D02*
X130388152Y-119257142D01*
X130388152Y-119257142D02*
X130483390Y-119209523D01*
X130483390Y-119209523D02*
X130531009Y-119161904D01*
X130531009Y-119161904D02*
X130578628Y-119066666D01*
X130578628Y-119066666D02*
X130578628Y-118685714D01*
X130054819Y-120161904D02*
X130054819Y-119685714D01*
X130054819Y-119685714D02*
X130531009Y-119638095D01*
X130531009Y-119638095D02*
X130483390Y-119685714D01*
X130483390Y-119685714D02*
X130435771Y-119780952D01*
X130435771Y-119780952D02*
X130435771Y-120019047D01*
X130435771Y-120019047D02*
X130483390Y-120114285D01*
X130483390Y-120114285D02*
X130531009Y-120161904D01*
X130531009Y-120161904D02*
X130626247Y-120209523D01*
X130626247Y-120209523D02*
X130864342Y-120209523D01*
X130864342Y-120209523D02*
X130959580Y-120161904D01*
X130959580Y-120161904D02*
X131007200Y-120114285D01*
X131007200Y-120114285D02*
X131054819Y-120019047D01*
X131054819Y-120019047D02*
X131054819Y-119780952D01*
X131054819Y-119780952D02*
X131007200Y-119685714D01*
X131007200Y-119685714D02*
X130959580Y-119638095D01*
X130054819Y-120542857D02*
X130054819Y-121209523D01*
X130054819Y-121209523D02*
X131054819Y-120780952D01*
X74292857Y-96254819D02*
X74626190Y-95778628D01*
X74864285Y-96254819D02*
X74864285Y-95254819D01*
X74864285Y-95254819D02*
X74483333Y-95254819D01*
X74483333Y-95254819D02*
X74388095Y-95302438D01*
X74388095Y-95302438D02*
X74340476Y-95350057D01*
X74340476Y-95350057D02*
X74292857Y-95445295D01*
X74292857Y-95445295D02*
X74292857Y-95588152D01*
X74292857Y-95588152D02*
X74340476Y-95683390D01*
X74340476Y-95683390D02*
X74388095Y-95731009D01*
X74388095Y-95731009D02*
X74483333Y-95778628D01*
X74483333Y-95778628D02*
X74864285Y-95778628D01*
X73911904Y-95350057D02*
X73864285Y-95302438D01*
X73864285Y-95302438D02*
X73769047Y-95254819D01*
X73769047Y-95254819D02*
X73530952Y-95254819D01*
X73530952Y-95254819D02*
X73435714Y-95302438D01*
X73435714Y-95302438D02*
X73388095Y-95350057D01*
X73388095Y-95350057D02*
X73340476Y-95445295D01*
X73340476Y-95445295D02*
X73340476Y-95540533D01*
X73340476Y-95540533D02*
X73388095Y-95683390D01*
X73388095Y-95683390D02*
X73959523Y-96254819D01*
X73959523Y-96254819D02*
X73340476Y-96254819D01*
X72435714Y-95254819D02*
X72911904Y-95254819D01*
X72911904Y-95254819D02*
X72959523Y-95731009D01*
X72959523Y-95731009D02*
X72911904Y-95683390D01*
X72911904Y-95683390D02*
X72816666Y-95635771D01*
X72816666Y-95635771D02*
X72578571Y-95635771D01*
X72578571Y-95635771D02*
X72483333Y-95683390D01*
X72483333Y-95683390D02*
X72435714Y-95731009D01*
X72435714Y-95731009D02*
X72388095Y-95826247D01*
X72388095Y-95826247D02*
X72388095Y-96064342D01*
X72388095Y-96064342D02*
X72435714Y-96159580D01*
X72435714Y-96159580D02*
X72483333Y-96207200D01*
X72483333Y-96207200D02*
X72578571Y-96254819D01*
X72578571Y-96254819D02*
X72816666Y-96254819D01*
X72816666Y-96254819D02*
X72911904Y-96207200D01*
X72911904Y-96207200D02*
X72959523Y-96159580D01*
X69892857Y-53759580D02*
X69940476Y-53807200D01*
X69940476Y-53807200D02*
X70083333Y-53854819D01*
X70083333Y-53854819D02*
X70178571Y-53854819D01*
X70178571Y-53854819D02*
X70321428Y-53807200D01*
X70321428Y-53807200D02*
X70416666Y-53711961D01*
X70416666Y-53711961D02*
X70464285Y-53616723D01*
X70464285Y-53616723D02*
X70511904Y-53426247D01*
X70511904Y-53426247D02*
X70511904Y-53283390D01*
X70511904Y-53283390D02*
X70464285Y-53092914D01*
X70464285Y-53092914D02*
X70416666Y-52997676D01*
X70416666Y-52997676D02*
X70321428Y-52902438D01*
X70321428Y-52902438D02*
X70178571Y-52854819D01*
X70178571Y-52854819D02*
X70083333Y-52854819D01*
X70083333Y-52854819D02*
X69940476Y-52902438D01*
X69940476Y-52902438D02*
X69892857Y-52950057D01*
X69511904Y-52950057D02*
X69464285Y-52902438D01*
X69464285Y-52902438D02*
X69369047Y-52854819D01*
X69369047Y-52854819D02*
X69130952Y-52854819D01*
X69130952Y-52854819D02*
X69035714Y-52902438D01*
X69035714Y-52902438D02*
X68988095Y-52950057D01*
X68988095Y-52950057D02*
X68940476Y-53045295D01*
X68940476Y-53045295D02*
X68940476Y-53140533D01*
X68940476Y-53140533D02*
X68988095Y-53283390D01*
X68988095Y-53283390D02*
X69559523Y-53854819D01*
X69559523Y-53854819D02*
X68940476Y-53854819D01*
X68607142Y-52854819D02*
X67988095Y-52854819D01*
X67988095Y-52854819D02*
X68321428Y-53235771D01*
X68321428Y-53235771D02*
X68178571Y-53235771D01*
X68178571Y-53235771D02*
X68083333Y-53283390D01*
X68083333Y-53283390D02*
X68035714Y-53331009D01*
X68035714Y-53331009D02*
X67988095Y-53426247D01*
X67988095Y-53426247D02*
X67988095Y-53664342D01*
X67988095Y-53664342D02*
X68035714Y-53759580D01*
X68035714Y-53759580D02*
X68083333Y-53807200D01*
X68083333Y-53807200D02*
X68178571Y-53854819D01*
X68178571Y-53854819D02*
X68464285Y-53854819D01*
X68464285Y-53854819D02*
X68559523Y-53807200D01*
X68559523Y-53807200D02*
X68607142Y-53759580D01*
X80467857Y-121154819D02*
X80801190Y-120678628D01*
X81039285Y-121154819D02*
X81039285Y-120154819D01*
X81039285Y-120154819D02*
X80658333Y-120154819D01*
X80658333Y-120154819D02*
X80563095Y-120202438D01*
X80563095Y-120202438D02*
X80515476Y-120250057D01*
X80515476Y-120250057D02*
X80467857Y-120345295D01*
X80467857Y-120345295D02*
X80467857Y-120488152D01*
X80467857Y-120488152D02*
X80515476Y-120583390D01*
X80515476Y-120583390D02*
X80563095Y-120631009D01*
X80563095Y-120631009D02*
X80658333Y-120678628D01*
X80658333Y-120678628D02*
X81039285Y-120678628D01*
X79991666Y-121154819D02*
X79801190Y-121154819D01*
X79801190Y-121154819D02*
X79705952Y-121107200D01*
X79705952Y-121107200D02*
X79658333Y-121059580D01*
X79658333Y-121059580D02*
X79563095Y-120916723D01*
X79563095Y-120916723D02*
X79515476Y-120726247D01*
X79515476Y-120726247D02*
X79515476Y-120345295D01*
X79515476Y-120345295D02*
X79563095Y-120250057D01*
X79563095Y-120250057D02*
X79610714Y-120202438D01*
X79610714Y-120202438D02*
X79705952Y-120154819D01*
X79705952Y-120154819D02*
X79896428Y-120154819D01*
X79896428Y-120154819D02*
X79991666Y-120202438D01*
X79991666Y-120202438D02*
X80039285Y-120250057D01*
X80039285Y-120250057D02*
X80086904Y-120345295D01*
X80086904Y-120345295D02*
X80086904Y-120583390D01*
X80086904Y-120583390D02*
X80039285Y-120678628D01*
X80039285Y-120678628D02*
X79991666Y-120726247D01*
X79991666Y-120726247D02*
X79896428Y-120773866D01*
X79896428Y-120773866D02*
X79705952Y-120773866D01*
X79705952Y-120773866D02*
X79610714Y-120726247D01*
X79610714Y-120726247D02*
X79563095Y-120678628D01*
X79563095Y-120678628D02*
X79515476Y-120583390D01*
X79182142Y-120154819D02*
X78515476Y-120154819D01*
X78515476Y-120154819D02*
X78944047Y-121154819D01*
X75992857Y-119104819D02*
X76326190Y-118628628D01*
X76564285Y-119104819D02*
X76564285Y-118104819D01*
X76564285Y-118104819D02*
X76183333Y-118104819D01*
X76183333Y-118104819D02*
X76088095Y-118152438D01*
X76088095Y-118152438D02*
X76040476Y-118200057D01*
X76040476Y-118200057D02*
X75992857Y-118295295D01*
X75992857Y-118295295D02*
X75992857Y-118438152D01*
X75992857Y-118438152D02*
X76040476Y-118533390D01*
X76040476Y-118533390D02*
X76088095Y-118581009D01*
X76088095Y-118581009D02*
X76183333Y-118628628D01*
X76183333Y-118628628D02*
X76564285Y-118628628D01*
X75516666Y-119104819D02*
X75326190Y-119104819D01*
X75326190Y-119104819D02*
X75230952Y-119057200D01*
X75230952Y-119057200D02*
X75183333Y-119009580D01*
X75183333Y-119009580D02*
X75088095Y-118866723D01*
X75088095Y-118866723D02*
X75040476Y-118676247D01*
X75040476Y-118676247D02*
X75040476Y-118295295D01*
X75040476Y-118295295D02*
X75088095Y-118200057D01*
X75088095Y-118200057D02*
X75135714Y-118152438D01*
X75135714Y-118152438D02*
X75230952Y-118104819D01*
X75230952Y-118104819D02*
X75421428Y-118104819D01*
X75421428Y-118104819D02*
X75516666Y-118152438D01*
X75516666Y-118152438D02*
X75564285Y-118200057D01*
X75564285Y-118200057D02*
X75611904Y-118295295D01*
X75611904Y-118295295D02*
X75611904Y-118533390D01*
X75611904Y-118533390D02*
X75564285Y-118628628D01*
X75564285Y-118628628D02*
X75516666Y-118676247D01*
X75516666Y-118676247D02*
X75421428Y-118723866D01*
X75421428Y-118723866D02*
X75230952Y-118723866D01*
X75230952Y-118723866D02*
X75135714Y-118676247D01*
X75135714Y-118676247D02*
X75088095Y-118628628D01*
X75088095Y-118628628D02*
X75040476Y-118533390D01*
X74183333Y-118104819D02*
X74373809Y-118104819D01*
X74373809Y-118104819D02*
X74469047Y-118152438D01*
X74469047Y-118152438D02*
X74516666Y-118200057D01*
X74516666Y-118200057D02*
X74611904Y-118342914D01*
X74611904Y-118342914D02*
X74659523Y-118533390D01*
X74659523Y-118533390D02*
X74659523Y-118914342D01*
X74659523Y-118914342D02*
X74611904Y-119009580D01*
X74611904Y-119009580D02*
X74564285Y-119057200D01*
X74564285Y-119057200D02*
X74469047Y-119104819D01*
X74469047Y-119104819D02*
X74278571Y-119104819D01*
X74278571Y-119104819D02*
X74183333Y-119057200D01*
X74183333Y-119057200D02*
X74135714Y-119009580D01*
X74135714Y-119009580D02*
X74088095Y-118914342D01*
X74088095Y-118914342D02*
X74088095Y-118676247D01*
X74088095Y-118676247D02*
X74135714Y-118581009D01*
X74135714Y-118581009D02*
X74183333Y-118533390D01*
X74183333Y-118533390D02*
X74278571Y-118485771D01*
X74278571Y-118485771D02*
X74469047Y-118485771D01*
X74469047Y-118485771D02*
X74564285Y-118533390D01*
X74564285Y-118533390D02*
X74611904Y-118581009D01*
X74611904Y-118581009D02*
X74659523Y-118676247D01*
X95992859Y-111604818D02*
X96326192Y-111128627D01*
X96564287Y-111604818D02*
X96564287Y-110604818D01*
X96564287Y-110604818D02*
X96183335Y-110604818D01*
X96183335Y-110604818D02*
X96088097Y-110652437D01*
X96088097Y-110652437D02*
X96040478Y-110700056D01*
X96040478Y-110700056D02*
X95992859Y-110795294D01*
X95992859Y-110795294D02*
X95992859Y-110938151D01*
X95992859Y-110938151D02*
X96040478Y-111033389D01*
X96040478Y-111033389D02*
X96088097Y-111081008D01*
X96088097Y-111081008D02*
X96183335Y-111128627D01*
X96183335Y-111128627D02*
X96564287Y-111128627D01*
X95088097Y-110604818D02*
X95564287Y-110604818D01*
X95564287Y-110604818D02*
X95611906Y-111081008D01*
X95611906Y-111081008D02*
X95564287Y-111033389D01*
X95564287Y-111033389D02*
X95469049Y-110985770D01*
X95469049Y-110985770D02*
X95230954Y-110985770D01*
X95230954Y-110985770D02*
X95135716Y-111033389D01*
X95135716Y-111033389D02*
X95088097Y-111081008D01*
X95088097Y-111081008D02*
X95040478Y-111176246D01*
X95040478Y-111176246D02*
X95040478Y-111414341D01*
X95040478Y-111414341D02*
X95088097Y-111509579D01*
X95088097Y-111509579D02*
X95135716Y-111557199D01*
X95135716Y-111557199D02*
X95230954Y-111604818D01*
X95230954Y-111604818D02*
X95469049Y-111604818D01*
X95469049Y-111604818D02*
X95564287Y-111557199D01*
X95564287Y-111557199D02*
X95611906Y-111509579D01*
X94421430Y-110604818D02*
X94326192Y-110604818D01*
X94326192Y-110604818D02*
X94230954Y-110652437D01*
X94230954Y-110652437D02*
X94183335Y-110700056D01*
X94183335Y-110700056D02*
X94135716Y-110795294D01*
X94135716Y-110795294D02*
X94088097Y-110985770D01*
X94088097Y-110985770D02*
X94088097Y-111223865D01*
X94088097Y-111223865D02*
X94135716Y-111414341D01*
X94135716Y-111414341D02*
X94183335Y-111509579D01*
X94183335Y-111509579D02*
X94230954Y-111557199D01*
X94230954Y-111557199D02*
X94326192Y-111604818D01*
X94326192Y-111604818D02*
X94421430Y-111604818D01*
X94421430Y-111604818D02*
X94516668Y-111557199D01*
X94516668Y-111557199D02*
X94564287Y-111509579D01*
X94564287Y-111509579D02*
X94611906Y-111414341D01*
X94611906Y-111414341D02*
X94659525Y-111223865D01*
X94659525Y-111223865D02*
X94659525Y-110985770D01*
X94659525Y-110985770D02*
X94611906Y-110795294D01*
X94611906Y-110795294D02*
X94564287Y-110700056D01*
X94564287Y-110700056D02*
X94516668Y-110652437D01*
X94516668Y-110652437D02*
X94421430Y-110604818D01*
X96067859Y-110054818D02*
X96401192Y-109578627D01*
X96639287Y-110054818D02*
X96639287Y-109054818D01*
X96639287Y-109054818D02*
X96258335Y-109054818D01*
X96258335Y-109054818D02*
X96163097Y-109102437D01*
X96163097Y-109102437D02*
X96115478Y-109150056D01*
X96115478Y-109150056D02*
X96067859Y-109245294D01*
X96067859Y-109245294D02*
X96067859Y-109388151D01*
X96067859Y-109388151D02*
X96115478Y-109483389D01*
X96115478Y-109483389D02*
X96163097Y-109531008D01*
X96163097Y-109531008D02*
X96258335Y-109578627D01*
X96258335Y-109578627D02*
X96639287Y-109578627D01*
X95210716Y-109388151D02*
X95210716Y-110054818D01*
X95448811Y-109007199D02*
X95686906Y-109721484D01*
X95686906Y-109721484D02*
X95067859Y-109721484D01*
X94639287Y-110054818D02*
X94448811Y-110054818D01*
X94448811Y-110054818D02*
X94353573Y-110007199D01*
X94353573Y-110007199D02*
X94305954Y-109959579D01*
X94305954Y-109959579D02*
X94210716Y-109816722D01*
X94210716Y-109816722D02*
X94163097Y-109626246D01*
X94163097Y-109626246D02*
X94163097Y-109245294D01*
X94163097Y-109245294D02*
X94210716Y-109150056D01*
X94210716Y-109150056D02*
X94258335Y-109102437D01*
X94258335Y-109102437D02*
X94353573Y-109054818D01*
X94353573Y-109054818D02*
X94544049Y-109054818D01*
X94544049Y-109054818D02*
X94639287Y-109102437D01*
X94639287Y-109102437D02*
X94686906Y-109150056D01*
X94686906Y-109150056D02*
X94734525Y-109245294D01*
X94734525Y-109245294D02*
X94734525Y-109483389D01*
X94734525Y-109483389D02*
X94686906Y-109578627D01*
X94686906Y-109578627D02*
X94639287Y-109626246D01*
X94639287Y-109626246D02*
X94544049Y-109673865D01*
X94544049Y-109673865D02*
X94353573Y-109673865D01*
X94353573Y-109673865D02*
X94258335Y-109626246D01*
X94258335Y-109626246D02*
X94210716Y-109578627D01*
X94210716Y-109578627D02*
X94163097Y-109483389D01*
X73508094Y-80004819D02*
X73508094Y-79004819D01*
X73508094Y-79004819D02*
X73269999Y-79004819D01*
X73269999Y-79004819D02*
X73127142Y-79052438D01*
X73127142Y-79052438D02*
X73031904Y-79147676D01*
X73031904Y-79147676D02*
X72984285Y-79242914D01*
X72984285Y-79242914D02*
X72936666Y-79433390D01*
X72936666Y-79433390D02*
X72936666Y-79576247D01*
X72936666Y-79576247D02*
X72984285Y-79766723D01*
X72984285Y-79766723D02*
X73031904Y-79861961D01*
X73031904Y-79861961D02*
X73127142Y-79957200D01*
X73127142Y-79957200D02*
X73269999Y-80004819D01*
X73269999Y-80004819D02*
X73508094Y-80004819D01*
X72031904Y-79004819D02*
X72508094Y-79004819D01*
X72508094Y-79004819D02*
X72555713Y-79481009D01*
X72555713Y-79481009D02*
X72508094Y-79433390D01*
X72508094Y-79433390D02*
X72412856Y-79385771D01*
X72412856Y-79385771D02*
X72174761Y-79385771D01*
X72174761Y-79385771D02*
X72079523Y-79433390D01*
X72079523Y-79433390D02*
X72031904Y-79481009D01*
X72031904Y-79481009D02*
X71984285Y-79576247D01*
X71984285Y-79576247D02*
X71984285Y-79814342D01*
X71984285Y-79814342D02*
X72031904Y-79909580D01*
X72031904Y-79909580D02*
X72079523Y-79957200D01*
X72079523Y-79957200D02*
X72174761Y-80004819D01*
X72174761Y-80004819D02*
X72412856Y-80004819D01*
X72412856Y-80004819D02*
X72508094Y-79957200D01*
X72508094Y-79957200D02*
X72555713Y-79909580D01*
X133254819Y-79061905D02*
X132254819Y-79061905D01*
X132254819Y-79061905D02*
X132254819Y-79300000D01*
X132254819Y-79300000D02*
X132302438Y-79442857D01*
X132302438Y-79442857D02*
X132397676Y-79538095D01*
X132397676Y-79538095D02*
X132492914Y-79585714D01*
X132492914Y-79585714D02*
X132683390Y-79633333D01*
X132683390Y-79633333D02*
X132826247Y-79633333D01*
X132826247Y-79633333D02*
X133016723Y-79585714D01*
X133016723Y-79585714D02*
X133111961Y-79538095D01*
X133111961Y-79538095D02*
X133207200Y-79442857D01*
X133207200Y-79442857D02*
X133254819Y-79300000D01*
X133254819Y-79300000D02*
X133254819Y-79061905D01*
X132254819Y-80490476D02*
X132254819Y-80300000D01*
X132254819Y-80300000D02*
X132302438Y-80204762D01*
X132302438Y-80204762D02*
X132350057Y-80157143D01*
X132350057Y-80157143D02*
X132492914Y-80061905D01*
X132492914Y-80061905D02*
X132683390Y-80014286D01*
X132683390Y-80014286D02*
X133064342Y-80014286D01*
X133064342Y-80014286D02*
X133159580Y-80061905D01*
X133159580Y-80061905D02*
X133207200Y-80109524D01*
X133207200Y-80109524D02*
X133254819Y-80204762D01*
X133254819Y-80204762D02*
X133254819Y-80395238D01*
X133254819Y-80395238D02*
X133207200Y-80490476D01*
X133207200Y-80490476D02*
X133159580Y-80538095D01*
X133159580Y-80538095D02*
X133064342Y-80585714D01*
X133064342Y-80585714D02*
X132826247Y-80585714D01*
X132826247Y-80585714D02*
X132731009Y-80538095D01*
X132731009Y-80538095D02*
X132683390Y-80490476D01*
X132683390Y-80490476D02*
X132635771Y-80395238D01*
X132635771Y-80395238D02*
X132635771Y-80204762D01*
X132635771Y-80204762D02*
X132683390Y-80109524D01*
X132683390Y-80109524D02*
X132731009Y-80061905D01*
X132731009Y-80061905D02*
X132826247Y-80014286D01*
X67492857Y-80329580D02*
X67540476Y-80377200D01*
X67540476Y-80377200D02*
X67683333Y-80424819D01*
X67683333Y-80424819D02*
X67778571Y-80424819D01*
X67778571Y-80424819D02*
X67921428Y-80377200D01*
X67921428Y-80377200D02*
X68016666Y-80281961D01*
X68016666Y-80281961D02*
X68064285Y-80186723D01*
X68064285Y-80186723D02*
X68111904Y-79996247D01*
X68111904Y-79996247D02*
X68111904Y-79853390D01*
X68111904Y-79853390D02*
X68064285Y-79662914D01*
X68064285Y-79662914D02*
X68016666Y-79567676D01*
X68016666Y-79567676D02*
X67921428Y-79472438D01*
X67921428Y-79472438D02*
X67778571Y-79424819D01*
X67778571Y-79424819D02*
X67683333Y-79424819D01*
X67683333Y-79424819D02*
X67540476Y-79472438D01*
X67540476Y-79472438D02*
X67492857Y-79520057D01*
X67159523Y-79424819D02*
X66492857Y-79424819D01*
X66492857Y-79424819D02*
X66921428Y-80424819D01*
X65683333Y-79758152D02*
X65683333Y-80424819D01*
X65921428Y-79377200D02*
X66159523Y-80091485D01*
X66159523Y-80091485D02*
X65540476Y-80091485D01*
X113432963Y-46476174D02*
X114005382Y-46375159D01*
X113837024Y-46880235D02*
X114544130Y-46173128D01*
X114544130Y-46173128D02*
X114274756Y-45903754D01*
X114274756Y-45903754D02*
X114173741Y-45870082D01*
X114173741Y-45870082D02*
X114106398Y-45870082D01*
X114106398Y-45870082D02*
X114005382Y-45903754D01*
X114005382Y-45903754D02*
X113904367Y-46004769D01*
X113904367Y-46004769D02*
X113870695Y-46105785D01*
X113870695Y-46105785D02*
X113870695Y-46173128D01*
X113870695Y-46173128D02*
X113904367Y-46274143D01*
X113904367Y-46274143D02*
X114173741Y-46543517D01*
X112759528Y-45802739D02*
X113163589Y-46206800D01*
X112961558Y-46004769D02*
X113668665Y-45297663D01*
X113668665Y-45297663D02*
X113634993Y-45466021D01*
X113634993Y-45466021D02*
X113634993Y-45600708D01*
X113634993Y-45600708D02*
X113668665Y-45701724D01*
X113129917Y-44893601D02*
X113129917Y-44826258D01*
X113129917Y-44826258D02*
X113096245Y-44725243D01*
X113096245Y-44725243D02*
X112927886Y-44556884D01*
X112927886Y-44556884D02*
X112826871Y-44523212D01*
X112826871Y-44523212D02*
X112759527Y-44523212D01*
X112759527Y-44523212D02*
X112658512Y-44556884D01*
X112658512Y-44556884D02*
X112591169Y-44624227D01*
X112591169Y-44624227D02*
X112523825Y-44758914D01*
X112523825Y-44758914D02*
X112523825Y-45567036D01*
X112523825Y-45567036D02*
X112086092Y-45129304D01*
X158154819Y-119532142D02*
X157678628Y-119198809D01*
X158154819Y-118960714D02*
X157154819Y-118960714D01*
X157154819Y-118960714D02*
X157154819Y-119341666D01*
X157154819Y-119341666D02*
X157202438Y-119436904D01*
X157202438Y-119436904D02*
X157250057Y-119484523D01*
X157250057Y-119484523D02*
X157345295Y-119532142D01*
X157345295Y-119532142D02*
X157488152Y-119532142D01*
X157488152Y-119532142D02*
X157583390Y-119484523D01*
X157583390Y-119484523D02*
X157631009Y-119436904D01*
X157631009Y-119436904D02*
X157678628Y-119341666D01*
X157678628Y-119341666D02*
X157678628Y-118960714D01*
X157154819Y-119865476D02*
X157154819Y-120484523D01*
X157154819Y-120484523D02*
X157535771Y-120151190D01*
X157535771Y-120151190D02*
X157535771Y-120294047D01*
X157535771Y-120294047D02*
X157583390Y-120389285D01*
X157583390Y-120389285D02*
X157631009Y-120436904D01*
X157631009Y-120436904D02*
X157726247Y-120484523D01*
X157726247Y-120484523D02*
X157964342Y-120484523D01*
X157964342Y-120484523D02*
X158059580Y-120436904D01*
X158059580Y-120436904D02*
X158107200Y-120389285D01*
X158107200Y-120389285D02*
X158154819Y-120294047D01*
X158154819Y-120294047D02*
X158154819Y-120008333D01*
X158154819Y-120008333D02*
X158107200Y-119913095D01*
X158107200Y-119913095D02*
X158059580Y-119865476D01*
X158154819Y-120960714D02*
X158154819Y-121151190D01*
X158154819Y-121151190D02*
X158107200Y-121246428D01*
X158107200Y-121246428D02*
X158059580Y-121294047D01*
X158059580Y-121294047D02*
X157916723Y-121389285D01*
X157916723Y-121389285D02*
X157726247Y-121436904D01*
X157726247Y-121436904D02*
X157345295Y-121436904D01*
X157345295Y-121436904D02*
X157250057Y-121389285D01*
X157250057Y-121389285D02*
X157202438Y-121341666D01*
X157202438Y-121341666D02*
X157154819Y-121246428D01*
X157154819Y-121246428D02*
X157154819Y-121055952D01*
X157154819Y-121055952D02*
X157202438Y-120960714D01*
X157202438Y-120960714D02*
X157250057Y-120913095D01*
X157250057Y-120913095D02*
X157345295Y-120865476D01*
X157345295Y-120865476D02*
X157583390Y-120865476D01*
X157583390Y-120865476D02*
X157678628Y-120913095D01*
X157678628Y-120913095D02*
X157726247Y-120960714D01*
X157726247Y-120960714D02*
X157773866Y-121055952D01*
X157773866Y-121055952D02*
X157773866Y-121246428D01*
X157773866Y-121246428D02*
X157726247Y-121341666D01*
X157726247Y-121341666D02*
X157678628Y-121389285D01*
X157678628Y-121389285D02*
X157583390Y-121436904D01*
X134642857Y-50954819D02*
X134976190Y-50478628D01*
X135214285Y-50954819D02*
X135214285Y-49954819D01*
X135214285Y-49954819D02*
X134833333Y-49954819D01*
X134833333Y-49954819D02*
X134738095Y-50002438D01*
X134738095Y-50002438D02*
X134690476Y-50050057D01*
X134690476Y-50050057D02*
X134642857Y-50145295D01*
X134642857Y-50145295D02*
X134642857Y-50288152D01*
X134642857Y-50288152D02*
X134690476Y-50383390D01*
X134690476Y-50383390D02*
X134738095Y-50431009D01*
X134738095Y-50431009D02*
X134833333Y-50478628D01*
X134833333Y-50478628D02*
X135214285Y-50478628D01*
X134166666Y-50954819D02*
X133976190Y-50954819D01*
X133976190Y-50954819D02*
X133880952Y-50907200D01*
X133880952Y-50907200D02*
X133833333Y-50859580D01*
X133833333Y-50859580D02*
X133738095Y-50716723D01*
X133738095Y-50716723D02*
X133690476Y-50526247D01*
X133690476Y-50526247D02*
X133690476Y-50145295D01*
X133690476Y-50145295D02*
X133738095Y-50050057D01*
X133738095Y-50050057D02*
X133785714Y-50002438D01*
X133785714Y-50002438D02*
X133880952Y-49954819D01*
X133880952Y-49954819D02*
X134071428Y-49954819D01*
X134071428Y-49954819D02*
X134166666Y-50002438D01*
X134166666Y-50002438D02*
X134214285Y-50050057D01*
X134214285Y-50050057D02*
X134261904Y-50145295D01*
X134261904Y-50145295D02*
X134261904Y-50383390D01*
X134261904Y-50383390D02*
X134214285Y-50478628D01*
X134214285Y-50478628D02*
X134166666Y-50526247D01*
X134166666Y-50526247D02*
X134071428Y-50573866D01*
X134071428Y-50573866D02*
X133880952Y-50573866D01*
X133880952Y-50573866D02*
X133785714Y-50526247D01*
X133785714Y-50526247D02*
X133738095Y-50478628D01*
X133738095Y-50478628D02*
X133690476Y-50383390D01*
X133119047Y-50383390D02*
X133214285Y-50335771D01*
X133214285Y-50335771D02*
X133261904Y-50288152D01*
X133261904Y-50288152D02*
X133309523Y-50192914D01*
X133309523Y-50192914D02*
X133309523Y-50145295D01*
X133309523Y-50145295D02*
X133261904Y-50050057D01*
X133261904Y-50050057D02*
X133214285Y-50002438D01*
X133214285Y-50002438D02*
X133119047Y-49954819D01*
X133119047Y-49954819D02*
X132928571Y-49954819D01*
X132928571Y-49954819D02*
X132833333Y-50002438D01*
X132833333Y-50002438D02*
X132785714Y-50050057D01*
X132785714Y-50050057D02*
X132738095Y-50145295D01*
X132738095Y-50145295D02*
X132738095Y-50192914D01*
X132738095Y-50192914D02*
X132785714Y-50288152D01*
X132785714Y-50288152D02*
X132833333Y-50335771D01*
X132833333Y-50335771D02*
X132928571Y-50383390D01*
X132928571Y-50383390D02*
X133119047Y-50383390D01*
X133119047Y-50383390D02*
X133214285Y-50431009D01*
X133214285Y-50431009D02*
X133261904Y-50478628D01*
X133261904Y-50478628D02*
X133309523Y-50573866D01*
X133309523Y-50573866D02*
X133309523Y-50764342D01*
X133309523Y-50764342D02*
X133261904Y-50859580D01*
X133261904Y-50859580D02*
X133214285Y-50907200D01*
X133214285Y-50907200D02*
X133119047Y-50954819D01*
X133119047Y-50954819D02*
X132928571Y-50954819D01*
X132928571Y-50954819D02*
X132833333Y-50907200D01*
X132833333Y-50907200D02*
X132785714Y-50859580D01*
X132785714Y-50859580D02*
X132738095Y-50764342D01*
X132738095Y-50764342D02*
X132738095Y-50573866D01*
X132738095Y-50573866D02*
X132785714Y-50478628D01*
X132785714Y-50478628D02*
X132833333Y-50431009D01*
X132833333Y-50431009D02*
X132928571Y-50383390D01*
X95942859Y-108404818D02*
X96276192Y-107928627D01*
X96514287Y-108404818D02*
X96514287Y-107404818D01*
X96514287Y-107404818D02*
X96133335Y-107404818D01*
X96133335Y-107404818D02*
X96038097Y-107452437D01*
X96038097Y-107452437D02*
X95990478Y-107500056D01*
X95990478Y-107500056D02*
X95942859Y-107595294D01*
X95942859Y-107595294D02*
X95942859Y-107738151D01*
X95942859Y-107738151D02*
X95990478Y-107833389D01*
X95990478Y-107833389D02*
X96038097Y-107881008D01*
X96038097Y-107881008D02*
X96133335Y-107928627D01*
X96133335Y-107928627D02*
X96514287Y-107928627D01*
X95085716Y-107738151D02*
X95085716Y-108404818D01*
X95323811Y-107357199D02*
X95561906Y-108071484D01*
X95561906Y-108071484D02*
X94942859Y-108071484D01*
X94419049Y-107833389D02*
X94514287Y-107785770D01*
X94514287Y-107785770D02*
X94561906Y-107738151D01*
X94561906Y-107738151D02*
X94609525Y-107642913D01*
X94609525Y-107642913D02*
X94609525Y-107595294D01*
X94609525Y-107595294D02*
X94561906Y-107500056D01*
X94561906Y-107500056D02*
X94514287Y-107452437D01*
X94514287Y-107452437D02*
X94419049Y-107404818D01*
X94419049Y-107404818D02*
X94228573Y-107404818D01*
X94228573Y-107404818D02*
X94133335Y-107452437D01*
X94133335Y-107452437D02*
X94085716Y-107500056D01*
X94085716Y-107500056D02*
X94038097Y-107595294D01*
X94038097Y-107595294D02*
X94038097Y-107642913D01*
X94038097Y-107642913D02*
X94085716Y-107738151D01*
X94085716Y-107738151D02*
X94133335Y-107785770D01*
X94133335Y-107785770D02*
X94228573Y-107833389D01*
X94228573Y-107833389D02*
X94419049Y-107833389D01*
X94419049Y-107833389D02*
X94514287Y-107881008D01*
X94514287Y-107881008D02*
X94561906Y-107928627D01*
X94561906Y-107928627D02*
X94609525Y-108023865D01*
X94609525Y-108023865D02*
X94609525Y-108214341D01*
X94609525Y-108214341D02*
X94561906Y-108309579D01*
X94561906Y-108309579D02*
X94514287Y-108357199D01*
X94514287Y-108357199D02*
X94419049Y-108404818D01*
X94419049Y-108404818D02*
X94228573Y-108404818D01*
X94228573Y-108404818D02*
X94133335Y-108357199D01*
X94133335Y-108357199D02*
X94085716Y-108309579D01*
X94085716Y-108309579D02*
X94038097Y-108214341D01*
X94038097Y-108214341D02*
X94038097Y-108023865D01*
X94038097Y-108023865D02*
X94085716Y-107928627D01*
X94085716Y-107928627D02*
X94133335Y-107881008D01*
X94133335Y-107881008D02*
X94228573Y-107833389D01*
X73742857Y-53854819D02*
X74076190Y-53378628D01*
X74314285Y-53854819D02*
X74314285Y-52854819D01*
X74314285Y-52854819D02*
X73933333Y-52854819D01*
X73933333Y-52854819D02*
X73838095Y-52902438D01*
X73838095Y-52902438D02*
X73790476Y-52950057D01*
X73790476Y-52950057D02*
X73742857Y-53045295D01*
X73742857Y-53045295D02*
X73742857Y-53188152D01*
X73742857Y-53188152D02*
X73790476Y-53283390D01*
X73790476Y-53283390D02*
X73838095Y-53331009D01*
X73838095Y-53331009D02*
X73933333Y-53378628D01*
X73933333Y-53378628D02*
X74314285Y-53378628D01*
X72790476Y-53854819D02*
X73361904Y-53854819D01*
X73076190Y-53854819D02*
X73076190Y-52854819D01*
X73076190Y-52854819D02*
X73171428Y-52997676D01*
X73171428Y-52997676D02*
X73266666Y-53092914D01*
X73266666Y-53092914D02*
X73361904Y-53140533D01*
X72171428Y-52854819D02*
X72076190Y-52854819D01*
X72076190Y-52854819D02*
X71980952Y-52902438D01*
X71980952Y-52902438D02*
X71933333Y-52950057D01*
X71933333Y-52950057D02*
X71885714Y-53045295D01*
X71885714Y-53045295D02*
X71838095Y-53235771D01*
X71838095Y-53235771D02*
X71838095Y-53473866D01*
X71838095Y-53473866D02*
X71885714Y-53664342D01*
X71885714Y-53664342D02*
X71933333Y-53759580D01*
X71933333Y-53759580D02*
X71980952Y-53807200D01*
X71980952Y-53807200D02*
X72076190Y-53854819D01*
X72076190Y-53854819D02*
X72171428Y-53854819D01*
X72171428Y-53854819D02*
X72266666Y-53807200D01*
X72266666Y-53807200D02*
X72314285Y-53759580D01*
X72314285Y-53759580D02*
X72361904Y-53664342D01*
X72361904Y-53664342D02*
X72409523Y-53473866D01*
X72409523Y-53473866D02*
X72409523Y-53235771D01*
X72409523Y-53235771D02*
X72361904Y-53045295D01*
X72361904Y-53045295D02*
X72314285Y-52950057D01*
X72314285Y-52950057D02*
X72266666Y-52902438D01*
X72266666Y-52902438D02*
X72171428Y-52854819D01*
X134542857Y-47704819D02*
X134876190Y-47228628D01*
X135114285Y-47704819D02*
X135114285Y-46704819D01*
X135114285Y-46704819D02*
X134733333Y-46704819D01*
X134733333Y-46704819D02*
X134638095Y-46752438D01*
X134638095Y-46752438D02*
X134590476Y-46800057D01*
X134590476Y-46800057D02*
X134542857Y-46895295D01*
X134542857Y-46895295D02*
X134542857Y-47038152D01*
X134542857Y-47038152D02*
X134590476Y-47133390D01*
X134590476Y-47133390D02*
X134638095Y-47181009D01*
X134638095Y-47181009D02*
X134733333Y-47228628D01*
X134733333Y-47228628D02*
X135114285Y-47228628D01*
X133685714Y-47038152D02*
X133685714Y-47704819D01*
X133923809Y-46657200D02*
X134161904Y-47371485D01*
X134161904Y-47371485D02*
X133542857Y-47371485D01*
X133257142Y-46704819D02*
X132638095Y-46704819D01*
X132638095Y-46704819D02*
X132971428Y-47085771D01*
X132971428Y-47085771D02*
X132828571Y-47085771D01*
X132828571Y-47085771D02*
X132733333Y-47133390D01*
X132733333Y-47133390D02*
X132685714Y-47181009D01*
X132685714Y-47181009D02*
X132638095Y-47276247D01*
X132638095Y-47276247D02*
X132638095Y-47514342D01*
X132638095Y-47514342D02*
X132685714Y-47609580D01*
X132685714Y-47609580D02*
X132733333Y-47657200D01*
X132733333Y-47657200D02*
X132828571Y-47704819D01*
X132828571Y-47704819D02*
X133114285Y-47704819D01*
X133114285Y-47704819D02*
X133209523Y-47657200D01*
X133209523Y-47657200D02*
X133257142Y-47609580D01*
X77442857Y-96104819D02*
X77776190Y-95628628D01*
X78014285Y-96104819D02*
X78014285Y-95104819D01*
X78014285Y-95104819D02*
X77633333Y-95104819D01*
X77633333Y-95104819D02*
X77538095Y-95152438D01*
X77538095Y-95152438D02*
X77490476Y-95200057D01*
X77490476Y-95200057D02*
X77442857Y-95295295D01*
X77442857Y-95295295D02*
X77442857Y-95438152D01*
X77442857Y-95438152D02*
X77490476Y-95533390D01*
X77490476Y-95533390D02*
X77538095Y-95581009D01*
X77538095Y-95581009D02*
X77633333Y-95628628D01*
X77633333Y-95628628D02*
X78014285Y-95628628D01*
X77061904Y-95200057D02*
X77014285Y-95152438D01*
X77014285Y-95152438D02*
X76919047Y-95104819D01*
X76919047Y-95104819D02*
X76680952Y-95104819D01*
X76680952Y-95104819D02*
X76585714Y-95152438D01*
X76585714Y-95152438D02*
X76538095Y-95200057D01*
X76538095Y-95200057D02*
X76490476Y-95295295D01*
X76490476Y-95295295D02*
X76490476Y-95390533D01*
X76490476Y-95390533D02*
X76538095Y-95533390D01*
X76538095Y-95533390D02*
X77109523Y-96104819D01*
X77109523Y-96104819D02*
X76490476Y-96104819D01*
X75633333Y-95104819D02*
X75823809Y-95104819D01*
X75823809Y-95104819D02*
X75919047Y-95152438D01*
X75919047Y-95152438D02*
X75966666Y-95200057D01*
X75966666Y-95200057D02*
X76061904Y-95342914D01*
X76061904Y-95342914D02*
X76109523Y-95533390D01*
X76109523Y-95533390D02*
X76109523Y-95914342D01*
X76109523Y-95914342D02*
X76061904Y-96009580D01*
X76061904Y-96009580D02*
X76014285Y-96057200D01*
X76014285Y-96057200D02*
X75919047Y-96104819D01*
X75919047Y-96104819D02*
X75728571Y-96104819D01*
X75728571Y-96104819D02*
X75633333Y-96057200D01*
X75633333Y-96057200D02*
X75585714Y-96009580D01*
X75585714Y-96009580D02*
X75538095Y-95914342D01*
X75538095Y-95914342D02*
X75538095Y-95676247D01*
X75538095Y-95676247D02*
X75585714Y-95581009D01*
X75585714Y-95581009D02*
X75633333Y-95533390D01*
X75633333Y-95533390D02*
X75728571Y-95485771D01*
X75728571Y-95485771D02*
X75919047Y-95485771D01*
X75919047Y-95485771D02*
X76014285Y-95533390D01*
X76014285Y-95533390D02*
X76061904Y-95581009D01*
X76061904Y-95581009D02*
X76109523Y-95676247D01*
X95917859Y-106754818D02*
X96251192Y-106278627D01*
X96489287Y-106754818D02*
X96489287Y-105754818D01*
X96489287Y-105754818D02*
X96108335Y-105754818D01*
X96108335Y-105754818D02*
X96013097Y-105802437D01*
X96013097Y-105802437D02*
X95965478Y-105850056D01*
X95965478Y-105850056D02*
X95917859Y-105945294D01*
X95917859Y-105945294D02*
X95917859Y-106088151D01*
X95917859Y-106088151D02*
X95965478Y-106183389D01*
X95965478Y-106183389D02*
X96013097Y-106231008D01*
X96013097Y-106231008D02*
X96108335Y-106278627D01*
X96108335Y-106278627D02*
X96489287Y-106278627D01*
X95441668Y-106754818D02*
X95251192Y-106754818D01*
X95251192Y-106754818D02*
X95155954Y-106707199D01*
X95155954Y-106707199D02*
X95108335Y-106659579D01*
X95108335Y-106659579D02*
X95013097Y-106516722D01*
X95013097Y-106516722D02*
X94965478Y-106326246D01*
X94965478Y-106326246D02*
X94965478Y-105945294D01*
X94965478Y-105945294D02*
X95013097Y-105850056D01*
X95013097Y-105850056D02*
X95060716Y-105802437D01*
X95060716Y-105802437D02*
X95155954Y-105754818D01*
X95155954Y-105754818D02*
X95346430Y-105754818D01*
X95346430Y-105754818D02*
X95441668Y-105802437D01*
X95441668Y-105802437D02*
X95489287Y-105850056D01*
X95489287Y-105850056D02*
X95536906Y-105945294D01*
X95536906Y-105945294D02*
X95536906Y-106183389D01*
X95536906Y-106183389D02*
X95489287Y-106278627D01*
X95489287Y-106278627D02*
X95441668Y-106326246D01*
X95441668Y-106326246D02*
X95346430Y-106373865D01*
X95346430Y-106373865D02*
X95155954Y-106373865D01*
X95155954Y-106373865D02*
X95060716Y-106326246D01*
X95060716Y-106326246D02*
X95013097Y-106278627D01*
X95013097Y-106278627D02*
X94965478Y-106183389D01*
X94489287Y-106754818D02*
X94298811Y-106754818D01*
X94298811Y-106754818D02*
X94203573Y-106707199D01*
X94203573Y-106707199D02*
X94155954Y-106659579D01*
X94155954Y-106659579D02*
X94060716Y-106516722D01*
X94060716Y-106516722D02*
X94013097Y-106326246D01*
X94013097Y-106326246D02*
X94013097Y-105945294D01*
X94013097Y-105945294D02*
X94060716Y-105850056D01*
X94060716Y-105850056D02*
X94108335Y-105802437D01*
X94108335Y-105802437D02*
X94203573Y-105754818D01*
X94203573Y-105754818D02*
X94394049Y-105754818D01*
X94394049Y-105754818D02*
X94489287Y-105802437D01*
X94489287Y-105802437D02*
X94536906Y-105850056D01*
X94536906Y-105850056D02*
X94584525Y-105945294D01*
X94584525Y-105945294D02*
X94584525Y-106183389D01*
X94584525Y-106183389D02*
X94536906Y-106278627D01*
X94536906Y-106278627D02*
X94489287Y-106326246D01*
X94489287Y-106326246D02*
X94394049Y-106373865D01*
X94394049Y-106373865D02*
X94203573Y-106373865D01*
X94203573Y-106373865D02*
X94108335Y-106326246D01*
X94108335Y-106326246D02*
X94060716Y-106278627D01*
X94060716Y-106278627D02*
X94013097Y-106183389D01*
X130891989Y-135059579D02*
X130939608Y-135107199D01*
X130939608Y-135107199D02*
X131082465Y-135154818D01*
X131082465Y-135154818D02*
X131177703Y-135154818D01*
X131177703Y-135154818D02*
X131320560Y-135107199D01*
X131320560Y-135107199D02*
X131415798Y-135011960D01*
X131415798Y-135011960D02*
X131463417Y-134916722D01*
X131463417Y-134916722D02*
X131511036Y-134726246D01*
X131511036Y-134726246D02*
X131511036Y-134583389D01*
X131511036Y-134583389D02*
X131463417Y-134392913D01*
X131463417Y-134392913D02*
X131415798Y-134297675D01*
X131415798Y-134297675D02*
X131320560Y-134202437D01*
X131320560Y-134202437D02*
X131177703Y-134154818D01*
X131177703Y-134154818D02*
X131082465Y-134154818D01*
X131082465Y-134154818D02*
X130939608Y-134202437D01*
X130939608Y-134202437D02*
X130891989Y-134250056D01*
X130034846Y-134488151D02*
X130034846Y-135154818D01*
X130272941Y-134107199D02*
X130511036Y-134821484D01*
X130511036Y-134821484D02*
X129891989Y-134821484D01*
X129558655Y-134250056D02*
X129511036Y-134202437D01*
X129511036Y-134202437D02*
X129415798Y-134154818D01*
X129415798Y-134154818D02*
X129177703Y-134154818D01*
X129177703Y-134154818D02*
X129082465Y-134202437D01*
X129082465Y-134202437D02*
X129034846Y-134250056D01*
X129034846Y-134250056D02*
X128987227Y-134345294D01*
X128987227Y-134345294D02*
X128987227Y-134440532D01*
X128987227Y-134440532D02*
X129034846Y-134583389D01*
X129034846Y-134583389D02*
X129606274Y-135154818D01*
X129606274Y-135154818D02*
X128987227Y-135154818D01*
X137179818Y-47407142D02*
X136703627Y-47073809D01*
X137179818Y-46835714D02*
X136179818Y-46835714D01*
X136179818Y-46835714D02*
X136179818Y-47216666D01*
X136179818Y-47216666D02*
X136227437Y-47311904D01*
X136227437Y-47311904D02*
X136275056Y-47359523D01*
X136275056Y-47359523D02*
X136370294Y-47407142D01*
X136370294Y-47407142D02*
X136513151Y-47407142D01*
X136513151Y-47407142D02*
X136608389Y-47359523D01*
X136608389Y-47359523D02*
X136656008Y-47311904D01*
X136656008Y-47311904D02*
X136703627Y-47216666D01*
X136703627Y-47216666D02*
X136703627Y-46835714D01*
X136513151Y-48264285D02*
X137179818Y-48264285D01*
X136132199Y-48026190D02*
X136846484Y-47788095D01*
X136846484Y-47788095D02*
X136846484Y-48407142D01*
X136513151Y-49216666D02*
X137179818Y-49216666D01*
X136132199Y-48978571D02*
X136846484Y-48740476D01*
X136846484Y-48740476D02*
X136846484Y-49359523D01*
X158129819Y-116657142D02*
X157653628Y-116323809D01*
X158129819Y-116085714D02*
X157129819Y-116085714D01*
X157129819Y-116085714D02*
X157129819Y-116466666D01*
X157129819Y-116466666D02*
X157177438Y-116561904D01*
X157177438Y-116561904D02*
X157225057Y-116609523D01*
X157225057Y-116609523D02*
X157320295Y-116657142D01*
X157320295Y-116657142D02*
X157463152Y-116657142D01*
X157463152Y-116657142D02*
X157558390Y-116609523D01*
X157558390Y-116609523D02*
X157606009Y-116561904D01*
X157606009Y-116561904D02*
X157653628Y-116466666D01*
X157653628Y-116466666D02*
X157653628Y-116085714D01*
X157463152Y-117514285D02*
X158129819Y-117514285D01*
X157082200Y-117276190D02*
X157796485Y-117038095D01*
X157796485Y-117038095D02*
X157796485Y-117657142D01*
X157129819Y-118228571D02*
X157129819Y-118323809D01*
X157129819Y-118323809D02*
X157177438Y-118419047D01*
X157177438Y-118419047D02*
X157225057Y-118466666D01*
X157225057Y-118466666D02*
X157320295Y-118514285D01*
X157320295Y-118514285D02*
X157510771Y-118561904D01*
X157510771Y-118561904D02*
X157748866Y-118561904D01*
X157748866Y-118561904D02*
X157939342Y-118514285D01*
X157939342Y-118514285D02*
X158034580Y-118466666D01*
X158034580Y-118466666D02*
X158082200Y-118419047D01*
X158082200Y-118419047D02*
X158129819Y-118323809D01*
X158129819Y-118323809D02*
X158129819Y-118228571D01*
X158129819Y-118228571D02*
X158082200Y-118133333D01*
X158082200Y-118133333D02*
X158034580Y-118085714D01*
X158034580Y-118085714D02*
X157939342Y-118038095D01*
X157939342Y-118038095D02*
X157748866Y-117990476D01*
X157748866Y-117990476D02*
X157510771Y-117990476D01*
X157510771Y-117990476D02*
X157320295Y-118038095D01*
X157320295Y-118038095D02*
X157225057Y-118085714D01*
X157225057Y-118085714D02*
X157177438Y-118133333D01*
X157177438Y-118133333D02*
X157129819Y-118228571D01*
X135144046Y-52454819D02*
X135477379Y-51978628D01*
X135715474Y-52454819D02*
X135715474Y-51454819D01*
X135715474Y-51454819D02*
X135334522Y-51454819D01*
X135334522Y-51454819D02*
X135239284Y-51502438D01*
X135239284Y-51502438D02*
X135191665Y-51550057D01*
X135191665Y-51550057D02*
X135144046Y-51645295D01*
X135144046Y-51645295D02*
X135144046Y-51788152D01*
X135144046Y-51788152D02*
X135191665Y-51883390D01*
X135191665Y-51883390D02*
X135239284Y-51931009D01*
X135239284Y-51931009D02*
X135334522Y-51978628D01*
X135334522Y-51978628D02*
X135715474Y-51978628D01*
X134191665Y-52454819D02*
X134763093Y-52454819D01*
X134477379Y-52454819D02*
X134477379Y-51454819D01*
X134477379Y-51454819D02*
X134572617Y-51597676D01*
X134572617Y-51597676D02*
X134667855Y-51692914D01*
X134667855Y-51692914D02*
X134763093Y-51740533D01*
X133572617Y-51454819D02*
X133477379Y-51454819D01*
X133477379Y-51454819D02*
X133382141Y-51502438D01*
X133382141Y-51502438D02*
X133334522Y-51550057D01*
X133334522Y-51550057D02*
X133286903Y-51645295D01*
X133286903Y-51645295D02*
X133239284Y-51835771D01*
X133239284Y-51835771D02*
X133239284Y-52073866D01*
X133239284Y-52073866D02*
X133286903Y-52264342D01*
X133286903Y-52264342D02*
X133334522Y-52359580D01*
X133334522Y-52359580D02*
X133382141Y-52407200D01*
X133382141Y-52407200D02*
X133477379Y-52454819D01*
X133477379Y-52454819D02*
X133572617Y-52454819D01*
X133572617Y-52454819D02*
X133667855Y-52407200D01*
X133667855Y-52407200D02*
X133715474Y-52359580D01*
X133715474Y-52359580D02*
X133763093Y-52264342D01*
X133763093Y-52264342D02*
X133810712Y-52073866D01*
X133810712Y-52073866D02*
X133810712Y-51835771D01*
X133810712Y-51835771D02*
X133763093Y-51645295D01*
X133763093Y-51645295D02*
X133715474Y-51550057D01*
X133715474Y-51550057D02*
X133667855Y-51502438D01*
X133667855Y-51502438D02*
X133572617Y-51454819D01*
X132620236Y-51454819D02*
X132524998Y-51454819D01*
X132524998Y-51454819D02*
X132429760Y-51502438D01*
X132429760Y-51502438D02*
X132382141Y-51550057D01*
X132382141Y-51550057D02*
X132334522Y-51645295D01*
X132334522Y-51645295D02*
X132286903Y-51835771D01*
X132286903Y-51835771D02*
X132286903Y-52073866D01*
X132286903Y-52073866D02*
X132334522Y-52264342D01*
X132334522Y-52264342D02*
X132382141Y-52359580D01*
X132382141Y-52359580D02*
X132429760Y-52407200D01*
X132429760Y-52407200D02*
X132524998Y-52454819D01*
X132524998Y-52454819D02*
X132620236Y-52454819D01*
X132620236Y-52454819D02*
X132715474Y-52407200D01*
X132715474Y-52407200D02*
X132763093Y-52359580D01*
X132763093Y-52359580D02*
X132810712Y-52264342D01*
X132810712Y-52264342D02*
X132858331Y-52073866D01*
X132858331Y-52073866D02*
X132858331Y-51835771D01*
X132858331Y-51835771D02*
X132810712Y-51645295D01*
X132810712Y-51645295D02*
X132763093Y-51550057D01*
X132763093Y-51550057D02*
X132715474Y-51502438D01*
X132715474Y-51502438D02*
X132620236Y-51454819D01*
X82704819Y-123557142D02*
X82228628Y-123223809D01*
X82704819Y-122985714D02*
X81704819Y-122985714D01*
X81704819Y-122985714D02*
X81704819Y-123366666D01*
X81704819Y-123366666D02*
X81752438Y-123461904D01*
X81752438Y-123461904D02*
X81800057Y-123509523D01*
X81800057Y-123509523D02*
X81895295Y-123557142D01*
X81895295Y-123557142D02*
X82038152Y-123557142D01*
X82038152Y-123557142D02*
X82133390Y-123509523D01*
X82133390Y-123509523D02*
X82181009Y-123461904D01*
X82181009Y-123461904D02*
X82228628Y-123366666D01*
X82228628Y-123366666D02*
X82228628Y-122985714D01*
X82704819Y-124033333D02*
X82704819Y-124223809D01*
X82704819Y-124223809D02*
X82657200Y-124319047D01*
X82657200Y-124319047D02*
X82609580Y-124366666D01*
X82609580Y-124366666D02*
X82466723Y-124461904D01*
X82466723Y-124461904D02*
X82276247Y-124509523D01*
X82276247Y-124509523D02*
X81895295Y-124509523D01*
X81895295Y-124509523D02*
X81800057Y-124461904D01*
X81800057Y-124461904D02*
X81752438Y-124414285D01*
X81752438Y-124414285D02*
X81704819Y-124319047D01*
X81704819Y-124319047D02*
X81704819Y-124128571D01*
X81704819Y-124128571D02*
X81752438Y-124033333D01*
X81752438Y-124033333D02*
X81800057Y-123985714D01*
X81800057Y-123985714D02*
X81895295Y-123938095D01*
X81895295Y-123938095D02*
X82133390Y-123938095D01*
X82133390Y-123938095D02*
X82228628Y-123985714D01*
X82228628Y-123985714D02*
X82276247Y-124033333D01*
X82276247Y-124033333D02*
X82323866Y-124128571D01*
X82323866Y-124128571D02*
X82323866Y-124319047D01*
X82323866Y-124319047D02*
X82276247Y-124414285D01*
X82276247Y-124414285D02*
X82228628Y-124461904D01*
X82228628Y-124461904D02*
X82133390Y-124509523D01*
X82704819Y-125461904D02*
X82704819Y-124890476D01*
X82704819Y-125176190D02*
X81704819Y-125176190D01*
X81704819Y-125176190D02*
X81847676Y-125080952D01*
X81847676Y-125080952D02*
X81942914Y-124985714D01*
X81942914Y-124985714D02*
X81990533Y-124890476D01*
X155284580Y-116682142D02*
X155332200Y-116634523D01*
X155332200Y-116634523D02*
X155379819Y-116491666D01*
X155379819Y-116491666D02*
X155379819Y-116396428D01*
X155379819Y-116396428D02*
X155332200Y-116253571D01*
X155332200Y-116253571D02*
X155236961Y-116158333D01*
X155236961Y-116158333D02*
X155141723Y-116110714D01*
X155141723Y-116110714D02*
X154951247Y-116063095D01*
X154951247Y-116063095D02*
X154808390Y-116063095D01*
X154808390Y-116063095D02*
X154617914Y-116110714D01*
X154617914Y-116110714D02*
X154522676Y-116158333D01*
X154522676Y-116158333D02*
X154427438Y-116253571D01*
X154427438Y-116253571D02*
X154379819Y-116396428D01*
X154379819Y-116396428D02*
X154379819Y-116491666D01*
X154379819Y-116491666D02*
X154427438Y-116634523D01*
X154427438Y-116634523D02*
X154475057Y-116682142D01*
X154713152Y-117539285D02*
X155379819Y-117539285D01*
X154332200Y-117301190D02*
X155046485Y-117063095D01*
X155046485Y-117063095D02*
X155046485Y-117682142D01*
X154379819Y-118491666D02*
X154379819Y-118301190D01*
X154379819Y-118301190D02*
X154427438Y-118205952D01*
X154427438Y-118205952D02*
X154475057Y-118158333D01*
X154475057Y-118158333D02*
X154617914Y-118063095D01*
X154617914Y-118063095D02*
X154808390Y-118015476D01*
X154808390Y-118015476D02*
X155189342Y-118015476D01*
X155189342Y-118015476D02*
X155284580Y-118063095D01*
X155284580Y-118063095D02*
X155332200Y-118110714D01*
X155332200Y-118110714D02*
X155379819Y-118205952D01*
X155379819Y-118205952D02*
X155379819Y-118396428D01*
X155379819Y-118396428D02*
X155332200Y-118491666D01*
X155332200Y-118491666D02*
X155284580Y-118539285D01*
X155284580Y-118539285D02*
X155189342Y-118586904D01*
X155189342Y-118586904D02*
X154951247Y-118586904D01*
X154951247Y-118586904D02*
X154856009Y-118539285D01*
X154856009Y-118539285D02*
X154808390Y-118491666D01*
X154808390Y-118491666D02*
X154760771Y-118396428D01*
X154760771Y-118396428D02*
X154760771Y-118205952D01*
X154760771Y-118205952D02*
X154808390Y-118110714D01*
X154808390Y-118110714D02*
X154856009Y-118063095D01*
X154856009Y-118063095D02*
X154951247Y-118015476D01*
X149892857Y-98204819D02*
X150226190Y-97728628D01*
X150464285Y-98204819D02*
X150464285Y-97204819D01*
X150464285Y-97204819D02*
X150083333Y-97204819D01*
X150083333Y-97204819D02*
X149988095Y-97252438D01*
X149988095Y-97252438D02*
X149940476Y-97300057D01*
X149940476Y-97300057D02*
X149892857Y-97395295D01*
X149892857Y-97395295D02*
X149892857Y-97538152D01*
X149892857Y-97538152D02*
X149940476Y-97633390D01*
X149940476Y-97633390D02*
X149988095Y-97681009D01*
X149988095Y-97681009D02*
X150083333Y-97728628D01*
X150083333Y-97728628D02*
X150464285Y-97728628D01*
X149559523Y-97204819D02*
X148940476Y-97204819D01*
X148940476Y-97204819D02*
X149273809Y-97585771D01*
X149273809Y-97585771D02*
X149130952Y-97585771D01*
X149130952Y-97585771D02*
X149035714Y-97633390D01*
X149035714Y-97633390D02*
X148988095Y-97681009D01*
X148988095Y-97681009D02*
X148940476Y-97776247D01*
X148940476Y-97776247D02*
X148940476Y-98014342D01*
X148940476Y-98014342D02*
X148988095Y-98109580D01*
X148988095Y-98109580D02*
X149035714Y-98157200D01*
X149035714Y-98157200D02*
X149130952Y-98204819D01*
X149130952Y-98204819D02*
X149416666Y-98204819D01*
X149416666Y-98204819D02*
X149511904Y-98157200D01*
X149511904Y-98157200D02*
X149559523Y-98109580D01*
X148607142Y-97204819D02*
X147940476Y-97204819D01*
X147940476Y-97204819D02*
X148369047Y-98204819D01*
X80417857Y-127854819D02*
X80751190Y-127378628D01*
X80989285Y-127854819D02*
X80989285Y-126854819D01*
X80989285Y-126854819D02*
X80608333Y-126854819D01*
X80608333Y-126854819D02*
X80513095Y-126902438D01*
X80513095Y-126902438D02*
X80465476Y-126950057D01*
X80465476Y-126950057D02*
X80417857Y-127045295D01*
X80417857Y-127045295D02*
X80417857Y-127188152D01*
X80417857Y-127188152D02*
X80465476Y-127283390D01*
X80465476Y-127283390D02*
X80513095Y-127331009D01*
X80513095Y-127331009D02*
X80608333Y-127378628D01*
X80608333Y-127378628D02*
X80989285Y-127378628D01*
X79941666Y-127854819D02*
X79751190Y-127854819D01*
X79751190Y-127854819D02*
X79655952Y-127807200D01*
X79655952Y-127807200D02*
X79608333Y-127759580D01*
X79608333Y-127759580D02*
X79513095Y-127616723D01*
X79513095Y-127616723D02*
X79465476Y-127426247D01*
X79465476Y-127426247D02*
X79465476Y-127045295D01*
X79465476Y-127045295D02*
X79513095Y-126950057D01*
X79513095Y-126950057D02*
X79560714Y-126902438D01*
X79560714Y-126902438D02*
X79655952Y-126854819D01*
X79655952Y-126854819D02*
X79846428Y-126854819D01*
X79846428Y-126854819D02*
X79941666Y-126902438D01*
X79941666Y-126902438D02*
X79989285Y-126950057D01*
X79989285Y-126950057D02*
X80036904Y-127045295D01*
X80036904Y-127045295D02*
X80036904Y-127283390D01*
X80036904Y-127283390D02*
X79989285Y-127378628D01*
X79989285Y-127378628D02*
X79941666Y-127426247D01*
X79941666Y-127426247D02*
X79846428Y-127473866D01*
X79846428Y-127473866D02*
X79655952Y-127473866D01*
X79655952Y-127473866D02*
X79560714Y-127426247D01*
X79560714Y-127426247D02*
X79513095Y-127378628D01*
X79513095Y-127378628D02*
X79465476Y-127283390D01*
X78560714Y-126854819D02*
X79036904Y-126854819D01*
X79036904Y-126854819D02*
X79084523Y-127331009D01*
X79084523Y-127331009D02*
X79036904Y-127283390D01*
X79036904Y-127283390D02*
X78941666Y-127235771D01*
X78941666Y-127235771D02*
X78703571Y-127235771D01*
X78703571Y-127235771D02*
X78608333Y-127283390D01*
X78608333Y-127283390D02*
X78560714Y-127331009D01*
X78560714Y-127331009D02*
X78513095Y-127426247D01*
X78513095Y-127426247D02*
X78513095Y-127664342D01*
X78513095Y-127664342D02*
X78560714Y-127759580D01*
X78560714Y-127759580D02*
X78608333Y-127807200D01*
X78608333Y-127807200D02*
X78703571Y-127854819D01*
X78703571Y-127854819D02*
X78941666Y-127854819D01*
X78941666Y-127854819D02*
X79036904Y-127807200D01*
X79036904Y-127807200D02*
X79084523Y-127759580D01*
X153554819Y-114980952D02*
X153078628Y-114647619D01*
X153554819Y-114409524D02*
X152554819Y-114409524D01*
X152554819Y-114409524D02*
X152554819Y-114790476D01*
X152554819Y-114790476D02*
X152602438Y-114885714D01*
X152602438Y-114885714D02*
X152650057Y-114933333D01*
X152650057Y-114933333D02*
X152745295Y-114980952D01*
X152745295Y-114980952D02*
X152888152Y-114980952D01*
X152888152Y-114980952D02*
X152983390Y-114933333D01*
X152983390Y-114933333D02*
X153031009Y-114885714D01*
X153031009Y-114885714D02*
X153078628Y-114790476D01*
X153078628Y-114790476D02*
X153078628Y-114409524D01*
X153554819Y-115933333D02*
X153554819Y-115361905D01*
X153554819Y-115647619D02*
X152554819Y-115647619D01*
X152554819Y-115647619D02*
X152697676Y-115552381D01*
X152697676Y-115552381D02*
X152792914Y-115457143D01*
X152792914Y-115457143D02*
X152840533Y-115361905D01*
X153554819Y-116885714D02*
X153554819Y-116314286D01*
X153554819Y-116600000D02*
X152554819Y-116600000D01*
X152554819Y-116600000D02*
X152697676Y-116504762D01*
X152697676Y-116504762D02*
X152792914Y-116409524D01*
X152792914Y-116409524D02*
X152840533Y-116314286D01*
X152554819Y-117504762D02*
X152554819Y-117600000D01*
X152554819Y-117600000D02*
X152602438Y-117695238D01*
X152602438Y-117695238D02*
X152650057Y-117742857D01*
X152650057Y-117742857D02*
X152745295Y-117790476D01*
X152745295Y-117790476D02*
X152935771Y-117838095D01*
X152935771Y-117838095D02*
X153173866Y-117838095D01*
X153173866Y-117838095D02*
X153364342Y-117790476D01*
X153364342Y-117790476D02*
X153459580Y-117742857D01*
X153459580Y-117742857D02*
X153507200Y-117695238D01*
X153507200Y-117695238D02*
X153554819Y-117600000D01*
X153554819Y-117600000D02*
X153554819Y-117504762D01*
X153554819Y-117504762D02*
X153507200Y-117409524D01*
X153507200Y-117409524D02*
X153459580Y-117361905D01*
X153459580Y-117361905D02*
X153364342Y-117314286D01*
X153364342Y-117314286D02*
X153173866Y-117266667D01*
X153173866Y-117266667D02*
X152935771Y-117266667D01*
X152935771Y-117266667D02*
X152745295Y-117314286D01*
X152745295Y-117314286D02*
X152650057Y-117361905D01*
X152650057Y-117361905D02*
X152602438Y-117409524D01*
X152602438Y-117409524D02*
X152554819Y-117504762D01*
X139342857Y-46154819D02*
X139676190Y-45678628D01*
X139914285Y-46154819D02*
X139914285Y-45154819D01*
X139914285Y-45154819D02*
X139533333Y-45154819D01*
X139533333Y-45154819D02*
X139438095Y-45202438D01*
X139438095Y-45202438D02*
X139390476Y-45250057D01*
X139390476Y-45250057D02*
X139342857Y-45345295D01*
X139342857Y-45345295D02*
X139342857Y-45488152D01*
X139342857Y-45488152D02*
X139390476Y-45583390D01*
X139390476Y-45583390D02*
X139438095Y-45631009D01*
X139438095Y-45631009D02*
X139533333Y-45678628D01*
X139533333Y-45678628D02*
X139914285Y-45678628D01*
X138771428Y-45583390D02*
X138866666Y-45535771D01*
X138866666Y-45535771D02*
X138914285Y-45488152D01*
X138914285Y-45488152D02*
X138961904Y-45392914D01*
X138961904Y-45392914D02*
X138961904Y-45345295D01*
X138961904Y-45345295D02*
X138914285Y-45250057D01*
X138914285Y-45250057D02*
X138866666Y-45202438D01*
X138866666Y-45202438D02*
X138771428Y-45154819D01*
X138771428Y-45154819D02*
X138580952Y-45154819D01*
X138580952Y-45154819D02*
X138485714Y-45202438D01*
X138485714Y-45202438D02*
X138438095Y-45250057D01*
X138438095Y-45250057D02*
X138390476Y-45345295D01*
X138390476Y-45345295D02*
X138390476Y-45392914D01*
X138390476Y-45392914D02*
X138438095Y-45488152D01*
X138438095Y-45488152D02*
X138485714Y-45535771D01*
X138485714Y-45535771D02*
X138580952Y-45583390D01*
X138580952Y-45583390D02*
X138771428Y-45583390D01*
X138771428Y-45583390D02*
X138866666Y-45631009D01*
X138866666Y-45631009D02*
X138914285Y-45678628D01*
X138914285Y-45678628D02*
X138961904Y-45773866D01*
X138961904Y-45773866D02*
X138961904Y-45964342D01*
X138961904Y-45964342D02*
X138914285Y-46059580D01*
X138914285Y-46059580D02*
X138866666Y-46107200D01*
X138866666Y-46107200D02*
X138771428Y-46154819D01*
X138771428Y-46154819D02*
X138580952Y-46154819D01*
X138580952Y-46154819D02*
X138485714Y-46107200D01*
X138485714Y-46107200D02*
X138438095Y-46059580D01*
X138438095Y-46059580D02*
X138390476Y-45964342D01*
X138390476Y-45964342D02*
X138390476Y-45773866D01*
X138390476Y-45773866D02*
X138438095Y-45678628D01*
X138438095Y-45678628D02*
X138485714Y-45631009D01*
X138485714Y-45631009D02*
X138580952Y-45583390D01*
X138057142Y-45154819D02*
X137390476Y-45154819D01*
X137390476Y-45154819D02*
X137819047Y-46154819D01*
X74242857Y-102954819D02*
X74576190Y-102478628D01*
X74814285Y-102954819D02*
X74814285Y-101954819D01*
X74814285Y-101954819D02*
X74433333Y-101954819D01*
X74433333Y-101954819D02*
X74338095Y-102002438D01*
X74338095Y-102002438D02*
X74290476Y-102050057D01*
X74290476Y-102050057D02*
X74242857Y-102145295D01*
X74242857Y-102145295D02*
X74242857Y-102288152D01*
X74242857Y-102288152D02*
X74290476Y-102383390D01*
X74290476Y-102383390D02*
X74338095Y-102431009D01*
X74338095Y-102431009D02*
X74433333Y-102478628D01*
X74433333Y-102478628D02*
X74814285Y-102478628D01*
X73909523Y-101954819D02*
X73290476Y-101954819D01*
X73290476Y-101954819D02*
X73623809Y-102335771D01*
X73623809Y-102335771D02*
X73480952Y-102335771D01*
X73480952Y-102335771D02*
X73385714Y-102383390D01*
X73385714Y-102383390D02*
X73338095Y-102431009D01*
X73338095Y-102431009D02*
X73290476Y-102526247D01*
X73290476Y-102526247D02*
X73290476Y-102764342D01*
X73290476Y-102764342D02*
X73338095Y-102859580D01*
X73338095Y-102859580D02*
X73385714Y-102907200D01*
X73385714Y-102907200D02*
X73480952Y-102954819D01*
X73480952Y-102954819D02*
X73766666Y-102954819D01*
X73766666Y-102954819D02*
X73861904Y-102907200D01*
X73861904Y-102907200D02*
X73909523Y-102859580D01*
X72909523Y-102050057D02*
X72861904Y-102002438D01*
X72861904Y-102002438D02*
X72766666Y-101954819D01*
X72766666Y-101954819D02*
X72528571Y-101954819D01*
X72528571Y-101954819D02*
X72433333Y-102002438D01*
X72433333Y-102002438D02*
X72385714Y-102050057D01*
X72385714Y-102050057D02*
X72338095Y-102145295D01*
X72338095Y-102145295D02*
X72338095Y-102240533D01*
X72338095Y-102240533D02*
X72385714Y-102383390D01*
X72385714Y-102383390D02*
X72957142Y-102954819D01*
X72957142Y-102954819D02*
X72338095Y-102954819D01*
X141938094Y-110704819D02*
X141938094Y-109704819D01*
X141938094Y-109704819D02*
X141699999Y-109704819D01*
X141699999Y-109704819D02*
X141557142Y-109752438D01*
X141557142Y-109752438D02*
X141461904Y-109847676D01*
X141461904Y-109847676D02*
X141414285Y-109942914D01*
X141414285Y-109942914D02*
X141366666Y-110133390D01*
X141366666Y-110133390D02*
X141366666Y-110276247D01*
X141366666Y-110276247D02*
X141414285Y-110466723D01*
X141414285Y-110466723D02*
X141461904Y-110561961D01*
X141461904Y-110561961D02*
X141557142Y-110657200D01*
X141557142Y-110657200D02*
X141699999Y-110704819D01*
X141699999Y-110704819D02*
X141938094Y-110704819D01*
X140985713Y-109800057D02*
X140938094Y-109752438D01*
X140938094Y-109752438D02*
X140842856Y-109704819D01*
X140842856Y-109704819D02*
X140604761Y-109704819D01*
X140604761Y-109704819D02*
X140509523Y-109752438D01*
X140509523Y-109752438D02*
X140461904Y-109800057D01*
X140461904Y-109800057D02*
X140414285Y-109895295D01*
X140414285Y-109895295D02*
X140414285Y-109990533D01*
X140414285Y-109990533D02*
X140461904Y-110133390D01*
X140461904Y-110133390D02*
X141033332Y-110704819D01*
X141033332Y-110704819D02*
X140414285Y-110704819D01*
X118232964Y-51176174D02*
X118805383Y-51075159D01*
X118637025Y-51580235D02*
X119344131Y-50873128D01*
X119344131Y-50873128D02*
X119074757Y-50603754D01*
X119074757Y-50603754D02*
X118973742Y-50570082D01*
X118973742Y-50570082D02*
X118906399Y-50570082D01*
X118906399Y-50570082D02*
X118805383Y-50603754D01*
X118805383Y-50603754D02*
X118704368Y-50704769D01*
X118704368Y-50704769D02*
X118670696Y-50805785D01*
X118670696Y-50805785D02*
X118670696Y-50873128D01*
X118670696Y-50873128D02*
X118704368Y-50974143D01*
X118704368Y-50974143D02*
X118973742Y-51243517D01*
X117559529Y-50502739D02*
X117963590Y-50906800D01*
X117761559Y-50704769D02*
X118468666Y-49997663D01*
X118468666Y-49997663D02*
X118434994Y-50166021D01*
X118434994Y-50166021D02*
X118434994Y-50300708D01*
X118434994Y-50300708D02*
X118468666Y-50401724D01*
X117424841Y-49425243D02*
X116953437Y-49896647D01*
X117862574Y-49324227D02*
X117525857Y-49997662D01*
X117525857Y-49997662D02*
X117088124Y-49559930D01*
X143970221Y-98484143D02*
X144542640Y-98383128D01*
X144374282Y-98888204D02*
X145081388Y-98181097D01*
X145081388Y-98181097D02*
X144812014Y-97911723D01*
X144812014Y-97911723D02*
X144710999Y-97878051D01*
X144710999Y-97878051D02*
X144643656Y-97878051D01*
X144643656Y-97878051D02*
X144542640Y-97911723D01*
X144542640Y-97911723D02*
X144441625Y-98012738D01*
X144441625Y-98012738D02*
X144407953Y-98113754D01*
X144407953Y-98113754D02*
X144407953Y-98181097D01*
X144407953Y-98181097D02*
X144441625Y-98282112D01*
X144441625Y-98282112D02*
X144710999Y-98551486D01*
X144441625Y-97541334D02*
X144003892Y-97103601D01*
X144003892Y-97103601D02*
X143970221Y-97608677D01*
X143970221Y-97608677D02*
X143869205Y-97507662D01*
X143869205Y-97507662D02*
X143768190Y-97473990D01*
X143768190Y-97473990D02*
X143700847Y-97473990D01*
X143700847Y-97473990D02*
X143599831Y-97507662D01*
X143599831Y-97507662D02*
X143431473Y-97676021D01*
X143431473Y-97676021D02*
X143397801Y-97777036D01*
X143397801Y-97777036D02*
X143397801Y-97844380D01*
X143397801Y-97844380D02*
X143431473Y-97945395D01*
X143431473Y-97945395D02*
X143633503Y-98147425D01*
X143633503Y-98147425D02*
X143734518Y-98181097D01*
X143734518Y-98181097D02*
X143801862Y-98181097D01*
X143296785Y-97002586D02*
X143397801Y-97036257D01*
X143397801Y-97036257D02*
X143465144Y-97036257D01*
X143465144Y-97036257D02*
X143566159Y-97002586D01*
X143566159Y-97002586D02*
X143599831Y-96968914D01*
X143599831Y-96968914D02*
X143633503Y-96867899D01*
X143633503Y-96867899D02*
X143633503Y-96800555D01*
X143633503Y-96800555D02*
X143599831Y-96699540D01*
X143599831Y-96699540D02*
X143465144Y-96564853D01*
X143465144Y-96564853D02*
X143364129Y-96531181D01*
X143364129Y-96531181D02*
X143296785Y-96531181D01*
X143296785Y-96531181D02*
X143195770Y-96564853D01*
X143195770Y-96564853D02*
X143162098Y-96598525D01*
X143162098Y-96598525D02*
X143128427Y-96699540D01*
X143128427Y-96699540D02*
X143128427Y-96766883D01*
X143128427Y-96766883D02*
X143162098Y-96867899D01*
X143162098Y-96867899D02*
X143296785Y-97002586D01*
X143296785Y-97002586D02*
X143330457Y-97103601D01*
X143330457Y-97103601D02*
X143330457Y-97170944D01*
X143330457Y-97170944D02*
X143296785Y-97271960D01*
X143296785Y-97271960D02*
X143162098Y-97406647D01*
X143162098Y-97406647D02*
X143061083Y-97440318D01*
X143061083Y-97440318D02*
X142993740Y-97440318D01*
X142993740Y-97440318D02*
X142892724Y-97406647D01*
X142892724Y-97406647D02*
X142758037Y-97271960D01*
X142758037Y-97271960D02*
X142724366Y-97170944D01*
X142724366Y-97170944D02*
X142724366Y-97103601D01*
X142724366Y-97103601D02*
X142758037Y-97002586D01*
X142758037Y-97002586D02*
X142892724Y-96867899D01*
X142892724Y-96867899D02*
X142993740Y-96834227D01*
X142993740Y-96834227D02*
X143061083Y-96834227D01*
X143061083Y-96834227D02*
X143162098Y-96867899D01*
X71654819Y-83111905D02*
X70654819Y-83111905D01*
X70654819Y-83111905D02*
X70654819Y-83350000D01*
X70654819Y-83350000D02*
X70702438Y-83492857D01*
X70702438Y-83492857D02*
X70797676Y-83588095D01*
X70797676Y-83588095D02*
X70892914Y-83635714D01*
X70892914Y-83635714D02*
X71083390Y-83683333D01*
X71083390Y-83683333D02*
X71226247Y-83683333D01*
X71226247Y-83683333D02*
X71416723Y-83635714D01*
X71416723Y-83635714D02*
X71511961Y-83588095D01*
X71511961Y-83588095D02*
X71607200Y-83492857D01*
X71607200Y-83492857D02*
X71654819Y-83350000D01*
X71654819Y-83350000D02*
X71654819Y-83111905D01*
X70988152Y-84540476D02*
X71654819Y-84540476D01*
X70607200Y-84302381D02*
X71321485Y-84064286D01*
X71321485Y-84064286D02*
X71321485Y-84683333D01*
X134454819Y-61808333D02*
X133978628Y-61475000D01*
X134454819Y-61236905D02*
X133454819Y-61236905D01*
X133454819Y-61236905D02*
X133454819Y-61617857D01*
X133454819Y-61617857D02*
X133502438Y-61713095D01*
X133502438Y-61713095D02*
X133550057Y-61760714D01*
X133550057Y-61760714D02*
X133645295Y-61808333D01*
X133645295Y-61808333D02*
X133788152Y-61808333D01*
X133788152Y-61808333D02*
X133883390Y-61760714D01*
X133883390Y-61760714D02*
X133931009Y-61713095D01*
X133931009Y-61713095D02*
X133978628Y-61617857D01*
X133978628Y-61617857D02*
X133978628Y-61236905D01*
X134454819Y-62284524D02*
X134454819Y-62475000D01*
X134454819Y-62475000D02*
X134407200Y-62570238D01*
X134407200Y-62570238D02*
X134359580Y-62617857D01*
X134359580Y-62617857D02*
X134216723Y-62713095D01*
X134216723Y-62713095D02*
X134026247Y-62760714D01*
X134026247Y-62760714D02*
X133645295Y-62760714D01*
X133645295Y-62760714D02*
X133550057Y-62713095D01*
X133550057Y-62713095D02*
X133502438Y-62665476D01*
X133502438Y-62665476D02*
X133454819Y-62570238D01*
X133454819Y-62570238D02*
X133454819Y-62379762D01*
X133454819Y-62379762D02*
X133502438Y-62284524D01*
X133502438Y-62284524D02*
X133550057Y-62236905D01*
X133550057Y-62236905D02*
X133645295Y-62189286D01*
X133645295Y-62189286D02*
X133883390Y-62189286D01*
X133883390Y-62189286D02*
X133978628Y-62236905D01*
X133978628Y-62236905D02*
X134026247Y-62284524D01*
X134026247Y-62284524D02*
X134073866Y-62379762D01*
X134073866Y-62379762D02*
X134073866Y-62570238D01*
X134073866Y-62570238D02*
X134026247Y-62665476D01*
X134026247Y-62665476D02*
X133978628Y-62713095D01*
X133978628Y-62713095D02*
X133883390Y-62760714D01*
D13*
%TO.C,C43*%
X129938748Y-128410000D02*
X130461252Y-128410000D01*
X129938748Y-126940000D02*
X130461252Y-126940000D01*
%TO.C,C32*%
X117011391Y-45836168D02*
X116812580Y-46034979D01*
X117732640Y-46557417D02*
X117533829Y-46756228D01*
D14*
%TO.C,U4*%
X133124132Y-116050000D02*
X133124132Y-136550000D01*
X133124132Y-131500000D02*
X148624132Y-131500000D01*
X133124132Y-136550000D02*
X148624132Y-136550000D01*
X134324132Y-133150000D02*
X134324132Y-135850000D01*
X134324132Y-135850000D02*
X135924132Y-135850000D01*
X135924132Y-135850000D02*
X135924132Y-133150000D01*
X135924132Y-135850000D02*
X137424132Y-135850000D01*
X137424132Y-134250000D02*
X139624132Y-134250000D01*
X137424132Y-135850000D02*
X137424132Y-134250000D01*
X139624132Y-134250000D02*
X139624132Y-135850000D01*
X139624132Y-135850000D02*
X141824132Y-135850000D01*
X141824132Y-134250000D02*
X144024132Y-134250000D01*
X141824132Y-135850000D02*
X141824132Y-134250000D01*
X144024132Y-134250000D02*
X144024132Y-135850000D01*
X144024132Y-135850000D02*
X146124132Y-135850000D01*
X146124132Y-135850000D02*
X146124132Y-133150000D01*
X148624132Y-116050000D02*
X133124132Y-116050000D01*
X148624132Y-131500000D02*
X148624132Y-131540000D01*
X148624132Y-136550000D02*
X148624132Y-116050000D01*
X132764132Y-130050000D02*
G75*
G02*
X132484132Y-130050000I-140000J0D01*
G01*
X132484132Y-130050000D02*
G75*
G02*
X132764132Y-130050000I140000J0D01*
G01*
D13*
%TO.C,R29*%
X73862258Y-98527500D02*
X73387742Y-98527500D01*
X73862258Y-99572500D02*
X73387742Y-99572500D01*
%TO.C,R27*%
X78262258Y-102277500D02*
X77787742Y-102277500D01*
X78262258Y-103322500D02*
X77787742Y-103322500D01*
%TO.C,R8*%
X66762258Y-51277500D02*
X66287742Y-51277500D01*
X66762258Y-52322500D02*
X66287742Y-52322500D01*
D14*
%TO.C,BUZZER1*%
X148450000Y-102930000D02*
X148450000Y-107270000D01*
X150530000Y-109350000D02*
X154870000Y-109350000D01*
X151700000Y-102600000D02*
X152700000Y-101600000D01*
X152700000Y-101600000D02*
X153700000Y-102600000D01*
X153700000Y-102600000D02*
X151700000Y-102600000D01*
X154870000Y-100850000D02*
X150530000Y-100850000D01*
X156950000Y-107270000D02*
X156950000Y-102930000D01*
D13*
%TO.C,C47*%
X150790000Y-124190580D02*
X150790000Y-123909420D01*
X151810000Y-124190580D02*
X151810000Y-123909420D01*
D11*
%TO.C,R94*%
X75285000Y-121540000D02*
X75285000Y-122860000D01*
X75285000Y-122860000D02*
X76245001Y-122860000D01*
X76245001Y-121540000D02*
X75285000Y-121540000D01*
X77104999Y-121540000D02*
X78065000Y-121540000D01*
X78065000Y-121540000D02*
X78065000Y-122860000D01*
X78065000Y-122860000D02*
X77104999Y-122860000D01*
D13*
%TO.C,R42*%
X130112258Y-44477500D02*
X129637742Y-44477500D01*
X130112258Y-45522500D02*
X129637742Y-45522500D01*
D11*
%TO.C,R93*%
X75235000Y-125440000D02*
X75235000Y-126760000D01*
X75235000Y-126760000D02*
X76195001Y-126760000D01*
X76195001Y-125440000D02*
X75235000Y-125440000D01*
X77054999Y-125440000D02*
X78015000Y-125440000D01*
X78015000Y-125440000D02*
X78015000Y-126760000D01*
X78015000Y-126760000D02*
X77054999Y-126760000D01*
D13*
%TO.C,R36*%
X153862742Y-112577500D02*
X154337258Y-112577500D01*
X153862742Y-113622500D02*
X154337258Y-113622500D01*
%TO.C,R1*%
X124427500Y-80537258D02*
X124427500Y-80062742D01*
X125472500Y-80537258D02*
X125472500Y-80062742D01*
%TO.C,C27*%
X136440581Y-64090000D02*
X136159419Y-64090000D01*
X136440581Y-65110000D02*
X136159419Y-65110000D01*
D11*
%TO.C,R31*%
X75360000Y-100340000D02*
X76320000Y-100340000D01*
X75360000Y-101660000D02*
X75360000Y-100340000D01*
X76320000Y-101660000D02*
X75360000Y-101660000D01*
X77180000Y-101660000D02*
X78140000Y-101660000D01*
X78140000Y-100340000D02*
X77180000Y-100340000D01*
X78140000Y-101660000D02*
X78140000Y-100340000D01*
D13*
%TO.C,R88*%
X90327501Y-114237258D02*
X90327501Y-113762742D01*
X91372501Y-114237258D02*
X91372501Y-113762742D01*
D11*
%TO.C,D1*%
X151130000Y-110280000D02*
X151130000Y-110460000D01*
X151130000Y-112120000D02*
X151130000Y-111940000D01*
X153420000Y-110320000D02*
X153420000Y-112080000D01*
X153880000Y-110280000D02*
X151130000Y-110280000D01*
X153880000Y-112120000D02*
X151130000Y-112120000D01*
D13*
%TO.C,C24*%
X126190000Y-60840581D02*
X126190000Y-60559419D01*
X127210000Y-60840581D02*
X127210000Y-60559419D01*
%TO.C,R33*%
X150436874Y-119627500D02*
X150911390Y-119627500D01*
X150436874Y-120672500D02*
X150911390Y-120672500D01*
%TO.C,C22*%
X66759419Y-60090000D02*
X67040581Y-60090000D01*
X66759419Y-61110000D02*
X67040581Y-61110000D01*
D14*
%TO.C,Q1*%
X149900000Y-114310000D02*
X149900000Y-113680000D01*
X151300000Y-112500000D02*
X150300000Y-112500000D01*
X151300000Y-113360000D02*
X151300000Y-112500000D01*
X151300000Y-115500000D02*
X150300000Y-115500000D01*
X151300000Y-115500000D02*
X151300000Y-114630000D01*
D13*
%TO.C,R11*%
X135077500Y-66837742D02*
X135077500Y-67312258D01*
X136122500Y-66837742D02*
X136122500Y-67312258D01*
%TO.C,C41*%
X130439712Y-130680000D02*
X130158552Y-130680000D01*
X130439712Y-131700000D02*
X130158552Y-131700000D01*
%TO.C,R101*%
X92062744Y-104127500D02*
X92537260Y-104127500D01*
X92062744Y-105172500D02*
X92537260Y-105172500D01*
%TO.C,C31*%
X107465450Y-50645316D02*
X107266639Y-50446505D01*
X108186699Y-49924067D02*
X107987888Y-49725256D01*
%TO.C,R34*%
X150911390Y-118027500D02*
X150436874Y-118027500D01*
X150911390Y-119072500D02*
X150436874Y-119072500D01*
%TO.C,C75*%
X66709419Y-82540000D02*
X66990581Y-82540000D01*
X66709419Y-83560000D02*
X66990581Y-83560000D01*
%TO.C,C44*%
X149190000Y-127290581D02*
X149190000Y-127009421D01*
X150210000Y-127290581D02*
X150210000Y-127009421D01*
%TO.C,C80*%
X127359419Y-75590000D02*
X127640581Y-75590000D01*
X127359419Y-76610000D02*
X127640581Y-76610000D01*
%TO.C,C79*%
X127359419Y-77240000D02*
X127640581Y-77240000D01*
X127359419Y-78260000D02*
X127640581Y-78260000D01*
%TO.C,C2*%
X127490000Y-80540581D02*
X127490000Y-80259419D01*
X128510000Y-80540581D02*
X128510000Y-80259419D01*
%TO.C,C45*%
X150790000Y-127009420D02*
X150790000Y-127290580D01*
X151810000Y-127009420D02*
X151810000Y-127290580D01*
%TO.C,C40*%
X143790000Y-110640581D02*
X143790000Y-110359419D01*
X144810000Y-110640581D02*
X144810000Y-110359419D01*
%TO.C,R111*%
X155537258Y-98877500D02*
X155062742Y-98877500D01*
X155537258Y-99922500D02*
X155062742Y-99922500D01*
%TO.C,R57*%
X128477500Y-119912742D02*
X128477500Y-120387258D01*
X129522500Y-119912742D02*
X129522500Y-120387258D01*
%TO.C,R25*%
X73312742Y-96627500D02*
X73787258Y-96627500D01*
X73312742Y-97672500D02*
X73787258Y-97672500D01*
%TO.C,C23*%
X68690000Y-50859419D02*
X68690000Y-51140581D01*
X69710000Y-50859419D02*
X69710000Y-51140581D01*
%TO.C,R97*%
X79587742Y-121677500D02*
X80062258Y-121677500D01*
X79587742Y-122722500D02*
X80062258Y-122722500D01*
%TO.C,R96*%
X75162742Y-119877500D02*
X75637258Y-119877500D01*
X75162742Y-120922500D02*
X75637258Y-120922500D01*
%TO.C,R50*%
X92537260Y-110602499D02*
X92062744Y-110602499D01*
X92537260Y-111647499D02*
X92062744Y-111647499D01*
%TO.C,R49*%
X92062744Y-109027499D02*
X92537260Y-109027499D01*
X92062744Y-110072499D02*
X92537260Y-110072499D01*
D11*
%TO.C,D5*%
X71400000Y-80480000D02*
X71400000Y-80660000D01*
X71400000Y-82320000D02*
X71400000Y-82140000D01*
X73690000Y-80520000D02*
X73690000Y-82280000D01*
X74150000Y-80480000D02*
X71400000Y-80480000D01*
X74150000Y-82320000D02*
X71400000Y-82320000D01*
%TO.C,D6*%
X129140000Y-77150000D02*
X129140000Y-82450000D01*
X129140000Y-78530000D02*
X131860000Y-78530000D01*
X129140000Y-82450000D02*
X129529999Y-82450000D01*
X131860000Y-77150000D02*
X131860000Y-82450000D01*
X131860000Y-82450000D02*
X131470001Y-82450000D01*
D13*
%TO.C,C74*%
X66990581Y-80890000D02*
X66709419Y-80890000D01*
X66990581Y-81910000D02*
X66709419Y-81910000D01*
%TO.C,R12*%
X114808172Y-45560636D02*
X114472639Y-45225103D01*
X115547099Y-44821709D02*
X115211566Y-44486176D01*
%TO.C,R39*%
X152377500Y-127387258D02*
X152377500Y-126912742D01*
X153422500Y-127387258D02*
X153422500Y-126912742D01*
%TO.C,R98*%
X129637741Y-46127500D02*
X130112257Y-46127500D01*
X129637741Y-47172500D02*
X130112257Y-47172500D01*
%TO.C,R48*%
X92062744Y-107427499D02*
X92537260Y-107427499D01*
X92062744Y-108472499D02*
X92537260Y-108472499D01*
%TO.C,R10*%
X72062742Y-51377500D02*
X72537258Y-51377500D01*
X72062742Y-52422500D02*
X72537258Y-52422500D01*
%TO.C,R43*%
X130112257Y-42877500D02*
X129637741Y-42877500D01*
X130112257Y-43922500D02*
X129637741Y-43922500D01*
D11*
%TO.C,R26*%
X75410000Y-96440000D02*
X76370001Y-96440000D01*
X75410000Y-97760000D02*
X75410000Y-96440000D01*
X76370001Y-97760000D02*
X75410000Y-97760000D01*
X77229999Y-97760000D02*
X78190000Y-97760000D01*
X78190000Y-96440000D02*
X77229999Y-96440000D01*
X78190000Y-97760000D02*
X78190000Y-96440000D01*
D13*
%TO.C,R99*%
X92537260Y-105777499D02*
X92062744Y-105777499D01*
X92537260Y-106822499D02*
X92062744Y-106822499D01*
%TO.C,C42*%
X130158552Y-129089999D02*
X130439712Y-129089999D01*
X130158552Y-130109999D02*
X130439712Y-130109999D01*
%TO.C,R44*%
X131752498Y-43962742D02*
X131752498Y-44437258D01*
X132797498Y-43962742D02*
X132797498Y-44437258D01*
%TO.C,R40*%
X152377500Y-123812742D02*
X152377500Y-124287258D01*
X153422500Y-123812742D02*
X153422500Y-124287258D01*
%TO.C,R100*%
X130112257Y-47777500D02*
X129637741Y-47777500D01*
X130112257Y-48822500D02*
X129637741Y-48822500D01*
%TO.C,R91*%
X79562742Y-123627500D02*
X80037258Y-123627500D01*
X79562742Y-124672500D02*
X80037258Y-124672500D01*
%TO.C,C46*%
X149190000Y-123909421D02*
X149190000Y-124190581D01*
X150210000Y-123909421D02*
X150210000Y-124190581D01*
%TO.C,R37*%
X152062742Y-97277500D02*
X152537258Y-97277500D01*
X152062742Y-98322500D02*
X152537258Y-98322500D01*
%TO.C,R95*%
X80112258Y-125527500D02*
X79637742Y-125527500D01*
X80112258Y-126572500D02*
X79637742Y-126572500D01*
%TO.C,R110*%
X150937258Y-116377500D02*
X150462742Y-116377500D01*
X150937258Y-117422500D02*
X150462742Y-117422500D01*
%TO.C,R87*%
X135387258Y-45127501D02*
X134912742Y-45127501D01*
X135387258Y-46172501D02*
X134912742Y-46172501D01*
%TO.C,R32*%
X73837258Y-100477500D02*
X73362742Y-100477500D01*
X73837258Y-101522500D02*
X73362742Y-101522500D01*
D11*
%TO.C,D2*%
X139684133Y-113740000D02*
X139684133Y-111960000D01*
X142764131Y-113740000D02*
X142764131Y-111960000D01*
D15*
X143044132Y-114150000D02*
G75*
G02*
X142744132Y-114150000I-150000J0D01*
G01*
X142744132Y-114150000D02*
G75*
G02*
X143044132Y-114150000I150000J0D01*
G01*
D13*
%TO.C,R14*%
X118008173Y-48760637D02*
X118343706Y-49096170D01*
X118747100Y-48021710D02*
X119082633Y-48357243D01*
%TO.C,R38*%
X145562770Y-100101697D02*
X145898303Y-100437230D01*
X146301697Y-99362770D02*
X146637230Y-99698303D01*
D11*
%TO.C,D4*%
X68480000Y-81720000D02*
X68480000Y-84470000D01*
X68480000Y-84470000D02*
X68660000Y-84470000D01*
X68520000Y-82180000D02*
X70280000Y-82180000D01*
X70320000Y-81720000D02*
X70320000Y-84470000D01*
X70320000Y-84470000D02*
X70140000Y-84470000D01*
D13*
%TO.C,R9*%
X135077500Y-62312258D02*
X135077500Y-61837742D01*
X136122500Y-62312258D02*
X136122500Y-61837742D01*
%TD*%
%LPC*%
D16*
%TO.C,C43*%
X129250000Y-127675000D03*
X131150000Y-127675000D03*
%TD*%
D17*
%TO.C,TP4*%
X88100000Y-119600000D03*
%TD*%
%TO.C,TP5*%
X95700000Y-119700000D03*
%TD*%
D18*
%TO.C,J1*%
X144755000Y-36100000D03*
X140795000Y-36100000D03*
X136835000Y-36100000D03*
X132875000Y-36100000D03*
X128915000Y-36100000D03*
X124955000Y-36100000D03*
X120995000Y-36100000D03*
X117035000Y-36100000D03*
X113075000Y-36100000D03*
%TD*%
%TO.C,J2*%
X126225000Y-46675000D03*
%TD*%
D19*
%TO.C,U6*%
X87600000Y-112800000D03*
X88600000Y-112800000D03*
X87600001Y-111800000D03*
X88599999Y-111800000D03*
X87600000Y-110800000D03*
X88600000Y-110800000D03*
%TD*%
D20*
%TO.C,J6*%
X63200000Y-105195000D03*
X63200000Y-101235000D03*
X63200000Y-97275000D03*
X63200000Y-93314999D03*
X63200000Y-89355001D03*
%TD*%
D18*
%TO.C,J4*%
X55394999Y-36100000D03*
X59354999Y-36100000D03*
X63314999Y-36100000D03*
X67275000Y-36100000D03*
X71234998Y-36100000D03*
X75194999Y-36100000D03*
X79154999Y-36100000D03*
%TD*%
D17*
%TO.C,TP6*%
X103500000Y-119700000D03*
%TD*%
D20*
%TO.C,J5*%
X63225000Y-118365000D03*
X63225000Y-122325000D03*
X63225000Y-126285000D03*
X63225000Y-130245001D03*
X63225000Y-134204999D03*
%TD*%
D19*
%TO.C,U5*%
X133950000Y-48900002D03*
X133950000Y-47900002D03*
X132950000Y-48900001D03*
X132950000Y-47900003D03*
X131950000Y-48900002D03*
X131950000Y-47900002D03*
%TD*%
D21*
%TO.C,H1*%
X44100000Y-36000000D03*
X44802944Y-34302944D03*
X44802944Y-37697056D03*
X46500000Y-33600000D03*
D22*
X46500000Y-36000000D03*
D21*
X46500000Y-38400000D03*
X48197056Y-34302944D03*
X48197056Y-37697056D03*
X48900000Y-36000000D03*
%TD*%
%TO.C,H4*%
X114600000Y-132500000D03*
X115302944Y-130802944D03*
X115302944Y-134197056D03*
X117000000Y-130100000D03*
D22*
X117000000Y-132500000D03*
D21*
X117000000Y-134900000D03*
X118697056Y-130802944D03*
X118697056Y-134197056D03*
X119400000Y-132500000D03*
%TD*%
%TO.C,H2*%
X44100000Y-132500000D03*
X44802944Y-130802944D03*
X44802944Y-134197056D03*
X46500000Y-130100000D03*
D22*
X46500000Y-132500000D03*
D21*
X46500000Y-134900000D03*
X48197056Y-130802944D03*
X48197056Y-134197056D03*
X48900000Y-132500000D03*
%TD*%
D23*
%TO.C,USB2*%
X144679649Y-93049284D03*
X149982949Y-98352584D03*
D24*
X147154522Y-92483598D03*
X144113963Y-95524157D03*
X150548635Y-95877711D03*
X147508076Y-98918270D03*
%TD*%
D21*
%TO.C,H3*%
X148600000Y-41000000D03*
X149302944Y-39302944D03*
X149302944Y-42697056D03*
X151000000Y-38600000D03*
D22*
X151000000Y-41000000D03*
D21*
X151000000Y-43400000D03*
X152697056Y-39302944D03*
X152697056Y-42697056D03*
X153400000Y-41000000D03*
%TD*%
D20*
%TO.C,J3*%
X150800000Y-66815000D03*
X150800000Y-62855000D03*
X150800000Y-58895000D03*
X150800000Y-54935000D03*
X150800000Y-50975000D03*
X150800000Y-47015000D03*
%TD*%
D18*
%TO.C,J7*%
X108420000Y-133700000D03*
X104460000Y-133700000D03*
X100500000Y-133700000D03*
X96539999Y-133700000D03*
X92580001Y-133700000D03*
%TD*%
D25*
%TO.C,C32*%
X117820618Y-45748190D03*
X116724602Y-46844206D03*
%TD*%
D26*
%TO.C,U4*%
X133844132Y-129700000D03*
X133844132Y-128850000D03*
X133844132Y-128000000D03*
X133844132Y-127150000D03*
X133844132Y-126300000D03*
X133844132Y-125450000D03*
X133844132Y-124600000D03*
X133844132Y-123750000D03*
X133844132Y-122900000D03*
X133844132Y-122050000D03*
X133844132Y-121200000D03*
X133844132Y-120350000D03*
X133844132Y-119500000D03*
X133844132Y-118650000D03*
X133844132Y-117800000D03*
D27*
X134874132Y-116720000D03*
X135724132Y-116720000D03*
X136574132Y-116720000D03*
X137424132Y-116720000D03*
X138274132Y-116720000D03*
X139124132Y-116720000D03*
X139974132Y-116720000D03*
X140824132Y-116720000D03*
X141674132Y-116720000D03*
X142524132Y-116720000D03*
X143374132Y-116720000D03*
X144224132Y-116720000D03*
X145074132Y-116720000D03*
X145924132Y-116720000D03*
X146774132Y-116720000D03*
D26*
X147804132Y-117800000D03*
X147804132Y-118650000D03*
X147804132Y-119500000D03*
X147804132Y-120350000D03*
X147804132Y-121200000D03*
X147804132Y-122050000D03*
X147804132Y-122900000D03*
X147804132Y-123750000D03*
X147804132Y-124600000D03*
X147804132Y-125450000D03*
X147804132Y-126300000D03*
X147804132Y-127150000D03*
X147804132Y-128000000D03*
X147804132Y-128850000D03*
X147804132Y-129700000D03*
D27*
X146774132Y-130780000D03*
X145924132Y-130780000D03*
X145074132Y-130780000D03*
X144224132Y-130780000D03*
X143374132Y-130780000D03*
X142524132Y-130780000D03*
X141674132Y-130780000D03*
X140824132Y-130780000D03*
X139974132Y-130780000D03*
X139124132Y-130780000D03*
X138274132Y-130780000D03*
X137424132Y-130780000D03*
X136574132Y-130780000D03*
X135724132Y-130780000D03*
X134874132Y-130780000D03*
D28*
X133824132Y-116750000D03*
X133824132Y-130750000D03*
D29*
X139174132Y-122100000D03*
X139174132Y-123750000D03*
X139174132Y-125400000D03*
X140824132Y-122100000D03*
X140824132Y-123750000D03*
X140824132Y-125400000D03*
X142474132Y-122100000D03*
X142474132Y-123750000D03*
X142474132Y-125400000D03*
D28*
X147824132Y-116750000D03*
X147824132Y-130750000D03*
%TD*%
D30*
%TO.C,R29*%
X74450000Y-99050000D03*
X72800000Y-99050000D03*
%TD*%
%TO.C,R27*%
X78850000Y-102800000D03*
X77200000Y-102800000D03*
%TD*%
%TO.C,R8*%
X67350000Y-51800000D03*
X65700000Y-51800000D03*
%TD*%
D31*
%TO.C,BUZZER1*%
X156300000Y-108700000D03*
X149100000Y-108700000D03*
X149100000Y-101500000D03*
X156300000Y-101500000D03*
%TD*%
D32*
%TO.C,C47*%
X151300000Y-124825000D03*
X151300000Y-123275000D03*
%TD*%
D33*
%TO.C,R94*%
X75925000Y-122200000D03*
X77425000Y-122200000D03*
%TD*%
D30*
%TO.C,R42*%
X130700000Y-45000000D03*
X129050000Y-45000000D03*
%TD*%
D33*
%TO.C,R93*%
X75875000Y-126100000D03*
X77375000Y-126100000D03*
%TD*%
D34*
%TO.C,R36*%
X153275000Y-113100000D03*
X154925000Y-113100000D03*
%TD*%
D35*
%TO.C,R1*%
X124950000Y-81125000D03*
X124950000Y-79475000D03*
%TD*%
D36*
%TO.C,C27*%
X137075000Y-64600000D03*
X135525000Y-64600000D03*
%TD*%
D33*
%TO.C,R31*%
X77500000Y-101000000D03*
X76000000Y-101000000D03*
%TD*%
D35*
%TO.C,R88*%
X90850001Y-114825000D03*
X90850001Y-113175000D03*
%TD*%
D37*
%TO.C,D1*%
X154230000Y-111200000D03*
X150770000Y-111200000D03*
%TD*%
D32*
%TO.C,C24*%
X126700000Y-61475000D03*
X126700000Y-59925000D03*
%TD*%
D34*
%TO.C,R33*%
X149849132Y-120150000D03*
X151499132Y-120150000D03*
%TD*%
D38*
%TO.C,C22*%
X66125000Y-60600000D03*
X67675000Y-60600000D03*
%TD*%
D39*
%TO.C,Q1*%
X149450000Y-114950000D03*
X149450000Y-113050000D03*
X151750000Y-114000000D03*
%TD*%
D40*
%TO.C,R11*%
X135600000Y-66250000D03*
X135600000Y-67900000D03*
%TD*%
D36*
%TO.C,C41*%
X131074132Y-131190000D03*
X129524132Y-131190000D03*
%TD*%
D34*
%TO.C,R101*%
X91475002Y-104650000D03*
X93125002Y-104650000D03*
%TD*%
D41*
%TO.C,C31*%
X108274677Y-50733294D03*
X107178661Y-49637278D03*
%TD*%
D30*
%TO.C,R34*%
X151499132Y-118550000D03*
X149849132Y-118550000D03*
%TD*%
D38*
%TO.C,C75*%
X66075000Y-83050000D03*
X67625000Y-83050000D03*
%TD*%
D32*
%TO.C,C44*%
X149700000Y-127925001D03*
X149700000Y-126375001D03*
%TD*%
D38*
%TO.C,C80*%
X126725000Y-76100000D03*
X128275000Y-76100000D03*
%TD*%
%TO.C,C79*%
X126725000Y-77750000D03*
X128275000Y-77750000D03*
%TD*%
D32*
%TO.C,C2*%
X128000000Y-81175000D03*
X128000000Y-79625000D03*
%TD*%
D42*
%TO.C,C45*%
X151300000Y-126375000D03*
X151300000Y-127925000D03*
%TD*%
D32*
%TO.C,C40*%
X144300000Y-111275000D03*
X144300000Y-109725000D03*
%TD*%
D30*
%TO.C,R111*%
X156125000Y-99400000D03*
X154475000Y-99400000D03*
%TD*%
D40*
%TO.C,R57*%
X129000000Y-119325000D03*
X129000000Y-120975000D03*
%TD*%
D34*
%TO.C,R25*%
X72725000Y-97150000D03*
X74375000Y-97150000D03*
%TD*%
D42*
%TO.C,C23*%
X69200000Y-50225000D03*
X69200000Y-51775000D03*
%TD*%
D34*
%TO.C,R97*%
X79000000Y-122200000D03*
X80650000Y-122200000D03*
%TD*%
%TO.C,R96*%
X74575000Y-120400000D03*
X76225000Y-120400000D03*
%TD*%
D30*
%TO.C,R50*%
X93125002Y-111124999D03*
X91475002Y-111124999D03*
%TD*%
D34*
%TO.C,R49*%
X91475002Y-109549999D03*
X93125002Y-109549999D03*
%TD*%
D37*
%TO.C,D5*%
X74500000Y-81400000D03*
X71040000Y-81400000D03*
%TD*%
D43*
%TO.C,D6*%
X130500000Y-82300000D03*
X130500000Y-77300000D03*
%TD*%
D36*
%TO.C,C74*%
X67625000Y-81400000D03*
X66075000Y-81400000D03*
%TD*%
D44*
%TO.C,R12*%
X115593232Y-45606769D03*
X114426506Y-44440043D03*
%TD*%
D35*
%TO.C,R39*%
X152900000Y-127975000D03*
X152900000Y-126325000D03*
%TD*%
D34*
%TO.C,R98*%
X129049999Y-46650000D03*
X130699999Y-46650000D03*
%TD*%
%TO.C,R48*%
X91475002Y-107949999D03*
X93125002Y-107949999D03*
%TD*%
%TO.C,R10*%
X71475000Y-51900000D03*
X73125000Y-51900000D03*
%TD*%
D30*
%TO.C,R43*%
X130699999Y-43400000D03*
X129049999Y-43400000D03*
%TD*%
D33*
%TO.C,R26*%
X77550000Y-97100000D03*
X76050000Y-97100000D03*
%TD*%
D30*
%TO.C,R99*%
X93125002Y-106299999D03*
X91475002Y-106299999D03*
%TD*%
D38*
%TO.C,C42*%
X129524132Y-129599999D03*
X131074132Y-129599999D03*
%TD*%
D40*
%TO.C,R44*%
X132274998Y-43375000D03*
X132274998Y-45025000D03*
%TD*%
%TO.C,R40*%
X152900000Y-123225000D03*
X152900000Y-124875000D03*
%TD*%
D30*
%TO.C,R100*%
X130699999Y-48300000D03*
X129049999Y-48300000D03*
%TD*%
D34*
%TO.C,R91*%
X78975000Y-124150000D03*
X80625000Y-124150000D03*
%TD*%
D42*
%TO.C,C46*%
X149700000Y-123275001D03*
X149700000Y-124825001D03*
%TD*%
D34*
%TO.C,R37*%
X151475000Y-97800000D03*
X153125000Y-97800000D03*
%TD*%
D30*
%TO.C,R95*%
X80700000Y-126050000D03*
X79050000Y-126050000D03*
%TD*%
%TO.C,R110*%
X151525000Y-116900000D03*
X149875000Y-116900000D03*
%TD*%
%TO.C,R87*%
X135975000Y-45650001D03*
X134325000Y-45650001D03*
%TD*%
%TO.C,R32*%
X74425000Y-101000000D03*
X72775000Y-101000000D03*
%TD*%
D45*
%TO.C,D2*%
X142174132Y-114000000D03*
X141224132Y-114000000D03*
X140274132Y-114000000D03*
X140274132Y-111700000D03*
X141224132Y-111700000D03*
X142174132Y-111700000D03*
%TD*%
D46*
%TO.C,R14*%
X117962040Y-47975577D03*
X119128766Y-49142303D03*
%TD*%
%TO.C,R38*%
X145516637Y-99316637D03*
X146683363Y-100483363D03*
%TD*%
D47*
%TO.C,D4*%
X69400000Y-81370000D03*
X69400000Y-84830000D03*
%TD*%
D35*
%TO.C,R9*%
X135600000Y-62900000D03*
X135600000Y-61250000D03*
%TD*%
D12*
X58800000Y-83800000D02*
X58450000Y-84150000D01*
X58200965Y-45377756D02*
X51830413Y-39007204D01*
X87277519Y-32252458D02*
X87639257Y-32293215D01*
X88665732Y-32652394D02*
X88973962Y-32846068D01*
X58450000Y-84150000D02*
X58450000Y-119956440D01*
X109391896Y-35214213D02*
X111868805Y-32737304D01*
X88973962Y-32846068D02*
X89258569Y-33073034D01*
X112790000Y-32250000D02*
X153787042Y-32250000D01*
X58806109Y-82250000D02*
X58456109Y-81900000D01*
X88337755Y-32494449D02*
X88665732Y-32652394D01*
X89347559Y-33158550D02*
X91403223Y-35214214D01*
X89258569Y-33073034D02*
X89341629Y-33156094D01*
X87095506Y-32250000D02*
X87277519Y-32252458D01*
X87994156Y-32374219D02*
X88337755Y-32494449D01*
X58230330Y-120486770D02*
X57583550Y-121133550D01*
X50959070Y-128095717D02*
X50959070Y-135510790D01*
X53243024Y-32250000D02*
X87095506Y-32250000D01*
X51206109Y-37500000D02*
X51206109Y-34286915D01*
X89341629Y-33156094D02*
X89347559Y-33158550D01*
X87639257Y-32293215D02*
X87994156Y-32374219D01*
X157806109Y-36269067D02*
X157806109Y-66950000D01*
X111868805Y-32737304D02*
X112049301Y-32556808D01*
X57583550Y-121133550D02*
X57574483Y-121155440D01*
X58456109Y-81900000D02*
X58456109Y-45993729D01*
X52548280Y-137100000D02*
X126700000Y-137100000D01*
X57574483Y-121155440D02*
X51188779Y-127541144D01*
X92817436Y-35800000D02*
X107977682Y-35800000D01*
X51188779Y-127541144D02*
X51037419Y-127803309D01*
X51037419Y-127803309D02*
X50959070Y-128095717D01*
X107977682Y-35800000D02*
G75*
G03*
X109391905Y-35214222I18J2000000D01*
G01*
X153787042Y-32250000D02*
G75*
G02*
X157806100Y-36269067I-42J-4019100D01*
G01*
X58200965Y-45377756D02*
G75*
G02*
X58456091Y-45993729I-615965J-615944D01*
G01*
X51206109Y-34286915D02*
G75*
G02*
X53243024Y-32250009I2036891J15D01*
G01*
X112049301Y-32556808D02*
G75*
G02*
X112790000Y-32249998I740699J-740692D01*
G01*
X50959070Y-135510790D02*
G75*
G03*
X52548280Y-137100030I1589230J-10D01*
G01*
X51830413Y-39007204D02*
G75*
G02*
X51206104Y-37500000I1507187J1507204D01*
G01*
X58450000Y-119956440D02*
G75*
G02*
X58230310Y-120486750I-750000J40D01*
G01*
X91403223Y-35214214D02*
G75*
G03*
X92817436Y-35799974I1414177J1414214D01*
G01*
X107751472Y-35400000D02*
X92950000Y-35400000D01*
X50800000Y-34219239D02*
X50800000Y-37701472D01*
X58049000Y-119893893D02*
X58049000Y-83151000D01*
X58049000Y-46038819D02*
X58049000Y-82066100D01*
X57916501Y-45670113D02*
X58002781Y-45819558D01*
X58047440Y-45986242D02*
X58049000Y-46038819D01*
X91584315Y-34834315D02*
X89688492Y-32938492D01*
X58050000Y-82067100D02*
X58050000Y-82950000D01*
X111147207Y-32850000D02*
X109200000Y-34797207D01*
X58002781Y-45819558D02*
X58047440Y-45986242D01*
X111150000Y-32850000D02*
X111147207Y-32850000D01*
X109200000Y-34797207D02*
X109200000Y-34800000D01*
X126700000Y-137500000D02*
X52510275Y-137500000D01*
X158200000Y-66950000D02*
X158200000Y-36203982D01*
X111690381Y-32309619D02*
X111150000Y-32850000D01*
X51400000Y-39150000D02*
X57857297Y-45607297D01*
X87060640Y-31850000D02*
X53381371Y-31850000D01*
X57857297Y-45607297D02*
X57916501Y-45670113D01*
X58049000Y-82066100D02*
X58050000Y-82067100D01*
X50549000Y-135538725D02*
X50549000Y-128238810D01*
X51000000Y-127150000D02*
X57902553Y-120247447D01*
X153846018Y-31850000D02*
X112800000Y-31850000D01*
X52510275Y-137500000D02*
G75*
G02*
X50549000Y-135538725I25J1961300D01*
G01*
X51450000Y-32650000D02*
G75*
G03*
X50800016Y-34219239I1569200J-1569200D01*
G01*
X89688492Y-32938492D02*
G75*
G03*
X87060640Y-31849959I-2627892J-2627808D01*
G01*
X53381371Y-31850000D02*
G75*
G03*
X51450009Y-32650009I29J-2731400D01*
G01*
X92950000Y-35400000D02*
G75*
G02*
X91584309Y-34834321I0J1931400D01*
G01*
X57902553Y-120247447D02*
G75*
G03*
X58048995Y-119893893I-353553J353547D01*
G01*
X109200000Y-34800000D02*
G75*
G02*
X107751472Y-35399988I-1448500J1448500D01*
G01*
X112800000Y-31850000D02*
G75*
G03*
X111690389Y-32309627I0J-1569200D01*
G01*
X50549000Y-128238810D02*
G75*
G02*
X50999997Y-127149997I1539800J10D01*
G01*
X158200000Y-36203982D02*
G75*
G03*
X153846018Y-31850000I-4354000J-18D01*
G01*
X50800000Y-37701472D02*
G75*
G03*
X51399992Y-39150008I2048500J-28D01*
G01*
%LPD*%
M02*
