%TF.GenerationSoftware,KiCad,Pcbnew,9.0.3*%
%TF.CreationDate,2025-07-28T11:42:38+02:00*%
%TF.ProjectId,HUB_MPE,4855425f-4d50-4452-9e6b-696361645f70,0.1*%
%TF.SameCoordinates,Original*%
%TF.FileFunction,Profile,NP*%
%FSLAX46Y46*%
G04 Gerber Fmt 4.6, Leading zero omitted, Abs format (unit mm)*
G04 Created by KiCad (PCBNEW 9.0.3) date 2025-07-28 11:42:38*
%MOMM*%
%LPD*%
G01*
G04 APERTURE LIST*
%TA.AperFunction,Profile*%
%ADD10C,0.200000*%
%TD*%
%TA.AperFunction,Profile*%
%ADD11C,0.050000*%
%TD*%
%TA.AperFunction,Profile*%
%ADD12C,0.100000*%
%TD*%
G04 APERTURE END LIST*
D10*
X146611562Y-90786702D02*
G75*
G02*
X144782763Y-88009432I1171238J2762002D01*
G01*
D11*
X72800000Y-54400000D02*
G75*
G02*
X73800000Y-55400000I0J-1000000D01*
G01*
D10*
X144782777Y-78363729D02*
G75*
G02*
X146613806Y-75600772I3000223J-71D01*
G01*
X94995113Y-34800000D02*
G75*
G02*
X92698474Y-33730158I-13J3000000D01*
G01*
X55775839Y-45031527D02*
X48312329Y-41118341D01*
X146613810Y-75600781D02*
X155200079Y-71914049D01*
X144782777Y-83247529D02*
X144782777Y-78363729D01*
D11*
X110100000Y-90100000D02*
X111200000Y-90100000D01*
D10*
X67525000Y-64450000D02*
X67525000Y-67185786D01*
X85037258Y-70304205D02*
X84966548Y-70233495D01*
X72239214Y-71900000D02*
G75*
G02*
X71532100Y-71607114I-14J1000000D01*
G01*
D12*
X107314213Y-108371573D02*
X107314213Y-108114214D01*
D10*
X41832777Y-131251334D02*
X41832777Y-133247530D01*
D11*
X72800000Y-58400000D02*
X65700000Y-58400000D01*
X129200000Y-60700000D02*
G75*
G02*
X130200000Y-59700000I1000000J0D01*
G01*
D10*
X87512132Y-67829332D02*
G75*
G02*
X87512179Y-68112221I-141332J-141468D01*
G01*
D11*
X117414214Y-59100000D02*
G75*
G02*
X116707100Y-57392886I-14J1000000D01*
G01*
D12*
X108514213Y-105671573D02*
X108514213Y-105428427D01*
D10*
X44528802Y-126813800D02*
X55765164Y-120979860D01*
D11*
X124900000Y-58100000D02*
X124900000Y-52700000D01*
D10*
X92110570Y-33030611D02*
X92698483Y-33730151D01*
D12*
X107607106Y-107407107D02*
X107928427Y-107085786D01*
D11*
X64700000Y-55400000D02*
G75*
G02*
X65700000Y-54400000I1000000J0D01*
G01*
D12*
X98014213Y-105200000D02*
X98014213Y-107100000D01*
D11*
X109100000Y-96800000D02*
X109100000Y-91100000D01*
X99100000Y-82200000D02*
G75*
G02*
X98100000Y-83200000I-1000000J0D01*
G01*
D12*
X107928426Y-104014213D02*
G75*
G02*
X108514231Y-105428427I-1414326J-1414287D01*
G01*
X108514213Y-105671573D02*
G75*
G02*
X107928423Y-107085782I-1999913J-27D01*
G01*
D10*
X72956286Y-70178516D02*
G75*
G02*
X72263855Y-71899969I-692386J-721484D01*
G01*
X55775839Y-45031528D02*
G75*
G02*
X57382810Y-47688475I-1393039J-2656972D01*
G01*
X87441422Y-67758622D02*
X87512132Y-67829332D01*
D11*
X111200000Y-90100000D02*
G75*
G02*
X112200000Y-91100000I0J-1000000D01*
G01*
X65700000Y-54400000D02*
X72800000Y-54400000D01*
X133200000Y-67800000D02*
G75*
G02*
X132200000Y-68800000I-1000000J0D01*
G01*
D10*
X88282850Y-31247529D02*
X46477750Y-31247529D01*
X72239214Y-71900000D02*
X72263855Y-71900000D01*
D11*
X132200000Y-68799999D02*
X130200000Y-68800000D01*
X91000000Y-79200000D02*
X98100000Y-79200000D01*
D12*
X107428427Y-111885786D02*
G75*
G02*
X104599987Y-111885800I-1414227J1414186D01*
G01*
D11*
X123900000Y-51700000D02*
G75*
G02*
X124900000Y-52700000I0J-1000000D01*
G01*
D10*
X85320101Y-70304205D02*
G75*
G02*
X85037258Y-70304205I-141421J141424D01*
G01*
X84966548Y-70233495D02*
G75*
G02*
X84966574Y-69950678I141552J141395D01*
G01*
X108611026Y-33591796D02*
X108857212Y-33261204D01*
X41846390Y-35878820D02*
G75*
G02*
X46477750Y-31247537I4808830J-177550D01*
G01*
D11*
X123485786Y-62700000D02*
X118814214Y-62700000D01*
X109100000Y-91100000D02*
G75*
G02*
X110100000Y-90100000I1000000J0D01*
G01*
D10*
X67817893Y-67892893D02*
G75*
G02*
X67525010Y-67185786I707107J707093D01*
G01*
X158832777Y-66400849D02*
X158832777Y-36247529D01*
D12*
X107314213Y-108114214D02*
G75*
G02*
X107607102Y-107407103I999987J14D01*
G01*
D11*
X112200000Y-96800000D02*
G75*
G02*
X111200000Y-97800000I-1000000J0D01*
G01*
X120514214Y-66400000D02*
X123485786Y-66400000D01*
X116327565Y-54027565D02*
G75*
G02*
X114913351Y-54027565I-707107J707108D01*
G01*
X124192893Y-66107107D02*
X124807107Y-65492893D01*
X124900000Y-58100000D02*
G75*
G02*
X123900000Y-59100000I-1000000J0D01*
G01*
D10*
X153832777Y-31247529D02*
X112867437Y-31247529D01*
X84966548Y-69950652D02*
X87158579Y-67758621D01*
X87158579Y-67758621D02*
G75*
G02*
X87441422Y-67758622I141421J-141379D01*
G01*
D11*
X118107107Y-64407107D02*
G75*
G02*
X118814214Y-62700010I707093J707107D01*
G01*
D10*
X155175159Y-94418097D02*
X146611562Y-90786702D01*
D11*
X130200000Y-59700000D02*
X132200000Y-59700000D01*
D10*
X88282850Y-31247529D02*
G75*
G02*
X92110591Y-33030593I50J-4999971D01*
G01*
D11*
X73800000Y-55400000D02*
X73800000Y-57400000D01*
D10*
X158832777Y-133247529D02*
X158832777Y-99941977D01*
D12*
X100014213Y-109100000D02*
G75*
G02*
X98014200Y-107100000I-13J2000000D01*
G01*
X107928426Y-104014213D02*
X107699999Y-103785786D01*
D11*
X111200000Y-97800000D02*
X110100000Y-97800000D01*
X112721320Y-46178680D02*
X117741778Y-51199138D01*
X91000000Y-83200000D02*
G75*
G02*
X90000000Y-82200000I0J1000000D01*
G01*
X98100000Y-83200000D02*
X91000000Y-83200000D01*
X64700000Y-57400000D02*
X64700000Y-55400000D01*
D10*
X67817893Y-67892893D02*
X71532107Y-71607107D01*
D12*
X106285786Y-103200000D02*
X100014213Y-103200000D01*
D11*
X112200000Y-91100000D02*
X112200000Y-96800000D01*
X133200000Y-60700000D02*
X133200000Y-67800000D01*
D10*
X71025000Y-67898700D02*
X71025000Y-64450000D01*
D12*
X106285786Y-103200000D02*
G75*
G02*
X107700006Y-103785779I14J-2000000D01*
G01*
D10*
X144782777Y-88009432D02*
X144782777Y-83247529D01*
X94995113Y-34800000D02*
X106204887Y-34800000D01*
X57382777Y-47688475D02*
X57382777Y-118317342D01*
D11*
X90000000Y-80200000D02*
G75*
G02*
X91000000Y-79200000I1000000J0D01*
G01*
D10*
X70025000Y-63450000D02*
G75*
G02*
X71025000Y-64450000I0J-1000000D01*
G01*
D12*
X102400000Y-109685787D02*
X104600000Y-111885787D01*
D11*
X123900000Y-51700000D02*
X122814214Y-51700000D01*
D12*
X107899999Y-109785786D02*
G75*
G02*
X107314187Y-108371573I1414301J1414286D01*
G01*
D11*
X124807107Y-63607107D02*
X124192893Y-62992893D01*
D12*
X108007106Y-109892893D02*
G75*
G02*
X108007106Y-111307107I-707106J-707107D01*
G01*
D10*
X72956286Y-70178516D02*
X71332569Y-68620184D01*
X46832778Y-138247529D02*
X153832777Y-138247529D01*
D11*
X124807107Y-63607107D02*
G75*
G02*
X125099961Y-64314214I-707207J-707093D01*
G01*
D10*
X155175159Y-94418097D02*
G75*
G02*
X158832813Y-99941977I-2342359J-5523903D01*
G01*
X108611026Y-33591796D02*
G75*
G02*
X106204887Y-34799996I-2406126J1791796D01*
G01*
D11*
X90000000Y-82200000D02*
X90000000Y-80200000D01*
D10*
X57382777Y-118317342D02*
G75*
G02*
X55765163Y-120979858I-2999997J2D01*
G01*
D11*
X132200000Y-59700000D02*
G75*
G02*
X133200000Y-60700000I0J-1000000D01*
G01*
D10*
X46238878Y-40474713D02*
G75*
G02*
X41846386Y-35878820I392982J4772583D01*
G01*
D12*
X100985786Y-109100000D02*
G75*
G02*
X102399986Y-109685801I14J-1999900D01*
G01*
D11*
X124192893Y-66107107D02*
G75*
G02*
X123485786Y-66399961I-707093J707207D01*
G01*
D10*
X41832777Y-131251334D02*
G75*
G02*
X44528800Y-126813796I5000003J4D01*
G01*
D11*
X114913351Y-54027565D02*
X109892893Y-49007107D01*
D10*
X153832777Y-31247529D02*
G75*
G02*
X158832771Y-36247529I23J-4999971D01*
G01*
D11*
X125100000Y-64785786D02*
G75*
G02*
X124807114Y-65492900I-1000000J-14D01*
G01*
X99100000Y-80200000D02*
X99100000Y-82200000D01*
D10*
X46238878Y-40474713D02*
G75*
G02*
X48312332Y-41118335I-712678J-5957587D01*
G01*
D11*
X125100000Y-64785786D02*
X125100000Y-64314214D01*
D10*
X70025000Y-63450000D02*
X68525000Y-63450000D01*
D11*
X130200000Y-68800000D02*
G75*
G02*
X129200000Y-67800000I0J1000000D01*
G01*
D10*
X67525000Y-64450000D02*
G75*
G02*
X68525000Y-63450000I1000000J0D01*
G01*
D11*
X111307107Y-46178680D02*
G75*
G02*
X112721321Y-46178679I707107J-707103D01*
G01*
X122107107Y-51992893D02*
G75*
G02*
X122814214Y-51700010I707093J-707107D01*
G01*
D12*
X108007106Y-109892893D02*
X107899999Y-109785786D01*
X100014213Y-109100000D02*
X100985786Y-109100000D01*
D11*
X129200000Y-67800000D02*
X129200000Y-60700000D01*
X117741778Y-51199138D02*
G75*
G02*
X117741734Y-52613306I-707078J-707062D01*
G01*
D10*
X87512132Y-68112174D02*
X85320101Y-70304205D01*
X46832778Y-138247529D02*
G75*
G02*
X41832771Y-133247530I22J5000029D01*
G01*
D11*
X117414214Y-59100000D02*
X123900000Y-59100000D01*
X73800000Y-57400000D02*
G75*
G02*
X72800000Y-58400000I-1000000J0D01*
G01*
D12*
X107428427Y-111885786D02*
X108007106Y-111307107D01*
X98014213Y-105200000D02*
G75*
G02*
X100014213Y-103200013I1999987J0D01*
G01*
D11*
X109892893Y-49007107D02*
G75*
G02*
X109892893Y-47592893I707107J707107D01*
G01*
D10*
X108857212Y-33261204D02*
G75*
G02*
X112867437Y-31247543I4010188J-2986296D01*
G01*
D11*
X118107107Y-64407107D02*
X119807107Y-66107107D01*
X110100000Y-97800000D02*
G75*
G02*
X109100000Y-96800000I0J1000000D01*
G01*
X123485786Y-62700000D02*
G75*
G02*
X124192900Y-62992886I14J-1000000D01*
G01*
X117741778Y-52613351D02*
X116327565Y-54027565D01*
D10*
X158832777Y-66400849D02*
G75*
G02*
X155200079Y-71914048I-5999927J-1D01*
G01*
X158832777Y-133247529D02*
G75*
G02*
X153832777Y-138247477I-4999977J29D01*
G01*
D11*
X65700000Y-58400000D02*
G75*
G02*
X64700000Y-57400000I0J1000000D01*
G01*
X98100000Y-79200000D02*
G75*
G02*
X99100000Y-80200000I0J-1000000D01*
G01*
X122107107Y-51992893D02*
X116707107Y-57392893D01*
X120514214Y-66400000D02*
G75*
G02*
X119807121Y-66107093I-14J999900D01*
G01*
D10*
X71332569Y-68620184D02*
G75*
G02*
X71025000Y-67898700I692431J721484D01*
G01*
D11*
X109892893Y-47592893D02*
X111307107Y-46178680D01*
M02*
