M48
; DRILL file {KiCad 9.0.0} date 2025-04-03T12:13:19+0200
; FORMAT={-:-/ absolute / inch / decimal}
; #@! TF.CreationDate,2025-04-03T12:13:19+02:00
; #@! TF.GenerationSoftware,Kicad,Pcbnew,9.0.0
; #@! TF.FileFunction,Plated,1,4,PTH
FMAT,2
INCH
; #@! TA.AperFunction,Plated,PTH,ViaDrill
T1C0.0118
; #@! TA.AperFunction,Plated,PTH,ComponentDrill
T2C0.0118
; #@! TA.AperFunction,Plated,PTH,ComponentDrill
T3C0.0197
; #@! TA.AperFunction,Plated,PTH,ComponentDrill
T4C0.0374
; #@! TA.AperFunction,Plated,PTH,ComponentDrill
T5C0.0394
; #@! TA.AperFunction,Plated,PTH,ComponentDrill
T6C0.0433
; #@! TA.AperFunction,Plated,PTH,ComponentDrill
T7C0.0669
; #@! TA.AperFunction,Plated,PTH,ComponentDrill
T8C0.1260
%
G90
G05
T1
X1.2156Y-4.2701
X1.2156Y-4.4276
X1.2156Y-4.585
X1.2156Y-4.7425
X1.2156Y-4.9
X1.373Y-3.4827
X1.373Y-3.6402
X1.373Y-3.7976
X1.373Y-3.9551
X1.373Y-4.1126
X1.373Y-4.2701
X1.373Y-4.4276
X1.373Y-4.585
X1.373Y-4.7425
X1.373Y-4.9
X1.373Y-5.0575
X1.5305Y-3.4827
X1.5305Y-3.6402
X1.5305Y-3.7976
X1.5305Y-3.9551
X1.5305Y-4.1126
X1.5305Y-4.2701
X1.5305Y-4.4276
X1.5305Y-4.585
X1.5305Y-4.7425
X1.5305Y-4.9
X1.5305Y-5.0575
X1.5305Y-5.215
X1.5305Y-5.3724
X1.688Y-3.4827
X1.688Y-3.6402
X1.688Y-3.7976
X1.688Y-3.9551
X1.688Y-4.1126
X1.688Y-4.2701
X1.688Y-4.4276
X1.688Y-4.585
X1.688Y-4.7425
X1.688Y-4.9
X1.688Y-5.0575
X1.688Y-5.215
X1.688Y-5.3724
X1.8455Y-3.4827
X1.8455Y-3.6402
X1.8455Y-3.7976
X1.8455Y-3.9551
X1.8455Y-4.1126
X1.8455Y-4.2701
X1.8455Y-4.4276
X1.8455Y-4.585
X1.8455Y-4.7425
X1.8455Y-4.9
X1.8455Y-5.0575
X1.8455Y-5.215
X1.8455Y-5.3724
X2.003Y-3.4827
X2.003Y-4.4276
X2.003Y-4.585
X2.003Y-4.7425
X2.003Y-4.9
X2.003Y-5.0575
X2.1604Y-3.4827
X2.1604Y-3.6402
X2.1604Y-3.9551
X2.1604Y-4.1126
X2.1604Y-4.4276
X2.1604Y-4.585
X2.1604Y-4.7425
X2.1604Y-4.9
X2.1604Y-5.0575
X2.3179Y-1.1205
X2.3179Y-1.278
X2.3179Y-1.4354
X2.3179Y-1.5929
X2.3179Y-1.7504
X2.3179Y-1.9079
X2.3179Y-2.3803
X2.3179Y-2.5378
X2.3179Y-2.6953
X2.3179Y-2.8528
X2.3179Y-3.0102
X2.3179Y-3.1677
X2.3179Y-3.3252
X2.3179Y-3.4827
X2.3179Y-3.6402
X2.3179Y-3.9551
X2.3179Y-4.1126
X2.3179Y-4.4276
X2.3179Y-4.585
X2.3179Y-4.7425
X2.3179Y-4.9
X2.3179Y-5.0575
X2.3179Y-5.215
X2.3179Y-5.3724
X2.4754Y-1.1205
X2.4754Y-1.278
X2.4754Y-1.4354
X2.4754Y-1.9079
X2.4754Y-2.3803
X2.4754Y-2.5378
X2.4754Y-2.6953
X2.4754Y-2.8528
X2.4754Y-3.0102
X2.4754Y-3.1677
X2.4754Y-3.3252
X2.4754Y-3.4827
X2.4754Y-3.6402
X2.4754Y-3.9551
X2.4754Y-4.1126
X2.4754Y-4.4276
X2.6329Y-1.1205
X2.6329Y-2.0654
X2.6329Y-2.2228
X2.6329Y-4.1126
X2.6329Y-4.4276
X2.7904Y-1.1205
X2.7904Y-1.9079
X2.7904Y-2.0654
X2.7904Y-2.6953
X2.7904Y-2.8528
X2.7904Y-3.3252
X2.7904Y-3.4827
X2.7904Y-3.6402
X2.7904Y-3.9551
X2.7904Y-4.1126
X2.7904Y-4.4276
X2.9478Y-1.1205
X2.9478Y-2.8528
X2.9478Y-3.1677
X2.9478Y-3.3252
X2.9478Y-3.4827
X2.9478Y-3.6402
X2.9478Y-3.9551
X2.9478Y-4.1126
X2.9478Y-4.4276
X2.9478Y-4.585
X2.9478Y-5.215
X2.9478Y-5.3724
X2.9705Y-4.9783
X2.9744Y-4.6713
X3.1043Y-5.0827
X3.1053Y-1.1205
X3.1053Y-2.2228
X3.1053Y-2.6953
X3.1053Y-3.3252
X3.1053Y-3.4827
X3.1053Y-3.6402
X3.1053Y-3.9551
X3.1053Y-4.1126
X3.1053Y-5.3724
X3.1063Y-4.7719
X3.2028Y-2.4606
X3.2165Y-4.872
X3.2165Y-4.9114
X3.2362Y-4.998
X3.2598Y-4.872
X3.2598Y-4.9114
X3.2628Y-1.4354
X3.2628Y-1.5929
X3.2628Y-1.7504
X3.2628Y-2.0654
X3.2628Y-3.1677
X3.2628Y-3.4827
X3.2628Y-3.6402
X3.2628Y-3.9551
X3.2628Y-4.1126
X3.2628Y-4.2701
X3.2953Y-5.0709
X3.3071Y-5.3583
X3.3149Y-2.2775
X3.3524Y-5.0759
X3.3691Y-2.6378
X3.3691Y-2.6762
X3.376Y-5.0591
X3.3818Y-2.2795
X3.3819Y-2.3307
X3.3819Y-2.3671
X3.3878Y-2.4331
X3.3927Y-2.6555
X3.4085Y-2.2421
X3.4134Y-4.872
X3.4134Y-4.9114
X3.4203Y-1.5929
X3.4203Y-1.9079
X3.4203Y-2.8528
X3.4281Y-2.5689
X3.4352Y-2.3563
X3.44Y-2.3327
X3.4439Y-2.2136
X3.4439Y-2.2411
X3.4498Y-4.872
X3.4498Y-4.9114
X3.4508Y-4.998
X3.4587Y-2.4921
X3.4615Y-2.1901
X3.4848Y-2.1749
X3.4961Y-5.3268
X3.5039Y-2.1486
X3.5217Y-1.936
X3.5291Y-2.1283
X3.5523Y-2.3386
X3.5732Y-2.3177
X3.5732Y-2.3595
X3.5778Y-1.7504
X3.5778Y-2.5187
X3.5778Y-2.6953
X3.5778Y-3.7976
X3.5778Y-3.9551
X3.5778Y-4.1126
X3.5778Y-5.3724
X3.5941Y-2.2968
X3.5941Y-2.3386
X3.5941Y-2.3803
X3.6063Y-2.5315
X3.6122Y-2.0974
X3.6146Y-4.8089
X3.6149Y-2.2759
X3.6149Y-2.3177
X3.6149Y-2.3595
X3.6149Y-2.4012
X3.6181Y-5.1417
X3.6358Y-2.2968
X3.6358Y-2.3386
X3.6358Y-2.3803
X3.6567Y-2.3177
X3.6567Y-2.3595
X3.6752Y-2.1545
X3.6776Y-2.3386
X3.6978Y-1.813
X3.7264Y-2.2126
X3.7352Y-0.963
X3.7352Y-1.1205
X3.7352Y-1.5929
X3.7352Y-1.7504
X3.7352Y-2.8528
X3.7352Y-3.4827
X3.7352Y-5.3724
X3.748Y-5.2638
X3.7625Y-2.5295
X3.7805Y-2.3346
X3.7835Y-4.8504
X3.8004Y-2.5067
X3.813Y-2.4713
X3.8927Y-0.963
X3.8927Y-1.1205
X3.8927Y-4.1126
X3.8927Y-4.2701
X3.8927Y-4.585
X3.8927Y-4.7425
X3.8927Y-4.9
X3.8927Y-5.0575
X3.8927Y-5.215
X3.8927Y-5.3724
X3.9045Y-2.2717
X3.9203Y-2.3504
X4.0415Y-2.8888
X4.0502Y-0.963
X4.0502Y-1.1205
X4.0502Y-2.2228
X4.0502Y-2.5378
X4.0502Y-2.6953
X4.0502Y-3.1677
X4.0502Y-3.6402
X4.0502Y-3.9551
X4.0502Y-4.2701
X4.1398Y-2.8917
X4.2077Y-0.963
X4.2077Y-1.1205
X4.2234Y-3.3632
X4.2313Y-4.3711
X4.2402Y-2.8898
X4.3366Y-2.8898
X4.3652Y-0.963
X4.3652Y-1.1205
X4.3652Y-4.1126
X4.4331Y-2.8907
X4.4833Y-4.7549
X4.4846Y-4.9026
X4.4892Y-5.0541
X4.497Y-3.3356
X4.5226Y-0.963
X4.5226Y-1.1205
X4.5226Y-1.7504
X4.5226Y-1.9079
X4.5226Y-2.2228
X4.5226Y-3.9551
X4.5226Y-4.1126
X4.5226Y-4.2701
X4.5285Y-2.8898
X4.6801Y-0.963
X4.6801Y-1.1205
X4.6801Y-2.0654
X4.6801Y-2.2228
X4.6801Y-2.5378
X4.6801Y-2.6953
X4.6801Y-3.3252
X4.6801Y-3.4827
X4.6801Y-3.6402
X4.6801Y-4.1126
X4.6801Y-4.2701
X4.6801Y-4.585
X4.7169Y-5.0923
X4.7691Y-3.7217
X4.8376Y-3.1677
X4.8376Y-3.3252
X4.8376Y-3.4827
X4.8376Y-3.6402
X4.8376Y-4.1126
X4.8376Y-5.215
X4.8376Y-5.3724
X4.874Y-4.2165
X4.8819Y-4.8291
X4.8822Y-4.9791
X4.9035Y-4.2579
X4.9567Y-3.6909
X4.9823Y-4.1043
X4.9951Y-1.4354
X4.9951Y-1.5929
X4.9951Y-3.0102
X4.9951Y-3.1677
X4.9951Y-3.3252
X4.9951Y-3.4827
X4.9951Y-5.215
X4.9951Y-5.3724
X5.0217Y-4.063
X5.0681Y-4.1157
X5.0787Y-4.0079
X5.0827Y-4.2382
X5.0889Y-4.0948
X5.0889Y-4.1366
X5.1098Y-4.074
X5.1098Y-4.1157
X5.1098Y-4.1575
X5.1307Y-4.0531
X5.1307Y-4.0948
X5.1307Y-4.1366
X5.1307Y-4.1784
X5.1398Y-4.2579
X5.1516Y-4.074
X5.1516Y-4.1157
X5.1516Y-4.1575
X5.1526Y-5.215
X5.1526Y-5.3724
X5.1594Y-4.3524
X5.1644Y-4.2333
X5.1725Y-4.0948
X5.1725Y-4.1366
X5.1933Y-4.1157
X5.2096Y-4.9764
X5.2214Y-5.0394
X5.2417Y-4.3094
X5.2992Y-3.6457
X5.31Y-1.1205
X5.31Y-1.5929
X5.31Y-2.0654
X5.31Y-3.3252
X5.312Y-5.0394
X5.312Y-4.6368
X5.3376Y-4.2884
X5.3413Y-4.2138
X5.3425Y-4.6378
X5.3622Y-4.2608
X5.3701Y-4.1914
X5.378Y-4.6378
X5.3809Y-4.2362
X5.4094Y-4.6378
X5.4429Y-4.6378
X5.4454Y-2.155
X5.4567Y-4.0413
X5.4675Y-1.5929
X5.4675Y-2.8528
X5.4675Y-3.4827
X5.4764Y-4.6378
X5.5433Y-2.4764
X5.5433Y-2.5157
X5.563Y-2.4961
X5.565Y-3.4587
X5.565Y-3.5217
X5.5827Y-2.4764
X5.5827Y-2.5157
X5.625Y-1.278
X5.625Y-1.4354
X5.625Y-1.5929
X5.625Y-2.8528
X5.625Y-3.6402
X5.625Y-4.7425
X5.6535Y-4.1304
X5.6663Y-4.4537
X5.6752Y-2.7972
X5.688Y-4.4744
X5.7077Y-4.4961
X5.7254Y-4.5197
X5.7264Y-2.1762
X5.7461Y-4.5433
X5.7677Y-2.6929
X5.7815Y-4.7382
X5.7815Y-4.7717
X5.7825Y-1.5929
X5.7825Y-2.8528
X5.7825Y-3.7976
X5.7923Y-4.4331
X5.8228Y-2.1486
X5.8563Y-2.4449
X5.8563Y-2.6339
X5.8661Y-4.9537
X5.8878Y-3.4902
X5.9173Y-2.498
X5.9341Y-2.5482
X5.94Y-2.8528
X5.94Y-3.4827
X5.94Y-3.7976
X5.94Y-4.1126
X5.9524Y-2.2427
X5.9557Y-2.5776
X5.9587Y-2.5148
X5.9744Y-2.7972
X5.9931Y-4.4557
X6.0423Y-4.6516
X6.0423Y-4.7303
X6.064Y-4.8524
X6.0669Y-2.6654
X6.0876Y-5.0787
X6.0974Y-1.1205
X6.0974Y-1.278
X6.0974Y-2.2228
X6.0974Y-2.8528
X6.0974Y-4.1126
X6.0974Y-4.4276
X6.1319Y-2.3976
X6.1575Y-2.5772
X6.2392Y-4.8888
X6.2441Y-4.9429
T2
X3.2972Y-4.872
X3.2972Y-4.9114
X3.3366Y-4.872
X3.3366Y-4.9114
X3.376Y-4.872
X3.376Y-4.9114
X5.7303Y-2.498
X5.7303Y-2.5768
X5.7303Y-2.5374
X5.7697Y-2.5374
X5.7697Y-2.498
X5.7697Y-2.5768
T3
X1.9921Y-5.315
X2.0198Y-5.2481
X2.0198Y-5.3818
X2.0866Y-5.2205
X2.0866Y-5.4094
X2.1534Y-5.2481
X2.1534Y-5.3818
X2.1811Y-5.315
X2.3071Y-2.126
X2.3348Y-2.0592
X2.3348Y-2.1928
X2.4016Y-2.0315
X2.4016Y-2.2205
X2.4684Y-2.0592
X2.4684Y-2.1928
X2.4961Y-2.126
X4.4921Y-5.315
X4.5198Y-5.2481
X4.5198Y-5.3818
X4.5866Y-5.2205
X4.5866Y-5.4094
X4.6534Y-5.2481
X4.6534Y-5.3818
X4.6811Y-5.315
X6.0276Y-1.4764
X6.0552Y-1.4096
X6.0552Y-1.5432
X6.122Y-1.3819
X6.122Y-1.5709
X6.1889Y-1.4096
X6.1889Y-1.5432
X6.2165Y-1.4764
T4
X2.5551Y-1.2421
X2.6535Y-1.2421
X2.752Y-1.2421
X2.7972Y-3.0207
X2.7972Y-3.1191
X2.7972Y-3.2175
X2.8504Y-1.2421
X2.9488Y-1.2421
X3.0472Y-1.2421
X3.1457Y-1.2421
X4.7746Y-2.2648
X4.7746Y-2.3632
X4.7746Y-2.4616
X4.7746Y-2.56
X4.7746Y-2.6585
X4.7746Y-2.7569
T5
X5.7963Y-1.2583
X5.7963Y-1.3583
X5.7963Y-1.4583
T6
X6.1555Y-3.4949
X6.1555Y-3.5949
X6.1555Y-3.6949
X6.1555Y-3.7949
T7
X2.0079Y-3.6283
X2.0079Y-3.7843
X2.0079Y-3.9402
X2.0079Y-4.0961
X2.0079Y-4.252
X3.4449Y-3.6283
X3.4449Y-3.7843
X3.4449Y-3.9402
X3.4449Y-4.0961
X3.4449Y-4.252
X3.4705Y-1.373
X3.6264Y-1.373
X3.7823Y-1.373
X3.9382Y-1.373
X4.0941Y-1.373
X4.25Y-1.373
X4.4059Y-1.373
X4.5618Y-1.373
X4.7177Y-1.373
T8
X2.0866Y-5.315
X2.4016Y-2.126
X4.5866Y-5.315
X6.122Y-1.4764
M30
