%TF.GenerationSoftware,KiCad,Pcbnew,9.0.0*%
%TF.CreationDate,2025-04-04T21:43:02+02:00*%
%TF.ProjectId,HUB_MPE,4855425f-4d50-4452-9e6b-696361645f70,0.1*%
%TF.SameCoordinates,Original*%
%TF.FileFunction,Profile,NP*%
%FSLAX46Y46*%
G04 Gerber Fmt 4.6, Leading zero omitted, Abs format (unit mm)*
G04 Created by KiCad (PCBNEW 9.0.0) date 2025-04-04 21:43:02*
%MOMM*%
%LPD*%
G01*
G04 APERTURE LIST*
%TA.AperFunction,Profile*%
%ADD10C,0.250000*%
%TD*%
%TA.AperFunction,Profile*%
%ADD11C,0.100000*%
%TD*%
G04 APERTURE END LIST*
D10*
X32734124Y-129239988D02*
G75*
G02*
X28802535Y-124355464I1068376J4884488D01*
G01*
X74808000Y-138285250D02*
G75*
G02*
X72807950Y-136285200I-100J1999950D01*
G01*
X100250000Y-117161100D02*
G75*
G02*
X102245102Y-115161106I2000000J0D01*
G01*
X130733735Y-28810601D02*
G75*
G02*
X135426088Y-27756605I3306965J-3750399D01*
G01*
X149757238Y-134353626D02*
G75*
G02*
X154870884Y-129240025I6545362J-1431774D01*
G01*
X61150000Y-136285300D02*
X61150000Y-117161100D01*
X137626000Y-53250000D02*
G75*
G02*
X135625857Y-51264866I0J2000200D01*
G01*
X70807900Y-115161107D02*
X63145102Y-115161107D01*
X109907900Y-115161107D02*
G75*
G02*
X111907867Y-117171297I0J-1999993D01*
G01*
X158750000Y-71592100D02*
G75*
G02*
X156733652Y-73592135I-2000200J100D01*
G01*
X137643235Y-41592133D02*
X156773164Y-41592133D01*
X156304900Y-28285250D02*
G75*
G02*
X158802537Y-30775043I-100J-2497750D01*
G01*
X33302389Y-89256721D02*
X33302500Y-102785135D01*
X33302389Y-89256721D02*
G75*
G02*
X35805990Y-86756091I2500611J21D01*
G01*
X77178923Y-27756644D02*
G75*
G02*
X81871272Y-28810593I1385477J-4804156D01*
G01*
X135625857Y-43592100D02*
G75*
G02*
X137643235Y-41592132I2000043J0D01*
G01*
X50798807Y-86765381D02*
X35805990Y-86756078D01*
X111907867Y-117171297D02*
X111907867Y-136285200D01*
X100250000Y-136285300D02*
G75*
G02*
X98250000Y-138285200I-1999900J0D01*
G01*
X135625857Y-43592100D02*
X135625857Y-51264866D01*
D11*
X105325000Y-52900000D02*
X114875000Y-52900000D01*
D10*
X100250000Y-117161100D02*
X100250000Y-136285300D01*
X149757238Y-134353626D02*
G75*
G02*
X144899246Y-138285270I-4884738J1068526D01*
G01*
X113908000Y-138285250D02*
X144899246Y-138285250D01*
X135625857Y-75592100D02*
G75*
G02*
X137608365Y-73592134I2000043J0D01*
G01*
X137626000Y-53250000D02*
X156750000Y-53250000D01*
X56802500Y-80765410D02*
G75*
G02*
X50798807Y-86765379I-5999970J0D01*
G01*
X158759657Y-39601816D02*
X158802538Y-30775043D01*
X42732300Y-138285250D02*
G75*
G02*
X37847737Y-134353631I0J5000050D01*
G01*
X32734124Y-129239988D02*
G75*
G02*
X37847762Y-134353626I-1431624J-6545262D01*
G01*
X137626000Y-85250000D02*
G75*
G02*
X135625857Y-83264866I0J2000200D01*
G01*
X98250000Y-138285250D02*
X74808000Y-138285250D01*
X92807809Y-25388669D02*
G75*
G02*
X81871263Y-28810603I-6505289J1603349D01*
G01*
X61150000Y-117161100D02*
G75*
G02*
X63145102Y-115161106I2000000J0D01*
G01*
X137626000Y-85250000D02*
X156752700Y-85250000D01*
X56802500Y-30785160D02*
G75*
G02*
X59302410Y-28285250I2499910J0D01*
G01*
X158759657Y-39601816D02*
G75*
G02*
X156773164Y-41592134I-2000157J9816D01*
G01*
X114942500Y-21585250D02*
G75*
G02*
X119797244Y-25388656I0J-5000050D01*
G01*
X33302500Y-102785135D02*
G75*
G02*
X32177501Y-105127125I-3000190J-25D01*
G01*
X61150000Y-136285300D02*
G75*
G02*
X59150000Y-138285200I-1999900J0D01*
G01*
X28802500Y-112152750D02*
X28802500Y-124355464D01*
X109907900Y-115161107D02*
X102245102Y-115161107D01*
X156752700Y-85250000D02*
G75*
G02*
X158752692Y-87255561I0J-2000000D01*
G01*
X158752692Y-87255561D02*
X158802500Y-124356459D01*
X158750000Y-55250000D02*
X158750000Y-71592100D01*
D11*
X115225000Y-53250000D02*
G75*
G02*
X114875000Y-53600000I-350000J0D01*
G01*
D10*
X156750000Y-53250000D02*
G75*
G02*
X158750000Y-55250000I0J-2000000D01*
G01*
D11*
X104975000Y-53250000D02*
G75*
G02*
X105325000Y-52900000I350000J0D01*
G01*
D10*
X77178923Y-27756644D02*
G75*
G02*
X73438200Y-28285251I-3740723J12971444D01*
G01*
X156733652Y-73592133D02*
X137608365Y-73592133D01*
D11*
X114875000Y-52900000D02*
G75*
G02*
X115225000Y-53250000I0J-350000D01*
G01*
D10*
X113908000Y-138285250D02*
G75*
G02*
X111907950Y-136285200I-100J1999950D01*
G01*
X97662600Y-21585250D02*
X114942500Y-21585250D01*
D11*
X114875000Y-53600000D02*
X105325000Y-53600000D01*
D10*
X42732300Y-138285250D02*
X59150000Y-138285250D01*
X92807809Y-25388669D02*
G75*
G02*
X97662600Y-21585305I4854691J-1196631D01*
G01*
X135625857Y-75592100D02*
X135625857Y-83264866D01*
X56802500Y-30785160D02*
X56802500Y-80765410D01*
D11*
X105325000Y-53600000D02*
G75*
G02*
X104975000Y-53250000I0J350000D01*
G01*
D10*
X72807867Y-117171297D02*
X72807867Y-136285200D01*
X28802500Y-112152750D02*
G75*
G02*
X32177499Y-105127123I9000010J0D01*
G01*
X73438200Y-28285250D02*
X59302410Y-28285250D01*
X70807900Y-115161107D02*
G75*
G02*
X72807867Y-117171297I0J-1999993D01*
G01*
X130733735Y-28810601D02*
G75*
G02*
X119797216Y-25388663I-4431235J5025301D01*
G01*
X158802500Y-124356459D02*
G75*
G02*
X154870874Y-129239980I-4999200J359D01*
G01*
X139166800Y-28285250D02*
G75*
G02*
X135426077Y-27756643I0J13500050D01*
G01*
X156304900Y-28285250D02*
X139166800Y-28285250D01*
M02*
