%TF.GenerationSoftware,KiCad,Pcbnew,9.0.3*%
%TF.CreationDate,2025-07-28T11:42:38+02:00*%
%TF.ProjectId,HUB_MPE,4855425f-4d50-4452-9e6b-696361645f70,0.1*%
%TF.SameCoordinates,Original*%
%TF.FileFunction,Soldermask,Bot*%
%TF.FilePolarity,Negative*%
%FSLAX46Y46*%
G04 Gerber Fmt 4.6, Leading zero omitted, Abs format (unit mm)*
G04 Created by KiCad (PCBNEW 9.0.3) date 2025-07-28 11:42:38*
%MOMM*%
%LPD*%
G01*
G04 APERTURE LIST*
G04 Aperture macros list*
%AMRoundRect*
0 Rectangle with rounded corners*
0 $1 Rounding radius*
0 $2 $3 $4 $5 $6 $7 $8 $9 X,Y pos of 4 corners*
0 Add a 4 corners polygon primitive as box body*
4,1,4,$2,$3,$4,$5,$6,$7,$8,$9,$2,$3,0*
0 Add four circle primitives for the rounded corners*
1,1,$1+$1,$2,$3*
1,1,$1+$1,$4,$5*
1,1,$1+$1,$6,$7*
1,1,$1+$1,$8,$9*
0 Add four rect primitives between the rounded corners*
20,1,$1+$1,$2,$3,$4,$5,0*
20,1,$1+$1,$4,$5,$6,$7,0*
20,1,$1+$1,$6,$7,$8,$9,0*
20,1,$1+$1,$8,$9,$2,$3,0*%
%AMHorizOval*
0 Thick line with rounded ends*
0 $1 width*
0 $2 $3 position (X,Y) of the first rounded end (center of the circle)*
0 $4 $5 position (X,Y) of the second rounded end (center of the circle)*
0 Add line between two ends*
20,1,$1,$2,$3,$4,$5,0*
0 Add two circle primitives to create the rounded ends*
1,1,$1,$2,$3*
1,1,$1,$4,$5*%
G04 Aperture macros list end*
%ADD10RoundRect,0.250000X-0.250000X-0.475000X0.250000X-0.475000X0.250000X0.475000X-0.250000X0.475000X0*%
%ADD11C,1.900000*%
%ADD12O,2.700000X3.500000*%
%ADD13C,0.610000*%
%ADD14O,3.500000X2.700000*%
%ADD15C,0.800000*%
%ADD16C,6.400000*%
%ADD17C,0.600000*%
%ADD18HorizOval,1.200000X0.106066X-0.106066X-0.106066X0.106066X0*%
%ADD19RoundRect,0.225000X-0.017678X0.335876X-0.335876X0.017678X0.017678X-0.335876X0.335876X-0.017678X0*%
%ADD20R,0.800000X0.400000*%
%ADD21R,0.400000X0.800000*%
%ADD22R,0.800000X0.800000*%
%ADD23R,1.200000X1.200000*%
%ADD24RoundRect,0.200000X0.200000X0.275000X-0.200000X0.275000X-0.200000X-0.275000X0.200000X-0.275000X0*%
%ADD25R,2.400000X2.400000*%
%ADD26RoundRect,0.225000X0.250000X-0.225000X0.250000X0.225000X-0.250000X0.225000X-0.250000X-0.225000X0*%
%ADD27R,0.810000X0.860000*%
%ADD28RoundRect,0.200000X-0.200000X-0.275000X0.200000X-0.275000X0.200000X0.275000X-0.200000X0.275000X0*%
%ADD29RoundRect,0.200000X0.275000X-0.200000X0.275000X0.200000X-0.275000X0.200000X-0.275000X-0.200000X0*%
%ADD30RoundRect,0.225000X0.225000X0.250000X-0.225000X0.250000X-0.225000X-0.250000X0.225000X-0.250000X0*%
%ADD31R,1.100000X1.000000*%
%ADD32RoundRect,0.225000X-0.225000X-0.250000X0.225000X-0.250000X0.225000X0.250000X-0.225000X0.250000X0*%
%ADD33R,1.000000X0.800000*%
%ADD34RoundRect,0.200000X-0.275000X0.200000X-0.275000X-0.200000X0.275000X-0.200000X0.275000X0.200000X0*%
%ADD35RoundRect,0.225000X0.335876X0.017678X0.017678X0.335876X-0.335876X-0.017678X-0.017678X-0.335876X0*%
%ADD36RoundRect,0.225000X-0.250000X0.225000X-0.250000X-0.225000X0.250000X-0.225000X0.250000X0.225000X0*%
%ADD37R,1.540000X2.060000*%
%ADD38RoundRect,0.200000X0.335876X0.053033X0.053033X0.335876X-0.335876X-0.053033X-0.053033X-0.335876X0*%
%ADD39R,0.530000X1.070000*%
%ADD40RoundRect,0.200000X-0.335876X-0.053033X-0.053033X-0.335876X0.335876X0.053033X0.053033X0.335876X0*%
%ADD41R,1.000000X1.100000*%
%ADD42C,0.200000*%
G04 APERTURE END LIST*
D10*
%TO.C,C43*%
X129250000Y-127675000D03*
X131150000Y-127675000D03*
%TD*%
D11*
%TO.C,TP4*%
X88100000Y-119600000D03*
%TD*%
%TO.C,TP5*%
X95700000Y-119700000D03*
%TD*%
D12*
%TO.C,J1*%
X144755000Y-36100000D03*
X140795000Y-36100000D03*
X136835000Y-36100000D03*
X132875000Y-36100000D03*
X128915000Y-36100000D03*
X124955000Y-36100000D03*
X120995000Y-36100000D03*
X117035000Y-36100000D03*
X113075000Y-36100000D03*
%TD*%
%TO.C,J2*%
X126225000Y-46675000D03*
%TD*%
D13*
%TO.C,U6*%
X87600000Y-112800000D03*
X88600000Y-112800000D03*
X87600001Y-111800000D03*
X88599999Y-111800000D03*
X87600000Y-110800000D03*
X88600000Y-110800000D03*
%TD*%
D14*
%TO.C,J6*%
X63200000Y-105195000D03*
X63200000Y-101235000D03*
X63200000Y-97275000D03*
X63200000Y-93314999D03*
X63200000Y-89355001D03*
%TD*%
D12*
%TO.C,J4*%
X55394999Y-36100000D03*
X59354999Y-36100000D03*
X63314999Y-36100000D03*
X67275000Y-36100000D03*
X71234998Y-36100000D03*
X75194999Y-36100000D03*
X79154999Y-36100000D03*
%TD*%
D11*
%TO.C,TP6*%
X103500000Y-119700000D03*
%TD*%
D14*
%TO.C,J5*%
X63225000Y-118365000D03*
X63225000Y-122325000D03*
X63225000Y-126285000D03*
X63225000Y-130245001D03*
X63225000Y-134204999D03*
%TD*%
D13*
%TO.C,U5*%
X133950000Y-48900002D03*
X133950000Y-47900002D03*
X132950000Y-48900001D03*
X132950000Y-47900003D03*
X131950000Y-48900002D03*
X131950000Y-47900002D03*
%TD*%
D15*
%TO.C,H1*%
X44100000Y-36000000D03*
X44802944Y-34302944D03*
X44802944Y-37697056D03*
X46500000Y-33600000D03*
D16*
X46500000Y-36000000D03*
D15*
X46500000Y-38400000D03*
X48197056Y-34302944D03*
X48197056Y-37697056D03*
X48900000Y-36000000D03*
%TD*%
%TO.C,H4*%
X114600000Y-132500000D03*
X115302944Y-130802944D03*
X115302944Y-134197056D03*
X117000000Y-130100000D03*
D16*
X117000000Y-132500000D03*
D15*
X117000000Y-134900000D03*
X118697056Y-130802944D03*
X118697056Y-134197056D03*
X119400000Y-132500000D03*
%TD*%
%TO.C,H2*%
X44100000Y-132500000D03*
X44802944Y-130802944D03*
X44802944Y-134197056D03*
X46500000Y-130100000D03*
D16*
X46500000Y-132500000D03*
D15*
X46500000Y-134900000D03*
X48197056Y-130802944D03*
X48197056Y-134197056D03*
X48900000Y-132500000D03*
%TD*%
D17*
%TO.C,USB2*%
X144679649Y-93049284D03*
X149982949Y-98352584D03*
D18*
X147154522Y-92483598D03*
X144113963Y-95524157D03*
X150548635Y-95877711D03*
X147508076Y-98918270D03*
%TD*%
D15*
%TO.C,H3*%
X148600000Y-41000000D03*
X149302944Y-39302944D03*
X149302944Y-42697056D03*
X151000000Y-38600000D03*
D16*
X151000000Y-41000000D03*
D15*
X151000000Y-43400000D03*
X152697056Y-39302944D03*
X152697056Y-42697056D03*
X153400000Y-41000000D03*
%TD*%
D14*
%TO.C,J3*%
X150800000Y-66815000D03*
X150800000Y-62855000D03*
X150800000Y-58895000D03*
X150800000Y-54935000D03*
X150800000Y-50975000D03*
X150800000Y-47015000D03*
%TD*%
D12*
%TO.C,J7*%
X108420000Y-133700000D03*
X104460000Y-133700000D03*
X100500000Y-133700000D03*
X96539999Y-133700000D03*
X92580001Y-133700000D03*
%TD*%
D19*
%TO.C,C32*%
X117820618Y-45748190D03*
X116724602Y-46844206D03*
%TD*%
D20*
%TO.C,U4*%
X133844132Y-129700000D03*
X133844132Y-128850000D03*
X133844132Y-128000000D03*
X133844132Y-127150000D03*
X133844132Y-126300000D03*
X133844132Y-125450000D03*
X133844132Y-124600000D03*
X133844132Y-123750000D03*
X133844132Y-122900000D03*
X133844132Y-122050000D03*
X133844132Y-121200000D03*
X133844132Y-120350000D03*
X133844132Y-119500000D03*
X133844132Y-118650000D03*
X133844132Y-117800000D03*
D21*
X134874132Y-116720000D03*
X135724132Y-116720000D03*
X136574132Y-116720000D03*
X137424132Y-116720000D03*
X138274132Y-116720000D03*
X139124132Y-116720000D03*
X139974132Y-116720000D03*
X140824132Y-116720000D03*
X141674132Y-116720000D03*
X142524132Y-116720000D03*
X143374132Y-116720000D03*
X144224132Y-116720000D03*
X145074132Y-116720000D03*
X145924132Y-116720000D03*
X146774132Y-116720000D03*
D20*
X147804132Y-117800000D03*
X147804132Y-118650000D03*
X147804132Y-119500000D03*
X147804132Y-120350000D03*
X147804132Y-121200000D03*
X147804132Y-122050000D03*
X147804132Y-122900000D03*
X147804132Y-123750000D03*
X147804132Y-124600000D03*
X147804132Y-125450000D03*
X147804132Y-126300000D03*
X147804132Y-127150000D03*
X147804132Y-128000000D03*
X147804132Y-128850000D03*
X147804132Y-129700000D03*
D21*
X146774132Y-130780000D03*
X145924132Y-130780000D03*
X145074132Y-130780000D03*
X144224132Y-130780000D03*
X143374132Y-130780000D03*
X142524132Y-130780000D03*
X141674132Y-130780000D03*
X140824132Y-130780000D03*
X139974132Y-130780000D03*
X139124132Y-130780000D03*
X138274132Y-130780000D03*
X137424132Y-130780000D03*
X136574132Y-130780000D03*
X135724132Y-130780000D03*
X134874132Y-130780000D03*
D22*
X133824132Y-116750000D03*
X133824132Y-130750000D03*
D23*
X139174132Y-122100000D03*
X139174132Y-123750000D03*
X139174132Y-125400000D03*
X140824132Y-122100000D03*
X140824132Y-123750000D03*
X140824132Y-125400000D03*
X142474132Y-122100000D03*
X142474132Y-123750000D03*
X142474132Y-125400000D03*
D22*
X147824132Y-116750000D03*
X147824132Y-130750000D03*
%TD*%
D24*
%TO.C,R29*%
X74450000Y-99050000D03*
X72800000Y-99050000D03*
%TD*%
%TO.C,R27*%
X78850000Y-102800000D03*
X77200000Y-102800000D03*
%TD*%
%TO.C,R8*%
X67350000Y-51800000D03*
X65700000Y-51800000D03*
%TD*%
D25*
%TO.C,BUZZER1*%
X156300000Y-108700000D03*
X149100000Y-108700000D03*
X149100000Y-101500000D03*
X156300000Y-101500000D03*
%TD*%
D26*
%TO.C,C47*%
X151300000Y-124825000D03*
X151300000Y-123275000D03*
%TD*%
D27*
%TO.C,R94*%
X75925000Y-122200000D03*
X77425000Y-122200000D03*
%TD*%
D24*
%TO.C,R42*%
X130700000Y-45000000D03*
X129050000Y-45000000D03*
%TD*%
D27*
%TO.C,R93*%
X75875000Y-126100000D03*
X77375000Y-126100000D03*
%TD*%
D28*
%TO.C,R36*%
X153275000Y-113100000D03*
X154925000Y-113100000D03*
%TD*%
D29*
%TO.C,R1*%
X124950000Y-81125000D03*
X124950000Y-79475000D03*
%TD*%
D30*
%TO.C,C27*%
X137075000Y-64600000D03*
X135525000Y-64600000D03*
%TD*%
D27*
%TO.C,R31*%
X77500000Y-101000000D03*
X76000000Y-101000000D03*
%TD*%
D29*
%TO.C,R88*%
X90850001Y-114825000D03*
X90850001Y-113175000D03*
%TD*%
D31*
%TO.C,D1*%
X154230000Y-111200000D03*
X150770000Y-111200000D03*
%TD*%
D26*
%TO.C,C24*%
X126700000Y-61475000D03*
X126700000Y-59925000D03*
%TD*%
D28*
%TO.C,R33*%
X149849132Y-120150000D03*
X151499132Y-120150000D03*
%TD*%
D32*
%TO.C,C22*%
X66125000Y-60600000D03*
X67675000Y-60600000D03*
%TD*%
D33*
%TO.C,Q1*%
X149450000Y-114950000D03*
X149450000Y-113050000D03*
X151750000Y-114000000D03*
%TD*%
D34*
%TO.C,R11*%
X135600000Y-66250000D03*
X135600000Y-67900000D03*
%TD*%
D30*
%TO.C,C41*%
X131074132Y-131190000D03*
X129524132Y-131190000D03*
%TD*%
D28*
%TO.C,R101*%
X91475002Y-104650000D03*
X93125002Y-104650000D03*
%TD*%
D35*
%TO.C,C31*%
X108274677Y-50733294D03*
X107178661Y-49637278D03*
%TD*%
D24*
%TO.C,R34*%
X151499132Y-118550000D03*
X149849132Y-118550000D03*
%TD*%
D32*
%TO.C,C75*%
X66075000Y-83050000D03*
X67625000Y-83050000D03*
%TD*%
D26*
%TO.C,C44*%
X149700000Y-127925001D03*
X149700000Y-126375001D03*
%TD*%
D32*
%TO.C,C80*%
X126725000Y-76100000D03*
X128275000Y-76100000D03*
%TD*%
%TO.C,C79*%
X126725000Y-77750000D03*
X128275000Y-77750000D03*
%TD*%
D26*
%TO.C,C2*%
X128000000Y-81175000D03*
X128000000Y-79625000D03*
%TD*%
D36*
%TO.C,C45*%
X151300000Y-126375000D03*
X151300000Y-127925000D03*
%TD*%
D26*
%TO.C,C40*%
X144300000Y-111275000D03*
X144300000Y-109725000D03*
%TD*%
D24*
%TO.C,R111*%
X156125000Y-99400000D03*
X154475000Y-99400000D03*
%TD*%
D34*
%TO.C,R57*%
X129000000Y-119325000D03*
X129000000Y-120975000D03*
%TD*%
D28*
%TO.C,R25*%
X72725000Y-97150000D03*
X74375000Y-97150000D03*
%TD*%
D36*
%TO.C,C23*%
X69200000Y-50225000D03*
X69200000Y-51775000D03*
%TD*%
D28*
%TO.C,R97*%
X79000000Y-122200000D03*
X80650000Y-122200000D03*
%TD*%
%TO.C,R96*%
X74575000Y-120400000D03*
X76225000Y-120400000D03*
%TD*%
D24*
%TO.C,R50*%
X93125002Y-111124999D03*
X91475002Y-111124999D03*
%TD*%
D28*
%TO.C,R49*%
X91475002Y-109549999D03*
X93125002Y-109549999D03*
%TD*%
D31*
%TO.C,D5*%
X74500000Y-81400000D03*
X71040000Y-81400000D03*
%TD*%
D37*
%TO.C,D6*%
X130500000Y-82300000D03*
X130500000Y-77300000D03*
%TD*%
D30*
%TO.C,C74*%
X67625000Y-81400000D03*
X66075000Y-81400000D03*
%TD*%
D38*
%TO.C,R12*%
X115593232Y-45606769D03*
X114426506Y-44440043D03*
%TD*%
D29*
%TO.C,R39*%
X152900000Y-127975000D03*
X152900000Y-126325000D03*
%TD*%
D28*
%TO.C,R98*%
X129049999Y-46650000D03*
X130699999Y-46650000D03*
%TD*%
%TO.C,R48*%
X91475002Y-107949999D03*
X93125002Y-107949999D03*
%TD*%
%TO.C,R10*%
X71475000Y-51900000D03*
X73125000Y-51900000D03*
%TD*%
D24*
%TO.C,R43*%
X130699999Y-43400000D03*
X129049999Y-43400000D03*
%TD*%
D27*
%TO.C,R26*%
X77550000Y-97100000D03*
X76050000Y-97100000D03*
%TD*%
D24*
%TO.C,R99*%
X93125002Y-106299999D03*
X91475002Y-106299999D03*
%TD*%
D32*
%TO.C,C42*%
X129524132Y-129599999D03*
X131074132Y-129599999D03*
%TD*%
D34*
%TO.C,R44*%
X132274998Y-43375000D03*
X132274998Y-45025000D03*
%TD*%
%TO.C,R40*%
X152900000Y-123225000D03*
X152900000Y-124875000D03*
%TD*%
D24*
%TO.C,R100*%
X130699999Y-48300000D03*
X129049999Y-48300000D03*
%TD*%
D28*
%TO.C,R91*%
X78975000Y-124150000D03*
X80625000Y-124150000D03*
%TD*%
D36*
%TO.C,C46*%
X149700000Y-123275001D03*
X149700000Y-124825001D03*
%TD*%
D28*
%TO.C,R37*%
X151475000Y-97800000D03*
X153125000Y-97800000D03*
%TD*%
D24*
%TO.C,R95*%
X80700000Y-126050000D03*
X79050000Y-126050000D03*
%TD*%
%TO.C,R110*%
X151525000Y-116900000D03*
X149875000Y-116900000D03*
%TD*%
%TO.C,R87*%
X135975000Y-45650001D03*
X134325000Y-45650001D03*
%TD*%
%TO.C,R32*%
X74425000Y-101000000D03*
X72775000Y-101000000D03*
%TD*%
D39*
%TO.C,D2*%
X142174132Y-114000000D03*
X141224132Y-114000000D03*
X140274132Y-114000000D03*
X140274132Y-111700000D03*
X141224132Y-111700000D03*
X142174132Y-111700000D03*
%TD*%
D40*
%TO.C,R14*%
X117962040Y-47975577D03*
X119128766Y-49142303D03*
%TD*%
%TO.C,R38*%
X145516637Y-99316637D03*
X146683363Y-100483363D03*
%TD*%
D41*
%TO.C,D4*%
X69400000Y-81370000D03*
X69400000Y-84830000D03*
%TD*%
D29*
%TO.C,R9*%
X135600000Y-62900000D03*
X135600000Y-61250000D03*
%TD*%
D42*
X58800000Y-83800000D02*
X58450000Y-84150000D01*
X58200965Y-45377756D02*
X51830413Y-39007204D01*
X87277519Y-32252458D02*
X87639257Y-32293215D01*
X88665732Y-32652394D02*
X88973962Y-32846068D01*
X58450000Y-84150000D02*
X58450000Y-119956440D01*
X109391896Y-35214213D02*
X111868805Y-32737304D01*
X88973962Y-32846068D02*
X89258569Y-33073034D01*
X112790000Y-32250000D02*
X153787042Y-32250000D01*
X58806109Y-82250000D02*
X58456109Y-81900000D01*
X88337755Y-32494449D02*
X88665732Y-32652394D01*
X89347559Y-33158550D02*
X91403223Y-35214214D01*
X89258569Y-33073034D02*
X89341629Y-33156094D01*
X87095506Y-32250000D02*
X87277519Y-32252458D01*
X87994156Y-32374219D02*
X88337755Y-32494449D01*
X58230330Y-120486770D02*
X57583550Y-121133550D01*
X50959070Y-128095717D02*
X50959070Y-135510790D01*
X53243024Y-32250000D02*
X87095506Y-32250000D01*
X51206109Y-37500000D02*
X51206109Y-34286915D01*
X89341629Y-33156094D02*
X89347559Y-33158550D01*
X87639257Y-32293215D02*
X87994156Y-32374219D01*
X157806109Y-36269067D02*
X157806109Y-66950000D01*
X111868805Y-32737304D02*
X112049301Y-32556808D01*
X57583550Y-121133550D02*
X57574483Y-121155440D01*
X58456109Y-81900000D02*
X58456109Y-45993729D01*
X52548280Y-137100000D02*
X126700000Y-137100000D01*
X57574483Y-121155440D02*
X51188779Y-127541144D01*
X92817436Y-35800000D02*
X107977682Y-35800000D01*
X51188779Y-127541144D02*
X51037419Y-127803309D01*
X51037419Y-127803309D02*
X50959070Y-128095717D01*
X107977682Y-35800000D02*
G75*
G03*
X109391905Y-35214222I18J2000000D01*
G01*
X153787042Y-32250000D02*
G75*
G02*
X157806100Y-36269067I-42J-4019100D01*
G01*
X58200965Y-45377756D02*
G75*
G02*
X58456091Y-45993729I-615965J-615944D01*
G01*
X51206109Y-34286915D02*
G75*
G02*
X53243024Y-32250009I2036891J15D01*
G01*
X112049301Y-32556808D02*
G75*
G02*
X112790000Y-32249998I740699J-740692D01*
G01*
X50959070Y-135510790D02*
G75*
G03*
X52548280Y-137100030I1589230J-10D01*
G01*
X51830413Y-39007204D02*
G75*
G02*
X51206104Y-37500000I1507187J1507204D01*
G01*
X58450000Y-119956440D02*
G75*
G02*
X58230310Y-120486750I-750000J40D01*
G01*
X91403223Y-35214214D02*
G75*
G03*
X92817436Y-35799974I1414177J1414214D01*
G01*
X107751472Y-35400000D02*
X92950000Y-35400000D01*
X50800000Y-34219239D02*
X50800000Y-37701472D01*
X58049000Y-119893893D02*
X58049000Y-83151000D01*
X58049000Y-46038819D02*
X58049000Y-82066100D01*
X57916501Y-45670113D02*
X58002781Y-45819558D01*
X58047440Y-45986242D02*
X58049000Y-46038819D01*
X91584315Y-34834315D02*
X89688492Y-32938492D01*
X58050000Y-82067100D02*
X58050000Y-82950000D01*
X111147207Y-32850000D02*
X109200000Y-34797207D01*
X58002781Y-45819558D02*
X58047440Y-45986242D01*
X111150000Y-32850000D02*
X111147207Y-32850000D01*
X109200000Y-34797207D02*
X109200000Y-34800000D01*
X126700000Y-137500000D02*
X52510275Y-137500000D01*
X158200000Y-66950000D02*
X158200000Y-36203982D01*
X111690381Y-32309619D02*
X111150000Y-32850000D01*
X51400000Y-39150000D02*
X57857297Y-45607297D01*
X87060640Y-31850000D02*
X53381371Y-31850000D01*
X57857297Y-45607297D02*
X57916501Y-45670113D01*
X58049000Y-82066100D02*
X58050000Y-82067100D01*
X50549000Y-135538725D02*
X50549000Y-128238810D01*
X51000000Y-127150000D02*
X57902553Y-120247447D01*
X153846018Y-31850000D02*
X112800000Y-31850000D01*
X52510275Y-137500000D02*
G75*
G02*
X50549000Y-135538725I25J1961300D01*
G01*
X51450000Y-32650000D02*
G75*
G03*
X50800016Y-34219239I1569200J-1569200D01*
G01*
X89688492Y-32938492D02*
G75*
G03*
X87060640Y-31849959I-2627892J-2627808D01*
G01*
X53381371Y-31850000D02*
G75*
G03*
X51450009Y-32650009I29J-2731400D01*
G01*
X92950000Y-35400000D02*
G75*
G02*
X91584309Y-34834321I0J1931400D01*
G01*
X57902553Y-120247447D02*
G75*
G03*
X58048995Y-119893893I-353553J353547D01*
G01*
X109200000Y-34800000D02*
G75*
G02*
X107751472Y-35399988I-1448500J1448500D01*
G01*
X112800000Y-31850000D02*
G75*
G03*
X111690389Y-32309627I0J-1569200D01*
G01*
X50549000Y-128238810D02*
G75*
G02*
X50999997Y-127149997I1539800J10D01*
G01*
X158200000Y-36203982D02*
G75*
G03*
X153846018Y-31850000I-4354000J-18D01*
G01*
X50800000Y-37701472D02*
G75*
G03*
X51399992Y-39150008I2048500J-28D01*
G01*
M02*
