%TF.GenerationSoftware,KiCad,Pcbnew,9.0.0*%
%TF.CreationDate,2025-04-03T12:13:19+02:00*%
%TF.ProjectId,HUB_MPE,4855425f-4d50-4452-9e6b-696361645f70,0.1*%
%TF.SameCoordinates,Original*%
%TF.FileFunction,Soldermask,Bot*%
%TF.FilePolarity,Negative*%
%FSLAX46Y46*%
G04 Gerber Fmt 4.6, Leading zero omitted, Abs format (unit mm)*
G04 Created by KiCad (PCBNEW 9.0.0) date 2025-04-03 12:13:19*
%MOMM*%
%LPD*%
G01*
G04 APERTURE LIST*
G04 Aperture macros list*
%AMRoundRect*
0 Rectangle with rounded corners*
0 $1 Rounding radius*
0 $2 $3 $4 $5 $6 $7 $8 $9 X,Y pos of 4 corners*
0 Add a 4 corners polygon primitive as box body*
4,1,4,$2,$3,$4,$5,$6,$7,$8,$9,$2,$3,0*
0 Add four circle primitives for the rounded corners*
1,1,$1+$1,$2,$3*
1,1,$1+$1,$4,$5*
1,1,$1+$1,$6,$7*
1,1,$1+$1,$8,$9*
0 Add four rect primitives between the rounded corners*
20,1,$1+$1,$2,$3,$4,$5,0*
20,1,$1+$1,$4,$5,$6,$7,0*
20,1,$1+$1,$6,$7,$8,$9,0*
20,1,$1+$1,$8,$9,$2,$3,0*%
G04 Aperture macros list end*
%ADD10C,1.800000*%
%ADD11R,1.800000X1.800000*%
%ADD12C,2.700000*%
%ADD13RoundRect,0.250001X1.099999X1.099999X-1.099999X1.099999X-1.099999X-1.099999X1.099999X-1.099999X0*%
%ADD14C,0.610000*%
%ADD15RoundRect,0.250001X1.099999X-1.099999X1.099999X1.099999X-1.099999X1.099999X-1.099999X-1.099999X0*%
%ADD16O,1.700000X1.950000*%
%ADD17RoundRect,0.250000X-0.600000X-0.725000X0.600000X-0.725000X0.600000X0.725000X-0.600000X0.725000X0*%
%ADD18O,1.950000X1.700000*%
%ADD19RoundRect,0.250000X-0.725000X0.600000X-0.725000X-0.600000X0.725000X-0.600000X0.725000X0.600000X0*%
%ADD20C,0.800000*%
%ADD21C,6.400000*%
%ADD22RoundRect,0.250000X0.725000X-0.600000X0.725000X0.600000X-0.725000X0.600000X-0.725000X-0.600000X0*%
%ADD23R,0.700000X1.250000*%
%ADD24R,0.800000X0.800000*%
%ADD25R,1.200000X1.200000*%
%ADD26R,0.400000X0.800000*%
%ADD27R,0.800000X0.400000*%
%ADD28RoundRect,0.200000X-0.200000X-0.275000X0.200000X-0.275000X0.200000X0.275000X-0.200000X0.275000X0*%
%ADD29RoundRect,0.200000X-0.275000X0.200000X-0.275000X-0.200000X0.275000X-0.200000X0.275000X0.200000X0*%
%ADD30R,2.400000X2.400000*%
%ADD31RoundRect,0.225000X0.250000X-0.225000X0.250000X0.225000X-0.250000X0.225000X-0.250000X-0.225000X0*%
%ADD32C,1.700000*%
%ADD33R,1.700000X1.700000*%
%ADD34RoundRect,0.225000X-0.250000X0.225000X-0.250000X-0.225000X0.250000X-0.225000X0.250000X0.225000X0*%
%ADD35RoundRect,0.225000X-0.225000X-0.250000X0.225000X-0.250000X0.225000X0.250000X-0.225000X0.250000X0*%
%ADD36R,1.250000X0.700000*%
%ADD37RoundRect,0.200000X0.200000X0.275000X-0.200000X0.275000X-0.200000X-0.275000X0.200000X-0.275000X0*%
%ADD38RoundRect,0.200000X0.275000X-0.200000X0.275000X0.200000X-0.275000X0.200000X-0.275000X-0.200000X0*%
%ADD39R,0.950000X1.150000*%
%ADD40R,1.400000X1.000000*%
%ADD41RoundRect,0.225000X0.225000X0.250000X-0.225000X0.250000X-0.225000X-0.250000X0.225000X-0.250000X0*%
%ADD42R,1.000000X0.800000*%
%ADD43O,2.040000X0.570000*%
%ADD44R,0.530000X1.070000*%
G04 APERTURE END LIST*
D10*
%TO.C,U1*%
X147225001Y-31960000D03*
X147225001Y-34500000D03*
D11*
X147225001Y-37040000D03*
%TD*%
D12*
%TO.C,J1*%
X88150001Y-34875000D03*
X92110001Y-34875000D03*
X96070001Y-34875000D03*
X100030001Y-34875000D03*
X103990001Y-34875000D03*
X107950001Y-34875000D03*
X111910001Y-34875000D03*
X115870001Y-34875000D03*
D13*
X119830001Y-34875000D03*
%TD*%
D14*
%TO.C,U6*%
X85750000Y-124750000D03*
X85750000Y-123750000D03*
X84750000Y-124750000D03*
X84750000Y-123750000D03*
X83750000Y-124750000D03*
X83750000Y-123750000D03*
%TD*%
D12*
%TO.C,J6*%
X87500000Y-92160000D03*
X87500000Y-96120000D03*
X87500000Y-100080000D03*
X87500000Y-104040000D03*
D15*
X87500000Y-108000000D03*
%TD*%
D16*
%TO.C,J4*%
X79900000Y-31550000D03*
X77400000Y-31550000D03*
X74900000Y-31550000D03*
X72400000Y-31550000D03*
X69900000Y-31550000D03*
X67400000Y-31550000D03*
D17*
X64900000Y-31550000D03*
%TD*%
D18*
%TO.C,J2*%
X71050000Y-81725000D03*
X71050000Y-79225000D03*
D19*
X71050000Y-76725000D03*
%TD*%
D12*
%TO.C,J5*%
X51000000Y-92160000D03*
X51000000Y-96120000D03*
X51000000Y-100080000D03*
X51000000Y-104040000D03*
D15*
X51000000Y-108000000D03*
%TD*%
D14*
%TO.C,U5*%
X146550000Y-63450000D03*
X145550000Y-63450000D03*
X146549999Y-64450000D03*
X145550001Y-64450000D03*
X146550000Y-65450000D03*
X145550000Y-65450000D03*
%TD*%
D20*
%TO.C,H1*%
X63400000Y-54000000D03*
X62697056Y-55697056D03*
X62697056Y-52302944D03*
X61000000Y-56400000D03*
D21*
X61000000Y-54000000D03*
D20*
X61000000Y-51600000D03*
X59302944Y-55697056D03*
X59302944Y-52302944D03*
X58600000Y-54000000D03*
%TD*%
%TO.C,H4*%
X118900000Y-135000000D03*
X118197056Y-136697056D03*
X118197056Y-133302944D03*
X116500000Y-137400000D03*
D21*
X116500000Y-135000000D03*
D20*
X116500000Y-132600000D03*
X114802944Y-136697056D03*
X114802944Y-133302944D03*
X114100000Y-135000000D03*
%TD*%
%TO.C,H2*%
X55400000Y-135000000D03*
X54697056Y-136697056D03*
X54697056Y-133302944D03*
X53000000Y-137400000D03*
D21*
X53000000Y-135000000D03*
D20*
X53000000Y-132600000D03*
X51302944Y-136697056D03*
X51302944Y-133302944D03*
X50600000Y-135000000D03*
%TD*%
%TO.C,H3*%
X157900000Y-37500000D03*
X157197056Y-39197056D03*
X157197056Y-35802944D03*
X155500000Y-39900000D03*
D21*
X155500000Y-37500000D03*
D20*
X155500000Y-35100000D03*
X153802944Y-39197056D03*
X153802944Y-35802944D03*
X153100000Y-37500000D03*
%TD*%
D18*
%TO.C,J3*%
X121275000Y-57525000D03*
X121275000Y-60025000D03*
X121275000Y-62525000D03*
X121275000Y-65025000D03*
X121275000Y-67525000D03*
D22*
X121275000Y-70025000D03*
%TD*%
D23*
%TO.C,Q7*%
X148750000Y-59700000D03*
X149700000Y-57700000D03*
X147800000Y-57700000D03*
%TD*%
D24*
%TO.C,U4*%
X147824132Y-130750000D03*
X147824132Y-116750000D03*
D25*
X142474132Y-125400000D03*
X142474132Y-123750000D03*
X142474132Y-122100000D03*
X140824132Y-125400000D03*
X140824132Y-123750000D03*
X140824132Y-122100000D03*
X139174132Y-125400000D03*
X139174132Y-123750000D03*
X139174132Y-122100000D03*
D24*
X133824132Y-130750000D03*
X133824132Y-116750000D03*
D26*
X134874132Y-130780000D03*
X135724132Y-130780000D03*
X136574132Y-130780000D03*
X137424132Y-130780000D03*
X138274132Y-130780000D03*
X139124132Y-130780000D03*
X139974132Y-130780000D03*
X140824132Y-130780000D03*
X141674132Y-130780000D03*
X142524132Y-130780000D03*
X143374132Y-130780000D03*
X144224132Y-130780000D03*
X145074132Y-130780000D03*
X145924132Y-130780000D03*
X146774132Y-130780000D03*
D27*
X147804132Y-129700000D03*
X147804132Y-128850000D03*
X147804132Y-128000000D03*
X147804132Y-127150000D03*
X147804132Y-126300000D03*
X147804132Y-125450000D03*
X147804132Y-124600000D03*
X147804132Y-123750000D03*
X147804132Y-122900000D03*
X147804132Y-122050000D03*
X147804132Y-121200000D03*
X147804132Y-120350000D03*
X147804132Y-119500000D03*
X147804132Y-118650000D03*
X147804132Y-117800000D03*
D26*
X146774132Y-116720000D03*
X145924132Y-116720000D03*
X145074132Y-116720000D03*
X144224132Y-116720000D03*
X143374132Y-116720000D03*
X142524132Y-116720000D03*
X141674132Y-116720000D03*
X140824132Y-116720000D03*
X139974132Y-116720000D03*
X139124132Y-116720000D03*
X138274132Y-116720000D03*
X137424132Y-116720000D03*
X136574132Y-116720000D03*
X135724132Y-116720000D03*
X134874132Y-116720000D03*
D27*
X133844132Y-117800000D03*
X133844132Y-118650000D03*
X133844132Y-119500000D03*
X133844132Y-120350000D03*
X133844132Y-121200000D03*
X133844132Y-122050000D03*
X133844132Y-122900000D03*
X133844132Y-123750000D03*
X133844132Y-124600000D03*
X133844132Y-125450000D03*
X133844132Y-126300000D03*
X133844132Y-127150000D03*
X133844132Y-128000000D03*
X133844132Y-128850000D03*
X133844132Y-129700000D03*
%TD*%
D28*
%TO.C,R29*%
X125734132Y-131095000D03*
X124084132Y-131095000D03*
%TD*%
D29*
%TO.C,R27*%
X114009132Y-126995001D03*
X114009132Y-125345001D03*
%TD*%
D30*
%TO.C,BUZZER1*%
X156374132Y-100500000D03*
X149174132Y-100500000D03*
X149174132Y-107700000D03*
X156374132Y-107700000D03*
%TD*%
D31*
%TO.C,C47*%
X151575000Y-124275000D03*
X151575000Y-125825000D03*
%TD*%
D28*
%TO.C,R94*%
X87237036Y-136982964D03*
X85587036Y-136982964D03*
%TD*%
%TO.C,R102*%
X95185000Y-123245000D03*
X93535000Y-123245000D03*
%TD*%
D32*
%TO.C,J7*%
X156350000Y-88769999D03*
X156350000Y-91309999D03*
X156350000Y-93849999D03*
D33*
X156350000Y-96389999D03*
%TD*%
D29*
%TO.C,R93*%
X84012036Y-135057964D03*
X84012036Y-133407964D03*
%TD*%
D28*
%TO.C,R36*%
X153399132Y-112100000D03*
X151749132Y-112100000D03*
%TD*%
D23*
%TO.C,Q8*%
X94350000Y-128100000D03*
X93400000Y-130100000D03*
X95300000Y-130100000D03*
%TD*%
D34*
%TO.C,C37*%
X120009132Y-122045000D03*
X120009132Y-120495000D03*
%TD*%
D35*
%TO.C,C43*%
X131074131Y-127990000D03*
X129524131Y-127990000D03*
%TD*%
D36*
%TO.C,Q5*%
X153700000Y-62950000D03*
X155700000Y-63900000D03*
X155700000Y-62000000D03*
%TD*%
%TO.C,Q3*%
X149075000Y-68599999D03*
X151075000Y-69549999D03*
X151075000Y-67649999D03*
%TD*%
D37*
%TO.C,R31*%
X118384132Y-125470000D03*
X120034132Y-125470000D03*
%TD*%
D38*
%TO.C,R88*%
X152725000Y-67774999D03*
X152725000Y-69424999D03*
%TD*%
D23*
%TO.C,Q10*%
X94350000Y-119350000D03*
X93400000Y-121350000D03*
X95300000Y-121350000D03*
%TD*%
D39*
%TO.C,D1*%
X150884133Y-110200000D03*
X154264131Y-110200000D03*
%TD*%
D40*
%TO.C,LED10*%
X121809132Y-128420000D03*
X121809132Y-130520000D03*
%TD*%
D28*
%TO.C,R33*%
X151499132Y-120150000D03*
X149849132Y-120150000D03*
%TD*%
D38*
%TO.C,R92*%
X157550000Y-62085000D03*
X157550000Y-63735000D03*
%TD*%
D23*
%TO.C,Q9*%
X141287500Y-58704999D03*
X142237500Y-56704999D03*
X140337500Y-56704999D03*
%TD*%
D41*
%TO.C,C39*%
X147149132Y-114999999D03*
X148699132Y-114999999D03*
%TD*%
D42*
%TO.C,Q1*%
X152624132Y-114750000D03*
X150324132Y-113800000D03*
X150324132Y-115700000D03*
%TD*%
D41*
%TO.C,C41*%
X129524132Y-131190000D03*
X131074132Y-131190000D03*
%TD*%
D29*
%TO.C,R101*%
X91810000Y-121120000D03*
X91810000Y-119470000D03*
%TD*%
D43*
%TO.C,U3*%
X122189132Y-122660000D03*
X122189132Y-123940000D03*
X122189132Y-125200000D03*
X122189132Y-126470000D03*
X127729132Y-126470000D03*
X127729132Y-125200000D03*
X127729132Y-123940000D03*
X127729132Y-122660000D03*
%TD*%
D37*
%TO.C,R34*%
X149849132Y-118550000D03*
X151499132Y-118550000D03*
%TD*%
D31*
%TO.C,C44*%
X149975000Y-127375001D03*
X149975000Y-128925001D03*
%TD*%
D37*
%TO.C,R104*%
X75525000Y-120155001D03*
X77175000Y-120155001D03*
%TD*%
D28*
%TO.C,R85*%
X143170000Y-71050000D03*
X141520000Y-71050000D03*
%TD*%
D37*
%TO.C,R30*%
X124084132Y-129345000D03*
X125734132Y-129345000D03*
%TD*%
D23*
%TO.C,Q4*%
X76300000Y-131800000D03*
X77250000Y-129800000D03*
X75350000Y-129800000D03*
%TD*%
%TO.C,Q11*%
X76350000Y-124000000D03*
X77300000Y-122000000D03*
X75400000Y-122000000D03*
%TD*%
D34*
%TO.C,C45*%
X151575000Y-128925000D03*
X151575000Y-127375000D03*
%TD*%
D41*
%TO.C,C40*%
X144049132Y-111400000D03*
X145599132Y-111400000D03*
%TD*%
D29*
%TO.C,R57*%
X129000000Y-120975000D03*
X129000000Y-119325000D03*
%TD*%
D38*
%TO.C,R103*%
X78900000Y-122330000D03*
X78900000Y-123980000D03*
%TD*%
D29*
%TO.C,R25*%
X118309132Y-122094999D03*
X118309132Y-120444999D03*
%TD*%
%TO.C,R97*%
X91900000Y-129725000D03*
X91900000Y-128075000D03*
%TD*%
D37*
%TO.C,R96*%
X147915000Y-55965000D03*
X149565000Y-55965000D03*
%TD*%
D36*
%TO.C,Q2*%
X141350000Y-68600000D03*
X143350000Y-69550000D03*
X143350000Y-67650000D03*
%TD*%
D38*
%TO.C,R86*%
X144995000Y-67774999D03*
X144995000Y-69424999D03*
%TD*%
D40*
%TO.C,LED9*%
X123009132Y-120520000D03*
X123009132Y-118420000D03*
%TD*%
D37*
%TO.C,R28*%
X124959132Y-120570000D03*
X126609132Y-120570000D03*
%TD*%
D38*
%TO.C,R39*%
X153175000Y-127325000D03*
X153175000Y-128975000D03*
%TD*%
D28*
%TO.C,R98*%
X95175000Y-131950000D03*
X93525000Y-131950000D03*
%TD*%
D37*
%TO.C,R26*%
X118384132Y-123720000D03*
X120034132Y-123720000D03*
%TD*%
D38*
%TO.C,R99*%
X143687500Y-57029999D03*
X143687500Y-58679999D03*
%TD*%
D35*
%TO.C,C42*%
X131074132Y-129599999D03*
X129524132Y-129599999D03*
%TD*%
D37*
%TO.C,R90*%
X75489999Y-127955000D03*
X77139999Y-127955000D03*
%TD*%
D29*
%TO.C,R40*%
X153175000Y-125875000D03*
X153175000Y-124225000D03*
%TD*%
D37*
%TO.C,R100*%
X140462500Y-54854999D03*
X142112500Y-54854999D03*
%TD*%
D28*
%TO.C,R91*%
X155375000Y-65460000D03*
X153725000Y-65460000D03*
%TD*%
D34*
%TO.C,C46*%
X149975000Y-125825001D03*
X149975000Y-124275001D03*
%TD*%
D38*
%TO.C,R95*%
X151190001Y-58040000D03*
X151190001Y-59690000D03*
%TD*%
D28*
%TO.C,R87*%
X150900000Y-71050000D03*
X149250000Y-71050000D03*
%TD*%
D29*
%TO.C,R32*%
X118309132Y-128695000D03*
X118309132Y-127045000D03*
%TD*%
D35*
%TO.C,C38*%
X134599132Y-114900000D03*
X133049132Y-114900000D03*
%TD*%
D23*
%TO.C,Q6*%
X86400000Y-133300000D03*
X85450000Y-135300000D03*
X87350000Y-135300000D03*
%TD*%
D44*
%TO.C,D2*%
X142174132Y-111700000D03*
X141224132Y-111700000D03*
X140274132Y-111700000D03*
X140274132Y-114000000D03*
X141224132Y-114000000D03*
X142174132Y-114000000D03*
%TD*%
D38*
%TO.C,R89*%
X78890000Y-130180000D03*
X78890000Y-131830000D03*
%TD*%
M02*
