%TF.GenerationSoftware,KiCad,Pcbnew,9.0.0*%
%TF.CreationDate,2025-04-03T12:13:19+02:00*%
%TF.ProjectId,HUB_MPE,4855425f-4d50-4452-9e6b-696361645f70,0.1*%
%TF.SameCoordinates,Original*%
%TF.FileFunction,Soldermask,Top*%
%TF.FilePolarity,Negative*%
%FSLAX46Y46*%
G04 Gerber Fmt 4.6, Leading zero omitted, Abs format (unit mm)*
G04 Created by KiCad (PCBNEW 9.0.0) date 2025-04-03 12:13:19*
%MOMM*%
%LPD*%
G01*
G04 APERTURE LIST*
G04 Aperture macros list*
%AMRoundRect*
0 Rectangle with rounded corners*
0 $1 Rounding radius*
0 $2 $3 $4 $5 $6 $7 $8 $9 X,Y pos of 4 corners*
0 Add a 4 corners polygon primitive as box body*
4,1,4,$2,$3,$4,$5,$6,$7,$8,$9,$2,$3,0*
0 Add four circle primitives for the rounded corners*
1,1,$1+$1,$2,$3*
1,1,$1+$1,$4,$5*
1,1,$1+$1,$6,$7*
1,1,$1+$1,$8,$9*
0 Add four rect primitives between the rounded corners*
20,1,$1+$1,$2,$3,$4,$5,0*
20,1,$1+$1,$4,$5,$6,$7,0*
20,1,$1+$1,$6,$7,$8,$9,0*
20,1,$1+$1,$8,$9,$2,$3,0*%
%AMHorizOval*
0 Thick line with rounded ends*
0 $1 width*
0 $2 $3 position (X,Y) of the first rounded end (center of the circle)*
0 $4 $5 position (X,Y) of the second rounded end (center of the circle)*
0 Add line between two ends*
20,1,$1,$2,$3,$4,$5,0*
0 Add two circle primitives to create the rounded ends*
1,1,$1,$2,$3*
1,1,$1,$4,$5*%
%AMRotRect*
0 Rectangle, with rotation*
0 The origin of the aperture is its center*
0 $1 length*
0 $2 width*
0 $3 Rotation angle, in degrees counterclockwise*
0 Add horizontal line*
21,1,$1,$2,0,0,$3*%
%AMFreePoly0*
4,1,23,0.000000,0.745722,0.065263,0.745722,0.191342,0.711940,0.304381,0.646677,0.396677,0.554381,0.461940,0.441342,0.495722,0.315263,0.495722,0.250000,0.500000,0.250000,0.500000,-0.250000,0.495722,-0.250000,0.495722,-0.315263,0.461940,-0.441342,0.396677,-0.554381,0.304381,-0.646677,0.191342,-0.711940,0.065263,-0.745722,0.000000,-0.745722,0.000000,-0.750000,-0.500000,-0.750000,
-0.500000,0.750000,0.000000,0.750000,0.000000,0.745722,0.000000,0.745722,$1*%
%AMFreePoly1*
4,1,23,0.500000,-0.750000,0.000000,-0.750000,0.000000,-0.745722,-0.065263,-0.745722,-0.191342,-0.711940,-0.304381,-0.646677,-0.396677,-0.554381,-0.461940,-0.441342,-0.495722,-0.315263,-0.495722,-0.250000,-0.500000,-0.250000,-0.500000,0.250000,-0.495722,0.250000,-0.495722,0.315263,-0.461940,0.441342,-0.396677,0.554381,-0.304381,0.646677,-0.191342,0.711940,-0.065263,0.745722,0.000000,0.745722,
0.000000,0.750000,0.500000,0.750000,0.500000,-0.750000,0.500000,-0.750000,$1*%
G04 Aperture macros list end*
%ADD10C,0.000000*%
%ADD11RoundRect,0.225000X0.250000X-0.225000X0.250000X0.225000X-0.250000X0.225000X-0.250000X-0.225000X0*%
%ADD12RoundRect,0.200000X0.335876X0.053033X0.053033X0.335876X-0.335876X-0.053033X-0.053033X-0.335876X0*%
%ADD13RoundRect,0.225000X-0.250000X0.225000X-0.250000X-0.225000X0.250000X-0.225000X0.250000X0.225000X0*%
%ADD14RoundRect,0.225000X0.335876X0.017678X0.017678X0.335876X-0.335876X-0.017678X-0.017678X-0.335876X0*%
%ADD15RoundRect,0.200000X-0.200000X-0.275000X0.200000X-0.275000X0.200000X0.275000X-0.200000X0.275000X0*%
%ADD16RoundRect,0.200000X0.275000X-0.200000X0.275000X0.200000X-0.275000X0.200000X-0.275000X-0.200000X0*%
%ADD17C,1.800000*%
%ADD18R,1.800000X1.800000*%
%ADD19C,3.000000*%
%ADD20RoundRect,0.200000X-0.275000X0.200000X-0.275000X-0.200000X0.275000X-0.200000X0.275000X0.200000X0*%
%ADD21RoundRect,0.225000X-0.225000X-0.250000X0.225000X-0.250000X0.225000X0.250000X-0.225000X0.250000X0*%
%ADD22RoundRect,0.200000X-0.053033X0.335876X-0.335876X0.053033X0.053033X-0.335876X0.335876X-0.053033X0*%
%ADD23R,1.400000X1.000000*%
%ADD24RoundRect,0.200000X0.053033X-0.335876X0.335876X-0.053033X-0.053033X0.335876X-0.335876X0.053033X0*%
%ADD25RoundRect,0.200000X0.200000X0.275000X-0.200000X0.275000X-0.200000X-0.275000X0.200000X-0.275000X0*%
%ADD26R,1.660000X0.760000*%
%ADD27RoundRect,0.200000X-0.335876X-0.053033X-0.053033X-0.335876X0.335876X0.053033X0.053033X0.335876X0*%
%ADD28C,2.700000*%
%ADD29RoundRect,0.250001X1.099999X1.099999X-1.099999X1.099999X-1.099999X-1.099999X1.099999X-1.099999X0*%
%ADD30RoundRect,0.225000X-0.017678X0.335876X-0.335876X0.017678X0.017678X-0.335876X0.335876X-0.017678X0*%
%ADD31RoundRect,0.225000X-0.335876X-0.017678X-0.017678X-0.335876X0.335876X0.017678X0.017678X0.335876X0*%
%ADD32RoundRect,0.225000X0.017678X-0.335876X0.335876X-0.017678X-0.017678X0.335876X-0.335876X0.017678X0*%
%ADD33FreePoly0,90.000000*%
%ADD34FreePoly1,90.000000*%
%ADD35R,0.760000X1.660000*%
%ADD36R,3.900000X2.200000*%
%ADD37O,0.280000X1.890000*%
%ADD38C,0.610000*%
%ADD39RoundRect,0.250001X1.099999X-1.099999X1.099999X1.099999X-1.099999X1.099999X-1.099999X-1.099999X0*%
%ADD40O,1.700000X1.950000*%
%ADD41RoundRect,0.250000X-0.600000X-0.725000X0.600000X-0.725000X0.600000X0.725000X-0.600000X0.725000X0*%
%ADD42O,1.950000X1.700000*%
%ADD43RoundRect,0.250000X-0.725000X0.600000X-0.725000X-0.600000X0.725000X-0.600000X0.725000X0.600000X0*%
%ADD44R,1.000000X1.400000*%
%ADD45RotRect,1.400000X1.200000X315.000000*%
%ADD46RoundRect,0.225000X0.225000X0.250000X-0.225000X0.250000X-0.225000X-0.250000X0.225000X-0.250000X0*%
%ADD47R,2.200000X3.900000*%
%ADD48O,1.890000X0.280000*%
%ADD49C,0.800000*%
%ADD50C,6.400000*%
%ADD51FreePoly0,0.000000*%
%ADD52FreePoly1,0.000000*%
%ADD53HorizOval,0.270000X-0.434871X-0.434871X0.434871X0.434871X0*%
%ADD54HorizOval,0.270000X-0.434871X0.434871X0.434871X-0.434871X0*%
%ADD55R,1.200000X1.400000*%
%ADD56RotRect,4.400000X4.400000X135.000000*%
%ADD57RotRect,0.200000X1.000000X135.000000*%
%ADD58RotRect,1.000000X0.200000X135.000000*%
%ADD59RoundRect,0.250000X0.725000X-0.600000X0.725000X0.600000X-0.725000X0.600000X-0.725000X-0.600000X0*%
%ADD60R,1.200000X3.500000*%
%ADD61FreePoly0,270.000000*%
%ADD62FreePoly1,270.000000*%
%ADD63C,1.700000*%
%ADD64R,1.700000X1.700000*%
G04 APERTURE END LIST*
D10*
%TO.C,JP2*%
G36*
X156400000Y-127075000D02*
G01*
X154900000Y-127075000D01*
X154900000Y-126775000D01*
X156400000Y-126775000D01*
X156400000Y-127075000D01*
G37*
%TO.C,JP1*%
G36*
X114975000Y-123950000D02*
G01*
X114675000Y-123950000D01*
X114675000Y-122450000D01*
X114975000Y-122450000D01*
X114975000Y-123950000D01*
G37*
%TO.C,JP3*%
G36*
X156400000Y-123675000D02*
G01*
X154900000Y-123675000D01*
X154900000Y-123375000D01*
X156400000Y-123375000D01*
X156400000Y-123675000D01*
G37*
%TD*%
D11*
%TO.C,C32*%
X96426697Y-45555482D03*
X96426697Y-47105482D03*
%TD*%
D12*
%TO.C,R54*%
X127766637Y-93416637D03*
X128933363Y-94583363D03*
%TD*%
D13*
%TO.C,C16*%
X91200000Y-66875000D03*
X91200000Y-65325000D03*
%TD*%
D12*
%TO.C,R63*%
X120016637Y-101216637D03*
X121183363Y-102383363D03*
%TD*%
D14*
%TO.C,C28*%
X83701992Y-56151992D03*
X84798008Y-57248008D03*
%TD*%
D15*
%TO.C,R7*%
X78375000Y-63000000D03*
X76725000Y-63000000D03*
%TD*%
D16*
%TO.C,R16*%
X109740001Y-78939999D03*
X109740001Y-80589999D03*
%TD*%
D17*
%TO.C,U1*%
X147225001Y-31960000D03*
X147225001Y-34500000D03*
D18*
X147225001Y-37040000D03*
%TD*%
D15*
%TO.C,R8*%
X63797069Y-39233438D03*
X62147069Y-39233438D03*
%TD*%
D19*
%TO.C,TP1*%
X116800000Y-119950000D03*
%TD*%
D20*
%TO.C,R42*%
X151450000Y-62875000D03*
X151450000Y-61225000D03*
%TD*%
D21*
%TO.C,C11*%
X99850000Y-58475000D03*
X98300000Y-58475000D03*
%TD*%
D22*
%TO.C,R61*%
X138370621Y-97637347D03*
X139537347Y-96470621D03*
%TD*%
D23*
%TO.C,LED4*%
X110165000Y-76790000D03*
X110165000Y-74690000D03*
%TD*%
D24*
%TO.C,R69*%
X135133363Y-92066637D03*
X133966637Y-93233363D03*
%TD*%
D23*
%TO.C,LED1*%
X140215000Y-35365000D03*
X140215000Y-33265000D03*
%TD*%
D25*
%TO.C,R66*%
X141162500Y-103362500D03*
X142812500Y-103362500D03*
%TD*%
D16*
%TO.C,R1*%
X150450000Y-35300000D03*
X150450000Y-36950000D03*
%TD*%
D26*
%TO.C,T6*%
X106180000Y-98200000D03*
X106180000Y-96920000D03*
X106180000Y-95660000D03*
X106180000Y-94390000D03*
X106180000Y-93110000D03*
X106180000Y-91840000D03*
X106180000Y-90580000D03*
X106180000Y-89310000D03*
X114820000Y-89310000D03*
X114820000Y-90580000D03*
X114820000Y-91840000D03*
X114820000Y-93110000D03*
X114820000Y-94390000D03*
X114820000Y-95660000D03*
X114820000Y-96920000D03*
X114820000Y-98200000D03*
%TD*%
D24*
%TO.C,R55*%
X137483363Y-109666637D03*
X136316637Y-110833363D03*
%TD*%
D27*
%TO.C,R53*%
X140295998Y-109233363D03*
X139129272Y-108066637D03*
%TD*%
D16*
%TO.C,R19*%
X104790001Y-78939999D03*
X104790001Y-80589999D03*
%TD*%
D25*
%TO.C,R6*%
X76725000Y-61400000D03*
X78375000Y-61400000D03*
%TD*%
D12*
%TO.C,R56*%
X128866637Y-92316637D03*
X130033363Y-93483363D03*
%TD*%
D28*
%TO.C,J1*%
X88150001Y-34875000D03*
X92110001Y-34875000D03*
X96070001Y-34875000D03*
X100030001Y-34875000D03*
X103990001Y-34875000D03*
X107950001Y-34875000D03*
X111910001Y-34875000D03*
X115870001Y-34875000D03*
D29*
X119830001Y-34875000D03*
%TD*%
D15*
%TO.C,R51*%
X81875000Y-121550000D03*
X80225000Y-121550000D03*
%TD*%
D13*
%TO.C,C21*%
X85350000Y-80025000D03*
X85350000Y-78475000D03*
%TD*%
D14*
%TO.C,C53*%
X121151992Y-100151992D03*
X122248008Y-101248008D03*
%TD*%
D30*
%TO.C,C58*%
X121700000Y-109750000D03*
X122796016Y-108653984D03*
%TD*%
D12*
%TO.C,R22*%
X89431460Y-50382843D03*
X90598186Y-51549569D03*
%TD*%
D31*
%TO.C,C17*%
X97316548Y-66721357D03*
X96220532Y-65625341D03*
%TD*%
D25*
%TO.C,R67*%
X141162500Y-106462500D03*
X142812500Y-106462500D03*
%TD*%
D21*
%TO.C,C27*%
X109412996Y-54849796D03*
X107862996Y-54849796D03*
%TD*%
D32*
%TO.C,C13*%
X93666548Y-51371357D03*
X92570532Y-52467373D03*
%TD*%
D16*
%TO.C,R76*%
X108950000Y-100925000D03*
X108950000Y-102575000D03*
%TD*%
D25*
%TO.C,R47*%
X83200000Y-130075000D03*
X84850000Y-130075000D03*
%TD*%
D19*
%TO.C,TP3*%
X121400000Y-120050000D03*
%TD*%
D32*
%TO.C,C61*%
X123898008Y-109751992D03*
X122801992Y-110848008D03*
%TD*%
D14*
%TO.C,C29*%
X82551992Y-57301992D03*
X83648008Y-58398008D03*
%TD*%
D21*
%TO.C,C24*%
X109412996Y-56476141D03*
X107862996Y-56476141D03*
%TD*%
D15*
%TO.C,R2*%
X132525000Y-30100000D03*
X130875000Y-30100000D03*
%TD*%
D23*
%TO.C,LED16*%
X80250000Y-117350000D03*
X80250000Y-119450000D03*
%TD*%
D11*
%TO.C,C22*%
X63771421Y-42481498D03*
X63771421Y-44031498D03*
%TD*%
D25*
%TO.C,R79*%
X142350000Y-89450000D03*
X144000000Y-89450000D03*
%TD*%
D20*
%TO.C,R11*%
X111112870Y-56452613D03*
X111112870Y-54802613D03*
%TD*%
D22*
%TO.C,R64*%
X140562653Y-99829379D03*
X141729379Y-98662653D03*
%TD*%
D16*
%TO.C,R84*%
X112050000Y-100925000D03*
X112050000Y-102575000D03*
%TD*%
D31*
%TO.C,C18*%
X99516548Y-64521357D03*
X98420532Y-63425341D03*
%TD*%
D30*
%TO.C,C15*%
X83551992Y-62896017D03*
X84648008Y-61800001D03*
%TD*%
D22*
%TO.C,R72*%
X130666637Y-89933363D03*
X131833363Y-88766637D03*
%TD*%
D33*
%TO.C,JP2*%
X155650000Y-126275001D03*
D34*
X155650000Y-127574999D03*
%TD*%
D30*
%TO.C,C63*%
X125001992Y-113048008D03*
X126098008Y-111951992D03*
%TD*%
D14*
%TO.C,C34*%
X87166815Y-52693198D03*
X88262831Y-53789214D03*
%TD*%
D13*
%TO.C,C67*%
X110500000Y-102525000D03*
X110500000Y-100975000D03*
%TD*%
D23*
%TO.C,LED7*%
X102655000Y-76790000D03*
X102655000Y-74690000D03*
%TD*%
D35*
%TO.C,T4*%
X101075000Y-40130000D03*
X102355000Y-40130000D03*
X103615000Y-40130000D03*
X104885000Y-40130000D03*
X106165000Y-40130000D03*
X107435000Y-40130000D03*
X108695000Y-40130000D03*
X109965000Y-40130000D03*
X109965000Y-48770000D03*
X108695000Y-48770000D03*
X107435000Y-48770000D03*
X106165000Y-48770000D03*
X104885000Y-48770000D03*
X103615000Y-48770000D03*
X102355000Y-48770000D03*
X101075000Y-48770000D03*
%TD*%
D36*
%TO.C,U6*%
X84750000Y-124250000D03*
D37*
X83000000Y-121550000D03*
X83500000Y-121550000D03*
X84000000Y-121550000D03*
X84500000Y-121550000D03*
X85000000Y-121550000D03*
X85500000Y-121550000D03*
X86000000Y-121550000D03*
X86500000Y-121550000D03*
X86500000Y-126950000D03*
X86000000Y-126950000D03*
X85500000Y-126950000D03*
X85000000Y-126950000D03*
X84500000Y-126950000D03*
X84000000Y-126950000D03*
X83500000Y-126950000D03*
X83000000Y-126950000D03*
D38*
X85750000Y-124750000D03*
X85750000Y-123750000D03*
X84750000Y-124750000D03*
X84750000Y-123750000D03*
X83750000Y-124750000D03*
X83750000Y-123750000D03*
%TD*%
D28*
%TO.C,J6*%
X87500000Y-92160000D03*
X87500000Y-96120000D03*
X87500000Y-100080000D03*
X87500000Y-104040000D03*
D39*
X87500000Y-108000000D03*
%TD*%
D15*
%TO.C,R3*%
X86975000Y-81599999D03*
X85325000Y-81599999D03*
%TD*%
D40*
%TO.C,J4*%
X79900000Y-31550000D03*
X77400000Y-31550000D03*
X74900000Y-31550000D03*
X72400000Y-31550000D03*
X69900000Y-31550000D03*
X67400000Y-31550000D03*
D41*
X64900000Y-31550000D03*
%TD*%
D11*
%TO.C,C31*%
X98053043Y-45555482D03*
X98053043Y-47105482D03*
%TD*%
%TO.C,C59*%
X144337500Y-102612500D03*
X144337500Y-104162500D03*
%TD*%
D22*
%TO.C,R73*%
X132866637Y-92133363D03*
X134033363Y-90966637D03*
%TD*%
D31*
%TO.C,C65*%
X122798008Y-96198009D03*
X121701992Y-95101993D03*
%TD*%
D22*
%TO.C,R65*%
X141658668Y-100925394D03*
X142825394Y-99758668D03*
%TD*%
D16*
%TO.C,R81*%
X113100000Y-84725000D03*
X113100000Y-86375000D03*
%TD*%
D42*
%TO.C,J2*%
X71050000Y-81725000D03*
X71050000Y-79225000D03*
D43*
X71050000Y-76725000D03*
%TD*%
D16*
%TO.C,R15*%
X111390001Y-78939999D03*
X111390001Y-80589999D03*
%TD*%
D23*
%TO.C,LED8*%
X115040001Y-76814999D03*
X115040001Y-74714999D03*
%TD*%
D44*
%TO.C,LED15*%
X139200000Y-59950000D03*
X141300000Y-59950000D03*
%TD*%
D14*
%TO.C,C54*%
X137414627Y-114101992D03*
X138510643Y-115198008D03*
%TD*%
%TO.C,C35*%
X88316815Y-51543198D03*
X89412831Y-52639214D03*
%TD*%
D22*
%TO.C,R59*%
X123318628Y-100135355D03*
X124485354Y-98968629D03*
%TD*%
D14*
%TO.C,C52*%
X126701992Y-94551992D03*
X127798008Y-95648008D03*
%TD*%
D25*
%TO.C,R78*%
X142375000Y-87850000D03*
X144025000Y-87850000D03*
%TD*%
D20*
%TO.C,R35*%
X150450000Y-30750000D03*
X150450000Y-29100000D03*
%TD*%
D16*
%TO.C,R20*%
X113065002Y-78939999D03*
X113065002Y-80589999D03*
%TD*%
D45*
%TO.C,X2*%
X139285858Y-110771142D03*
X140841493Y-112326777D03*
X139639412Y-113528858D03*
X138083777Y-111973223D03*
%TD*%
D13*
%TO.C,C3*%
X150449999Y-33800000D03*
X150449999Y-32250000D03*
%TD*%
D14*
%TO.C,C48*%
X131901992Y-115201992D03*
X132998008Y-116298008D03*
%TD*%
D28*
%TO.C,J5*%
X51000000Y-92160000D03*
X51000000Y-96120000D03*
X51000000Y-100080000D03*
X51000000Y-104040000D03*
D39*
X51000000Y-108000000D03*
%TD*%
D13*
%TO.C,C2*%
X150450000Y-39975000D03*
X150450000Y-38425000D03*
%TD*%
D24*
%TO.C,R75*%
X127233363Y-113016637D03*
X126066637Y-114183363D03*
%TD*%
D44*
%TO.C,LED14*%
X139150000Y-68950000D03*
X141250000Y-68950000D03*
%TD*%
D16*
%TO.C,R45*%
X143350000Y-67325000D03*
X143350000Y-68975000D03*
%TD*%
D22*
%TO.C,R83*%
X124418629Y-96835355D03*
X125585355Y-95668629D03*
%TD*%
D46*
%TO.C,C4*%
X82441548Y-69321357D03*
X83991548Y-69321357D03*
%TD*%
D20*
%TO.C,R41*%
X152700000Y-66000000D03*
X152700000Y-64350000D03*
%TD*%
D11*
%TO.C,C5*%
X80500000Y-66075001D03*
X80500000Y-67625001D03*
%TD*%
D16*
%TO.C,R18*%
X106440001Y-78939999D03*
X106440001Y-80589999D03*
%TD*%
D47*
%TO.C,U5*%
X146050000Y-64450000D03*
D48*
X143350000Y-66200000D03*
X143350000Y-65700000D03*
X143350000Y-65200000D03*
X143350000Y-64700000D03*
X143350000Y-64200000D03*
X143350000Y-63700000D03*
X143350000Y-63200000D03*
X143350000Y-62700000D03*
X148750000Y-62700000D03*
X148750000Y-63200000D03*
X148750000Y-63700000D03*
X148750000Y-64200000D03*
X148750000Y-64700000D03*
X148750000Y-65200000D03*
X148750000Y-65700000D03*
X148750000Y-66200000D03*
D38*
X146550000Y-63450000D03*
X145550000Y-63450000D03*
X146549999Y-64450000D03*
X145550001Y-64450000D03*
X146550000Y-65450000D03*
X145550000Y-65450000D03*
%TD*%
D23*
%TO.C,LED17*%
X89250000Y-117400000D03*
X89250000Y-119500000D03*
%TD*%
D19*
%TO.C,TP2*%
X135800000Y-120100000D03*
%TD*%
D22*
%TO.C,R74*%
X135066637Y-94333363D03*
X136233363Y-93166637D03*
%TD*%
D23*
%TO.C,LED5*%
X107715001Y-76789999D03*
X107715001Y-74689999D03*
%TD*%
D11*
%TO.C,C23*%
X62123541Y-42488947D03*
X62123541Y-44038947D03*
%TD*%
D16*
%TO.C,R50*%
X89550000Y-129625000D03*
X89550000Y-131275000D03*
%TD*%
D49*
%TO.C,H1*%
X63400000Y-54000000D03*
X62697056Y-55697056D03*
X62697056Y-52302944D03*
X61000000Y-56400000D03*
D50*
X61000000Y-54000000D03*
D49*
X61000000Y-51600000D03*
X59302944Y-55697056D03*
X59302944Y-52302944D03*
X58600000Y-54000000D03*
%TD*%
D25*
%TO.C,R49*%
X86325000Y-131250000D03*
X87975000Y-131250000D03*
%TD*%
D14*
%TO.C,C20*%
X86016815Y-53843198D03*
X87112831Y-54939214D03*
%TD*%
D23*
%TO.C,LED2*%
X137640000Y-35365000D03*
X137640000Y-33265000D03*
%TD*%
D49*
%TO.C,H4*%
X118900000Y-135000000D03*
X118197056Y-136697056D03*
X118197056Y-133302944D03*
X116500000Y-137400000D03*
D50*
X116500000Y-135000000D03*
D49*
X116500000Y-132600000D03*
X114802944Y-136697056D03*
X114802944Y-133302944D03*
X114100000Y-135000000D03*
%TD*%
D13*
%TO.C,C8*%
X92750000Y-66875000D03*
X92750000Y-65325000D03*
%TD*%
D51*
%TO.C,JP1*%
X115474999Y-123200000D03*
D52*
X114175001Y-123200000D03*
%TD*%
D44*
%TO.C,LED11*%
X156970868Y-119145000D03*
X154870868Y-119145000D03*
%TD*%
D15*
%TO.C,R12*%
X98050000Y-42300000D03*
X96400000Y-42300000D03*
%TD*%
D14*
%TO.C,C56*%
X118951992Y-102351992D03*
X120048008Y-103448008D03*
%TD*%
D30*
%TO.C,C62*%
X123901992Y-111948008D03*
X124998008Y-110851992D03*
%TD*%
D25*
%TO.C,R52*%
X87625000Y-121550000D03*
X89275000Y-121550000D03*
%TD*%
D16*
%TO.C,R82*%
X109932601Y-84738235D03*
X109932601Y-86388235D03*
%TD*%
D32*
%TO.C,C10*%
X94766548Y-52471357D03*
X93670532Y-53567373D03*
%TD*%
D25*
%TO.C,R48*%
X86325000Y-129650000D03*
X87975000Y-129650000D03*
%TD*%
D49*
%TO.C,H2*%
X55400000Y-135000000D03*
X54697056Y-136697056D03*
X54697056Y-133302944D03*
X53000000Y-137400000D03*
D50*
X53000000Y-135000000D03*
D49*
X53000000Y-132600000D03*
X51302944Y-136697056D03*
X51302944Y-133302944D03*
X50600000Y-135000000D03*
%TD*%
D14*
%TO.C,C51*%
X135201992Y-111901992D03*
X136298008Y-112998008D03*
%TD*%
D44*
%TO.C,LED19*%
X146200000Y-89900000D03*
X148300000Y-89900000D03*
%TD*%
D15*
%TO.C,R10*%
X63797069Y-40859784D03*
X62147069Y-40859784D03*
%TD*%
D30*
%TO.C,C26*%
X81350000Y-60698008D03*
X82446016Y-59601992D03*
%TD*%
D31*
%TO.C,C12*%
X98416548Y-65621357D03*
X97320532Y-64525341D03*
%TD*%
D14*
%TO.C,C49*%
X133001992Y-114101992D03*
X134098008Y-115198008D03*
%TD*%
D49*
%TO.C,H3*%
X157900000Y-37500000D03*
X157197056Y-39197056D03*
X157197056Y-35802944D03*
X155500000Y-39900000D03*
D50*
X155500000Y-37500000D03*
D49*
X155500000Y-35100000D03*
X153802944Y-39197056D03*
X153802944Y-35802944D03*
X153100000Y-37500000D03*
%TD*%
D14*
%TO.C,C14*%
X84866815Y-54993198D03*
X85962831Y-56089214D03*
%TD*%
D23*
%TO.C,LED3*%
X112615000Y-76789997D03*
X112615000Y-74689997D03*
%TD*%
D12*
%TO.C,R21*%
X90581460Y-49257843D03*
X91748186Y-50424569D03*
%TD*%
D20*
%TO.C,R43*%
X153050000Y-62875000D03*
X153050000Y-61225000D03*
%TD*%
%TO.C,R46*%
X143349999Y-61575000D03*
X143349999Y-59925000D03*
%TD*%
D30*
%TO.C,C9*%
X86001992Y-65248008D03*
X87098008Y-64151992D03*
%TD*%
D35*
%TO.C,T2*%
X66700000Y-36955000D03*
X67980000Y-36955000D03*
X69240000Y-36955000D03*
X70510000Y-36955000D03*
X71790000Y-36955000D03*
X73060000Y-36955000D03*
X74320000Y-36955000D03*
X75590000Y-36955000D03*
X75590000Y-45595000D03*
X74320000Y-45595000D03*
X73060000Y-45595000D03*
X71790000Y-45595000D03*
X70510000Y-45595000D03*
X69240000Y-45595000D03*
X67980000Y-45595000D03*
X66700000Y-45595000D03*
%TD*%
D22*
%TO.C,R77*%
X122218628Y-99035355D03*
X123385354Y-97868629D03*
%TD*%
%TO.C,R62*%
X139466637Y-98733363D03*
X140633363Y-97566637D03*
%TD*%
D24*
%TO.C,R58*%
X126685355Y-96768629D03*
X125518629Y-97935355D03*
%TD*%
D53*
%TO.C,U7*%
X131260660Y-99802425D03*
X131614214Y-100155978D03*
X131967767Y-100509531D03*
X132321320Y-100863085D03*
X132674874Y-101216638D03*
X133028427Y-101570191D03*
X133381981Y-101923745D03*
X133735534Y-102277298D03*
X134089087Y-102630852D03*
X134442641Y-102984405D03*
X134796194Y-103337958D03*
X135149747Y-103691512D03*
D54*
X135149747Y-105812832D03*
X134796194Y-106166386D03*
X134442641Y-106519939D03*
X134089087Y-106873492D03*
X133735534Y-107227046D03*
X133381981Y-107580599D03*
X133028427Y-107934153D03*
X132674874Y-108287706D03*
X132321320Y-108641259D03*
X131967767Y-108994813D03*
X131614214Y-109348366D03*
X131260660Y-109701919D03*
D53*
X129139340Y-109701919D03*
X128785786Y-109348366D03*
X128432233Y-108994813D03*
X128078680Y-108641259D03*
X127725126Y-108287706D03*
X127371573Y-107934153D03*
X127018019Y-107580599D03*
X126664466Y-107227046D03*
X126310913Y-106873492D03*
X125957359Y-106519939D03*
X125603806Y-106166386D03*
X125250253Y-105812832D03*
D54*
X125250253Y-103691512D03*
X125603806Y-103337958D03*
X125957359Y-102984405D03*
X126310913Y-102630852D03*
X126664466Y-102277298D03*
X127018019Y-101923745D03*
X127371573Y-101570191D03*
X127725126Y-101216638D03*
X128078680Y-100863085D03*
X128432233Y-100509531D03*
X128785786Y-100155978D03*
X129139340Y-99802425D03*
%TD*%
D30*
%TO.C,C25*%
X82451992Y-61796017D03*
X83548008Y-60700001D03*
%TD*%
D55*
%TO.C,X1*%
X82350000Y-67250001D03*
X82350000Y-65050001D03*
X84050000Y-65050001D03*
X84050000Y-67250001D03*
%TD*%
D23*
%TO.C,LED13*%
X135025000Y-35375000D03*
X135025000Y-33275000D03*
%TD*%
D16*
%TO.C,R80*%
X108343324Y-84734388D03*
X108343324Y-86384388D03*
%TD*%
D32*
%TO.C,C19*%
X95866548Y-53571357D03*
X94770532Y-54667373D03*
%TD*%
D26*
%TO.C,T3*%
X114619697Y-59344697D03*
X114619697Y-60624697D03*
X114619697Y-61884697D03*
X114619697Y-63154697D03*
X114619697Y-64434697D03*
X114619697Y-65704697D03*
X114619697Y-66964697D03*
X114619697Y-68234697D03*
X105979697Y-68234697D03*
X105979697Y-66964697D03*
X105979697Y-65704697D03*
X105979697Y-64434697D03*
X105979697Y-63154697D03*
X105979697Y-61884697D03*
X105979697Y-60624697D03*
X105979697Y-59344697D03*
%TD*%
D25*
%TO.C,R44*%
X151425000Y-59650000D03*
X153075000Y-59650000D03*
%TD*%
D13*
%TO.C,C6*%
X87000000Y-80025000D03*
X87000000Y-78475000D03*
%TD*%
D12*
%TO.C,R13*%
X91716637Y-48116637D03*
X92883363Y-49283363D03*
%TD*%
D24*
%TO.C,R68*%
X132933363Y-89866637D03*
X131766637Y-91033363D03*
%TD*%
D14*
%TO.C,C30*%
X92901992Y-47001992D03*
X93998008Y-48098008D03*
%TD*%
%TO.C,C50*%
X134101992Y-113001992D03*
X135198008Y-114098008D03*
%TD*%
D35*
%TO.C,T1*%
X98850000Y-85570000D03*
X97570000Y-85570000D03*
X96310000Y-85570000D03*
X95040000Y-85570000D03*
X93760000Y-85570000D03*
X92490000Y-85570000D03*
X91230000Y-85570000D03*
X89960000Y-85570000D03*
X89960000Y-76930000D03*
X91230000Y-76930000D03*
X92490000Y-76930000D03*
X93760000Y-76930000D03*
X95040000Y-76930000D03*
X96310000Y-76930000D03*
X97570000Y-76930000D03*
X98850000Y-76930000D03*
%TD*%
D24*
%TO.C,R70*%
X137333363Y-94266637D03*
X136166637Y-95433363D03*
%TD*%
D31*
%TO.C,C64*%
X121649999Y-97348008D03*
X120553983Y-96251992D03*
%TD*%
D23*
%TO.C,LED6*%
X105165001Y-76789999D03*
X105165001Y-74689999D03*
%TD*%
D56*
%TO.C,U2*%
X91850000Y-59271967D03*
D57*
X91213604Y-63019633D03*
X90930761Y-62736790D03*
X90647918Y-62453948D03*
X90365076Y-62171105D03*
X90082233Y-61888262D03*
X89799390Y-61605419D03*
X89516548Y-61322577D03*
X89233705Y-61039734D03*
X88950862Y-60756891D03*
X88668019Y-60474049D03*
X88385177Y-60191206D03*
X88102334Y-59908363D03*
D58*
X88102334Y-58635571D03*
X88385177Y-58352728D03*
X88668019Y-58069885D03*
X88950862Y-57787043D03*
X89233705Y-57504200D03*
X89516548Y-57221357D03*
X89799390Y-56938515D03*
X90082233Y-56655672D03*
X90365076Y-56372829D03*
X90647918Y-56089986D03*
X90930761Y-55807144D03*
X91213604Y-55524301D03*
D57*
X92486396Y-55524301D03*
X92769239Y-55807144D03*
X93052082Y-56089986D03*
X93334924Y-56372829D03*
X93617767Y-56655672D03*
X93900610Y-56938515D03*
X94183452Y-57221357D03*
X94466295Y-57504200D03*
X94749138Y-57787043D03*
X95031981Y-58069885D03*
X95314823Y-58352728D03*
X95597666Y-58635571D03*
D58*
X95597666Y-59908363D03*
X95314823Y-60191206D03*
X95031981Y-60474049D03*
X94749138Y-60756891D03*
X94466295Y-61039734D03*
X94183452Y-61322577D03*
X93900610Y-61605419D03*
X93617767Y-61888262D03*
X93334924Y-62171105D03*
X93052082Y-62453948D03*
X92769239Y-62736790D03*
X92486396Y-63019633D03*
%TD*%
D42*
%TO.C,J3*%
X121275000Y-57525000D03*
X121275000Y-60025000D03*
X121275000Y-62525000D03*
X121275000Y-65025000D03*
X121275000Y-67525000D03*
D59*
X121275000Y-70025000D03*
%TD*%
D13*
%TO.C,C68*%
X111525000Y-86325000D03*
X111525000Y-84775000D03*
%TD*%
D15*
%TO.C,R4*%
X86975000Y-83250001D03*
X85325000Y-83250001D03*
%TD*%
D44*
%TO.C,LED12*%
X156965000Y-116610000D03*
X154865000Y-116610000D03*
%TD*%
D15*
%TO.C,R14*%
X98050000Y-43950000D03*
X96400000Y-43950000D03*
%TD*%
D14*
%TO.C,C55*%
X141312635Y-110250000D03*
X142408651Y-111346016D03*
%TD*%
D31*
%TO.C,C66*%
X123948008Y-95048008D03*
X122851992Y-93951992D03*
%TD*%
D30*
%TO.C,C57*%
X120600000Y-108650000D03*
X121696016Y-107553984D03*
%TD*%
D13*
%TO.C,C60*%
X144337500Y-107187500D03*
X144337500Y-105637500D03*
%TD*%
D25*
%TO.C,R71*%
X141162500Y-104912500D03*
X142812500Y-104912500D03*
%TD*%
D44*
%TO.C,LED18*%
X146200000Y-87400000D03*
X148300000Y-87400000D03*
%TD*%
D60*
%TO.C,C1*%
X130275000Y-32980000D03*
X130275000Y-38320000D03*
%TD*%
D20*
%TO.C,R9*%
X112739216Y-56452613D03*
X112739216Y-54802613D03*
%TD*%
D22*
%TO.C,R60*%
X137274606Y-96541332D03*
X138441332Y-95374606D03*
%TD*%
D30*
%TO.C,C7*%
X87101992Y-66348008D03*
X88198008Y-65251992D03*
%TD*%
D61*
%TO.C,JP3*%
X155650000Y-124174999D03*
D62*
X155650000Y-122875001D03*
%TD*%
D15*
%TO.C,R5*%
X78375000Y-64600000D03*
X76725000Y-64600000D03*
%TD*%
D16*
%TO.C,R17*%
X108090001Y-78939998D03*
X108090001Y-80589998D03*
%TD*%
D63*
%TO.C,J7*%
X156350000Y-88769999D03*
X156350000Y-91309999D03*
X156350000Y-93849999D03*
D64*
X156350000Y-96389999D03*
%TD*%
M02*
