  0
SECTION
  2
HEADER
  9
$ANGBASE
  50
0.0
  9
$ANGDIR
  70
1
  9
$MEASUREMENT
  70
1
  0
ENDSEC
  0
SECTION
  2
TABLES
  0
TABLE
  2
LTYPE
  70
4
  0
LTYPE
  5
40F
  2
CONTINUOUS
  70
0
  3
Solid line
  72
65
  73
0
  40
0.0
  0
LTYPE
  5
410
  2
DASHDOT
 70
0
  3
Dash Dot ____ _ ____ _
 72
65
 73
4
 40
2.0
 49
1.25
 49
-0.25
 49
0.25
 49
-0.25
  0
LTYPE
  5
411
  2
DASHED
 70
0
  3
Dashed __ __ __ __ __
 72
65
 73
2
 40
0.75
 49
0.5
 49
-0.25
  0
LTYPE
  5
43B
  2
DOTTED
 70
0
  3
Dotted .  .  .  .
 72
65
 73
2
 40
0.2
 49
0.0
 49
-0.2
  0
ENDTAB
  0
TABLE
  2
STYLE
  70
4
  0
STYLE
  2
KICAD
  70
0
  40
0
  41
1
  42
1
  50
0
  71
0
  3
isocp.shx
  0
STYLE
  2
KICADB
  70
0
  40
0
  41
1
  42
1
  50
0
  71
0
  3
isocp.shx
  0
STYLE
  2
KICADI
  70
0
  40
0
  41
1
  42
1
  50
15
  71
0
  3
isocp.shx
  0
STYLE
  2
KICADBI
  70
0
  40
0
  41
1
  42
1
  50
15
  71
0
  3
isocp.shx
  0
ENDTAB
  0
TABLE
  2
LAYER
  70
1
  0
LAYER
  2
BLACK
  70
0
  62
7
  6
CONTINUOUS
  0
ENDTAB
  0
ENDSEC
  0
SECTION
  2
ENTITIES
0
LINE
8
BLACK
6
CONTINUOUS
10
114.375
20
-52.625
11
114.4785279999999972
21
-52.6386299999999991
0
LINE
8
BLACK
6
CONTINUOUS
10
114.4785279999999972
20
-52.6386299999999991
11
114.5749999999999886
21
-52.6785899999999998
0
LINE
8
BLACK
6
CONTINUOUS
10
114.5749999999999886
20
-52.6785899999999998
11
114.6578429999999997
21
-52.7421569999999988
0
LINE
8
BLACK
6
CONTINUOUS
10
114.6578429999999997
20
-52.7421569999999988
11
114.7214099999999917
21
-52.8249999999999957
0
LINE
8
BLACK
6
CONTINUOUS
10
114.7214099999999917
20
-52.8249999999999957
11
114.7613699999999994
21
-52.9214719999999943
0
LINE
8
BLACK
6
CONTINUOUS
10
114.7613699999999994
20
-52.9214719999999943
11
114.7749999999999915
21
-53.0249999999999986
0
LINE
8
BLACK
6
CONTINUOUS
10
114.7749999999999915
20
-53.0249999999999986
11
114.7613699999999994
21
-53.1285279999999958
0
LINE
8
BLACK
6
CONTINUOUS
10
114.7613699999999994
20
-53.1285279999999958
11
114.7214099999999917
21
-53.2249999999999943
0
LINE
8
BLACK
6
CONTINUOUS
10
114.7214099999999917
20
-53.2249999999999943
11
114.6578429999999997
21
-53.3078429999999983
0
LINE
8
BLACK
6
CONTINUOUS
10
114.6578429999999997
20
-53.3078429999999983
11
114.5749999999999886
21
-53.3714099999999974
0
LINE
8
BLACK
6
CONTINUOUS
10
114.5749999999999886
20
-53.3714099999999974
11
114.4785279999999972
21
-53.411369999999998
0
LINE
8
BLACK
6
CONTINUOUS
10
114.4785279999999972
20
-53.411369999999998
11
114.375
21
-53.4249999999999972
0
LINE
8
BLACK
6
CONTINUOUS
10
114.375
20
-53.4249999999999972
11
104.8249999999999886
21
-53.4249999999999972
0
LINE
8
BLACK
6
CONTINUOUS
10
104.8249999999999886
20
-53.4249999999999972
11
104.7214719999999915
21
-53.411369999999998
0
LINE
8
BLACK
6
CONTINUOUS
10
104.7214719999999915
20
-53.411369999999998
11
104.625
21
-53.3714099999999974
0
LINE
8
BLACK
6
CONTINUOUS
10
104.625
20
-53.3714099999999974
11
104.5421569999999889
21
-53.3078429999999983
0
LINE
8
BLACK
6
CONTINUOUS
10
104.5421569999999889
20
-53.3078429999999983
11
104.478589999999997
21
-53.2249999999999943
0
LINE
8
BLACK
6
CONTINUOUS
10
104.478589999999997
20
-53.2249999999999943
11
104.4386299999999892
21
-53.1285279999999958
0
LINE
8
BLACK
6
CONTINUOUS
10
104.4386299999999892
20
-53.1285279999999958
11
104.4249999999999972
21
-53.0249999999999986
0
LINE
8
BLACK
6
CONTINUOUS
10
104.4249999999999972
20
-53.0249999999999986
11
104.4386299999999892
21
-52.9214719999999943
0
LINE
8
BLACK
6
CONTINUOUS
10
104.4386299999999892
20
-52.9214719999999943
11
104.478589999999997
21
-52.8249999999999957
0
LINE
8
BLACK
6
CONTINUOUS
10
104.478589999999997
20
-52.8249999999999957
11
104.5421569999999889
21
-52.7421569999999988
0
LINE
8
BLACK
6
CONTINUOUS
10
104.5421569999999889
20
-52.7421569999999988
11
104.625
21
-52.6785899999999998
0
LINE
8
BLACK
6
CONTINUOUS
10
104.625
20
-52.6785899999999998
11
104.7214719999999915
21
-52.6386299999999991
0
LINE
8
BLACK
6
CONTINUOUS
10
104.7214719999999915
20
-52.6386299999999991
11
104.8249999999999886
21
-52.625
0
LINE
8
BLACK
6
CONTINUOUS
10
104.8249999999999886
20
-52.625
11
114.375
21
-52.625
0
LINE
8
BLACK
6
CONTINUOUS
10
104.8249999999999886
20
-52.7249999999999943
11
104.7774849999999986
21
-52.7249999999999943
0
LINE
8
BLACK
6
CONTINUOUS
10
104.7774849999999986
20
-52.7249999999999943
11
104.6871049999999883
21
-52.7543659999999974
0
LINE
8
BLACK
6
CONTINUOUS
10
104.6871049999999883
20
-52.7543659999999974
11
104.6102229999999906
21
-52.8102230000000006
0
LINE
8
BLACK
6
CONTINUOUS
10
104.6102229999999906
20
-52.8102230000000006
11
104.5543660000000017
21
-52.8871049999999983
0
LINE
8
BLACK
6
CONTINUOUS
10
104.5543660000000017
20
-52.8871049999999983
11
104.5249999999999915
21
-52.9774849999999944
0
LINE
8
BLACK
6
CONTINUOUS
10
104.5249999999999915
20
-52.9774849999999944
11
104.5249999999999915
21
-53.0249999999999986
0
LINE
8
BLACK
6
CONTINUOUS
10
104.5249999999999915
20
-53.0249999999999986
11
104.5249999999999915
21
-53.0725149999999957
0
LINE
8
BLACK
6
CONTINUOUS
10
104.5249999999999915
20
-53.0725149999999957
11
104.5543660000000017
21
-53.1628949999999989
0
LINE
8
BLACK
6
CONTINUOUS
10
104.5543660000000017
20
-53.1628949999999989
11
104.6102229999999906
21
-53.2397769999999966
0
LINE
8
BLACK
6
CONTINUOUS
10
104.6102229999999906
20
-53.2397769999999966
11
104.6871049999999883
21
-53.2956339999999997
0
LINE
8
BLACK
6
CONTINUOUS
10
104.6871049999999883
20
-53.2956339999999997
11
104.7774849999999986
21
-53.3249999999999957
0
LINE
8
BLACK
6
CONTINUOUS
10
104.7774849999999986
20
-53.3249999999999957
11
104.8249999999999886
21
-53.3249999999999957
0
LINE
8
BLACK
6
CONTINUOUS
10
104.8249999999999886
20
-53.3249999999999957
11
114.375
21
-53.3249999999999957
0
LINE
8
BLACK
6
CONTINUOUS
10
114.375
20
-53.3249999999999957
11
114.42251499999999
21
-53.3249999999999957
0
LINE
8
BLACK
6
CONTINUOUS
10
114.42251499999999
20
-53.3249999999999957
11
114.5128950000000003
21
-53.2956339999999997
0
LINE
8
BLACK
6
CONTINUOUS
10
114.5128950000000003
20
-53.2956339999999997
11
114.589776999999998
21
-53.2397769999999966
0
LINE
8
BLACK
6
CONTINUOUS
10
114.589776999999998
20
-53.2397769999999966
11
114.6456340000000012
21
-53.1628949999999989
0
LINE
8
BLACK
6
CONTINUOUS
10
114.6456340000000012
20
-53.1628949999999989
11
114.6749999999999972
21
-53.0725149999999957
0
LINE
8
BLACK
6
CONTINUOUS
10
114.6749999999999972
20
-53.0725149999999957
11
114.6749999999999972
21
-53.0249999999999986
0
LINE
8
BLACK
6
CONTINUOUS
10
114.6749999999999972
20
-53.0249999999999986
11
114.6749999999999972
21
-52.9774849999999944
0
LINE
8
BLACK
6
CONTINUOUS
10
114.6749999999999972
20
-52.9774849999999944
11
114.6456340000000012
21
-52.8871049999999983
0
LINE
8
BLACK
6
CONTINUOUS
10
114.6456340000000012
20
-52.8871049999999983
11
114.589776999999998
21
-52.8102230000000006
0
LINE
8
BLACK
6
CONTINUOUS
10
114.589776999999998
20
-52.8102230000000006
11
114.5128950000000003
21
-52.7543659999999974
0
LINE
8
BLACK
6
CONTINUOUS
10
114.5128950000000003
20
-52.7543659999999974
11
114.42251499999999
21
-52.7249999999999943
0
LINE
8
BLACK
6
CONTINUOUS
10
114.42251499999999
20
-52.7249999999999943
11
114.375
21
-52.7249999999999943
0
LINE
8
BLACK
6
CONTINUOUS
10
114.375
20
-52.7249999999999943
11
104.8249999999999886
21
-52.7249999999999943
0
LINE
8
BLACK
6
CONTINUOUS
10
160.0487729999999829
20
-24.754804
11
160.1388929999999959
21
-24.7921329999999998
0
LINE
8
BLACK
6
CONTINUOUS
10
160.1388929999999959
20
-24.7921329999999998
11
160.2078669999999931
21
-24.8611070000000005
0
LINE
8
BLACK
6
CONTINUOUS
10
160.2078669999999931
20
-24.8611070000000005
11
160.2451959999999929
21
-24.9512269999999994
0
LINE
8
BLACK
6
CONTINUOUS
10
160.2451959999999929
20
-24.9512269999999994
11
160.25
21
-25.
0
LINE
8
BLACK
6
CONTINUOUS
10
160.25
20
-25.
11
160.25
21
-43.
0
LINE
8
BLACK
6
CONTINUOUS
10
160.25
20
-43.
11
160.2451959999999929
21
-43.0487719999999996
0
LINE
8
BLACK
6
CONTINUOUS
10
160.2451959999999929
20
-43.0487719999999996
11
160.2451959999999929
21
-43.0487729999999971
0
LINE
8
BLACK
6
CONTINUOUS
10
160.2451959999999929
20
-43.0487729999999971
11
160.2078669999999931
21
-43.1388929999999959
0
LINE
8
BLACK
6
CONTINUOUS
10
160.2078669999999931
20
-43.1388929999999959
11
160.1388929999999959
21
-43.2078670000000002
0
LINE
8
BLACK
6
CONTINUOUS
10
160.1388929999999959
20
-43.2078670000000002
11
160.0487729999999829
21
-43.245196
0
LINE
8
BLACK
6
CONTINUOUS
10
160.0487729999999829
20
-43.245196
11
160.
21
-43.25
0
LINE
8
BLACK
6
CONTINUOUS
10
160.
20
-43.25
11
135.0499999999999829
21
-43.25
0
LINE
8
BLACK
6
CONTINUOUS
10
135.0499999999999829
20
-43.25
11
135.0499999999999829
21
-52.75
0
LINE
8
BLACK
6
CONTINUOUS
10
135.0499999999999829
20
-52.75
11
160.
21
-52.75
0
LINE
8
BLACK
6
CONTINUOUS
10
160.
20
-52.75
11
160.0487729999999829
21
-52.754804
0
LINE
8
BLACK
6
CONTINUOUS
10
160.0487729999999829
20
-52.754804
11
160.1388929999999959
21
-52.7921329999999998
0
LINE
8
BLACK
6
CONTINUOUS
10
160.1388929999999959
20
-52.7921329999999998
11
160.2078669999999931
21
-52.861106999999997
0
LINE
8
BLACK
6
CONTINUOUS
10
160.2078669999999931
20
-52.861106999999997
11
160.2451959999999929
21
-52.9512269999999958
0
LINE
8
BLACK
6
CONTINUOUS
10
160.2451959999999929
20
-52.9512269999999958
11
160.25
21
-53.
0
LINE
8
BLACK
6
CONTINUOUS
10
160.25
20
-53.
11
160.25
21
-74.
0
LINE
8
BLACK
6
CONTINUOUS
10
160.25
20
-74.
11
160.2451959999999929
21
-74.0487729999999971
0
LINE
8
BLACK
6
CONTINUOUS
10
160.2451959999999929
20
-74.0487729999999971
11
160.2078669999999931
21
-74.1388929999999959
0
LINE
8
BLACK
6
CONTINUOUS
10
160.2078669999999931
20
-74.1388929999999959
11
160.1388929999999959
21
-74.2078669999999931
0
LINE
8
BLACK
6
CONTINUOUS
10
160.1388929999999959
20
-74.2078669999999931
11
160.0487729999999829
21
-74.2451959999999929
0
LINE
8
BLACK
6
CONTINUOUS
10
160.0487729999999829
20
-74.2451959999999929
11
160.
21
-74.25
0
LINE
8
BLACK
6
CONTINUOUS
10
160.
20
-74.25
11
135.0999999999999943
21
-74.25
0
LINE
8
BLACK
6
CONTINUOUS
10
135.0999999999999943
20
-74.25
11
135.0999999999999943
21
-84.75
0
LINE
8
BLACK
6
CONTINUOUS
10
135.0999999999999943
20
-84.75
11
160.
21
-84.75
0
LINE
8
BLACK
6
CONTINUOUS
10
160.
20
-84.75
11
160.0487729999999829
21
-84.7548039999999929
0
LINE
8
BLACK
6
CONTINUOUS
10
160.0487729999999829
20
-84.7548039999999929
11
160.1388929999999959
21
-84.7921329999999926
0
LINE
8
BLACK
6
CONTINUOUS
10
160.1388929999999959
20
-84.7921329999999926
11
160.2078669999999931
21
-84.8611069999999899
0
LINE
8
BLACK
6
CONTINUOUS
10
160.2078669999999931
20
-84.8611069999999899
11
160.2451959999999929
21
-84.9512270000000029
0
LINE
8
BLACK
6
CONTINUOUS
10
160.2451959999999929
20
-84.9512270000000029
11
160.25
21
-85.
0
LINE
8
BLACK
6
CONTINUOUS
10
160.25
20
-85.
11
160.25
21
-140.
0
LINE
8
BLACK
6
CONTINUOUS
10
160.25
20
-140.
11
160.2451959999999929
21
-140.0487719999999854
0
LINE
8
BLACK
6
CONTINUOUS
10
160.2451959999999929
20
-140.0487719999999854
11
160.2451959999999929
21
-140.0487729999999829
0
LINE
8
BLACK
6
CONTINUOUS
10
160.2451959999999929
20
-140.0487729999999829
11
160.2078669999999931
21
-140.1388929999999959
0
LINE
8
BLACK
6
CONTINUOUS
10
160.2078669999999931
20
-140.1388929999999959
11
160.1388929999999959
21
-140.2078669999999931
0
LINE
8
BLACK
6
CONTINUOUS
10
160.1388929999999959
20
-140.2078669999999931
11
160.0487729999999829
21
-140.2451959999999929
0
LINE
8
BLACK
6
CONTINUOUS
10
160.0487729999999829
20
-140.2451959999999929
11
160.
21
-140.25
0
LINE
8
BLACK
6
CONTINUOUS
10
160.
20
-140.25
11
110.4499999999999886
21
-140.25
0
LINE
8
BLACK
6
CONTINUOUS
10
110.4499999999999886
20
-140.25
11
110.4012369999999947
21
-140.2451969999999903
0
LINE
8
BLACK
6
CONTINUOUS
10
110.4012369999999947
20
-140.2451969999999903
11
110.401227999999989
21
-140.2451969999999903
0
LINE
8
BLACK
6
CONTINUOUS
10
110.401227999999989
20
-140.2451969999999903
11
110.3111079999999902
21
-140.2078679999999906
0
LINE
8
BLACK
6
CONTINUOUS
10
110.3111079999999902
20
-140.2078679999999906
11
110.273223999999999
21
-140.1767769999999871
0
LINE
8
BLACK
6
CONTINUOUS
10
110.273223999999999
20
-140.1767769999999871
11
110.2232229999999902
21
-140.1267770000000041
0
LINE
8
BLACK
6
CONTINUOUS
10
110.2232229999999902
20
-140.1267770000000041
11
110.1921369999999882
21
-140.0888970000000029
0
LINE
8
BLACK
6
CONTINUOUS
10
110.1921369999999882
20
-140.0888970000000029
11
110.1921329999999983
21
-140.0888929999999846
0
LINE
8
BLACK
6
CONTINUOUS
10
110.1921329999999983
20
-140.0888929999999846
11
110.1548039999999986
21
-139.9987729999999999
0
LINE
8
BLACK
6
CONTINUOUS
10
110.1548039999999986
20
-139.9987729999999999
11
110.1499999999999915
21
-139.9499999999999886
0
LINE
8
BLACK
6
CONTINUOUS
10
110.1499999999999915
20
-139.9499999999999886
11
110.1499999999999915
21
-115.0499999999999972
0
LINE
8
BLACK
6
CONTINUOUS
10
110.1499999999999915
20
-115.0499999999999972
11
100.75
21
-115.0499999999999972
0
LINE
8
BLACK
6
CONTINUOUS
10
100.75
20
-115.0499999999999972
11
100.75
21
-140.
0
LINE
8
BLACK
6
CONTINUOUS
10
100.75
20
-140.
11
100.7451959999999929
21
-140.0487719999999854
0
LINE
8
BLACK
6
CONTINUOUS
10
100.7451959999999929
20
-140.0487719999999854
11
100.7451959999999929
21
-140.0487729999999829
0
LINE
8
BLACK
6
CONTINUOUS
10
100.7451959999999929
20
-140.0487729999999829
11
100.7078669999999931
21
-140.1388929999999959
0
LINE
8
BLACK
6
CONTINUOUS
10
100.7078669999999931
20
-140.1388929999999959
11
100.6388929999999959
21
-140.2078669999999931
0
LINE
8
BLACK
6
CONTINUOUS
10
100.6388929999999959
20
-140.2078669999999931
11
100.5487729999999971
21
-140.2451959999999929
0
LINE
8
BLACK
6
CONTINUOUS
10
100.5487729999999971
20
-140.2451959999999929
11
100.5
21
-140.25
0
LINE
8
BLACK
6
CONTINUOUS
10
100.5
20
-140.25
11
72.5999999999999943
21
-140.25
0
LINE
8
BLACK
6
CONTINUOUS
10
72.5999999999999943
20
-140.25
11
72.5512269999999972
21
-140.2451959999999929
0
LINE
8
BLACK
6
CONTINUOUS
10
72.5512269999999972
20
-140.2451959999999929
11
72.4611069999999984
21
-140.2078669999999931
0
LINE
8
BLACK
6
CONTINUOUS
10
72.4611069999999984
20
-140.2078669999999931
11
72.3921330000000012
21
-140.1388929999999959
0
LINE
8
BLACK
6
CONTINUOUS
10
72.3921330000000012
20
-140.1388929999999959
11
72.3548040000000015
21
-140.0487729999999829
0
LINE
8
BLACK
6
CONTINUOUS
10
72.3548040000000015
20
-140.0487729999999829
11
72.3548040000000015
21
-140.0487719999999854
0
LINE
8
BLACK
6
CONTINUOUS
10
72.3548040000000015
20
-140.0487719999999854
11
72.3499999999999943
21
-140.
0
LINE
8
BLACK
6
CONTINUOUS
10
72.3499999999999943
20
-140.
11
72.3499999999999943
21
-115.5499999999999972
0
LINE
8
BLACK
6
CONTINUOUS
10
72.3499999999999943
20
-115.5499999999999972
11
61.6499999999999986
21
-115.5499999999999972
0
LINE
8
BLACK
6
CONTINUOUS
10
61.6499999999999986
20
-115.5499999999999972
11
61.6499999999999986
21
-140.
0
LINE
8
BLACK
6
CONTINUOUS
10
61.6499999999999986
20
-140.
11
61.6451959999999985
21
-140.0487719999999854
0
LINE
8
BLACK
6
CONTINUOUS
10
61.6451959999999985
20
-140.0487719999999854
11
61.6451959999999985
21
-140.0487729999999829
0
LINE
8
BLACK
6
CONTINUOUS
10
61.6451959999999985
20
-140.0487729999999829
11
61.6078669999999988
21
-140.1388929999999959
0
LINE
8
BLACK
6
CONTINUOUS
10
61.6078669999999988
20
-140.1388929999999959
11
61.5388929999999945
21
-140.2078669999999931
0
LINE
8
BLACK
6
CONTINUOUS
10
61.5388929999999945
20
-140.2078669999999931
11
61.4487729999999956
21
-140.2451959999999929
0
LINE
8
BLACK
6
CONTINUOUS
10
61.4487729999999956
20
-140.2451959999999929
11
61.3999999999999986
21
-140.25
0
LINE
8
BLACK
6
CONTINUOUS
10
61.3999999999999986
20
-140.25
11
30.
21
-140.25
0
LINE
8
BLACK
6
CONTINUOUS
10
30.
20
-140.25
11
29.9512269999999994
21
-140.2451959999999929
0
LINE
8
BLACK
6
CONTINUOUS
10
29.9512269999999994
20
-140.2451959999999929
11
29.861106999999997
21
-140.2078669999999931
0
LINE
8
BLACK
6
CONTINUOUS
10
29.861106999999997
20
-140.2078669999999931
11
29.7921329999999998
21
-140.1388929999999959
0
LINE
8
BLACK
6
CONTINUOUS
10
29.7921329999999998
20
-140.1388929999999959
11
29.754804
21
-140.0487729999999829
0
LINE
8
BLACK
6
CONTINUOUS
10
29.754804
20
-140.0487729999999829
11
29.754804
21
-140.0487719999999854
0
LINE
8
BLACK
6
CONTINUOUS
10
29.754804
20
-140.0487719999999854
11
29.75
21
-140.
0
LINE
8
BLACK
6
CONTINUOUS
10
29.75
20
-140.
11
29.75
21
-85.5999999999999943
0
LINE
8
BLACK
6
CONTINUOUS
10
29.75
20
-85.5999999999999943
11
29.754804
21
-85.5512269999999972
0
LINE
8
BLACK
6
CONTINUOUS
10
29.754804
20
-85.5512269999999972
11
29.7921329999999998
21
-85.4611069999999984
0
LINE
8
BLACK
6
CONTINUOUS
10
29.7921329999999998
20
-85.4611069999999984
11
29.7921370000000003
21
-85.4611019999999968
0
LINE
8
BLACK
6
CONTINUOUS
10
29.7921370000000003
20
-85.4611019999999968
11
29.8232229999999987
21
-85.423222999999993
0
LINE
8
BLACK
6
CONTINUOUS
10
29.8232229999999987
20
-85.423222999999993
11
29.9232230000000001
21
-85.3232239999999962
0
LINE
8
BLACK
6
CONTINUOUS
10
29.9232230000000001
20
-85.3232239999999962
11
29.9611020000000003
21
-85.2921369999999968
0
LINE
8
BLACK
6
CONTINUOUS
10
29.9611020000000003
20
-85.2921369999999968
11
29.9611069999999984
21
-85.2921329999999926
0
LINE
8
BLACK
6
CONTINUOUS
10
29.9611069999999984
20
-85.2921329999999926
11
30.0512269999999972
21
-85.2548039999999929
0
LINE
8
BLACK
6
CONTINUOUS
10
30.0512269999999972
20
-85.2548039999999929
11
30.0999999999999979
21
-85.25
0
LINE
8
BLACK
6
CONTINUOUS
10
30.0999999999999979
20
-85.25
11
54.75
21
-85.25
0
LINE
8
BLACK
6
CONTINUOUS
10
54.75
20
-85.25
11
54.75
21
-75.8499999999999943
0
LINE
8
BLACK
6
CONTINUOUS
10
54.75
20
-75.8499999999999943
11
30.
21
-75.8499999999999943
0
LINE
8
BLACK
6
CONTINUOUS
10
30.
20
-75.8499999999999943
11
29.9512269999999994
21
-75.8451960000000014
0
LINE
8
BLACK
6
CONTINUOUS
10
29.9512269999999994
20
-75.8451960000000014
11
29.861106999999997
21
-75.8078670000000017
0
LINE
8
BLACK
6
CONTINUOUS
10
29.861106999999997
20
-75.8078670000000017
11
29.7921329999999998
21
-75.7388929999999903
0
LINE
8
BLACK
6
CONTINUOUS
10
29.7921329999999998
20
-75.7388929999999903
11
29.754804
21
-75.6487729999999914
0
LINE
8
BLACK
6
CONTINUOUS
10
29.754804
20
-75.6487729999999914
11
29.75
21
-75.5999999999999943
0
LINE
8
BLACK
6
CONTINUOUS
10
29.75
20
-75.5999999999999943
11
29.75
21
-58.6999999999999957
0
LINE
8
BLACK
6
CONTINUOUS
10
29.75
20
-58.6999999999999957
11
29.754804
21
-58.6512269999999987
0
LINE
8
BLACK
6
CONTINUOUS
10
29.754804
20
-58.6512269999999987
11
29.7921329999999998
21
-58.5611069999999998
0
LINE
8
BLACK
6
CONTINUOUS
10
29.7921329999999998
20
-58.5611069999999998
11
29.7921370000000003
21
-58.5611019999999982
0
LINE
8
BLACK
6
CONTINUOUS
10
29.7921370000000003
20
-58.5611019999999982
11
29.8232229999999987
21
-58.5232229999999944
0
LINE
8
BLACK
6
CONTINUOUS
10
29.8232229999999987
20
-58.5232229999999944
11
29.8732239999999969
21
-58.4732229999999973
0
LINE
8
BLACK
6
CONTINUOUS
10
29.8732239999999969
20
-58.4732229999999973
11
29.9111079999999987
21
-58.4421320000000009
0
LINE
8
BLACK
6
CONTINUOUS
10
29.9111079999999987
20
-58.4421320000000009
11
30.0012279999999976
21
-58.404802999999994
0
LINE
8
BLACK
6
CONTINUOUS
10
30.0012279999999976
20
-58.404802999999994
11
30.0012369999999997
21
-58.404802999999994
0
LINE
8
BLACK
6
CONTINUOUS
10
30.0012369999999997
20
-58.404802999999994
11
30.0499999999999972
21
-58.3999999999999986
0
LINE
8
BLACK
6
CONTINUOUS
10
30.0499999999999972
20
-58.3999999999999986
11
54.4499999999999957
21
-58.3999999999999986
0
LINE
8
BLACK
6
CONTINUOUS
10
54.4499999999999957
20
-58.3999999999999986
11
54.4499999999999957
21
-48.8999999999999986
0
LINE
8
BLACK
6
CONTINUOUS
10
54.4499999999999957
20
-48.8999999999999986
11
30.
21
-48.8999999999999986
0
LINE
8
BLACK
6
CONTINUOUS
10
30.
20
-48.8999999999999986
11
29.9512269999999994
21
-48.8951959999999985
0
LINE
8
BLACK
6
CONTINUOUS
10
29.9512269999999994
20
-48.8951959999999985
11
29.861106999999997
21
-48.8578669999999988
0
LINE
8
BLACK
6
CONTINUOUS
10
29.861106999999997
20
-48.8578669999999988
11
29.7921329999999998
21
-48.7888929999999945
0
LINE
8
BLACK
6
CONTINUOUS
10
29.7921329999999998
20
-48.7888929999999945
11
29.754804
21
-48.6987729999999956
0
LINE
8
BLACK
6
CONTINUOUS
10
29.754804
20
-48.6987729999999956
11
29.754804
21
-48.6987719999999982
0
LINE
8
BLACK
6
CONTINUOUS
10
29.754804
20
-48.6987719999999982
11
29.75
21
-48.6499999999999986
0
LINE
8
BLACK
6
CONTINUOUS
10
29.75
20
-48.6499999999999986
11
29.75
21
-25.
0
LINE
8
BLACK
6
CONTINUOUS
10
29.75
20
-25.
11
29.754804
21
-24.9512269999999994
0
LINE
8
BLACK
6
CONTINUOUS
10
29.754804
20
-24.9512269999999994
11
29.7921329999999998
21
-24.8611070000000005
0
LINE
8
BLACK
6
CONTINUOUS
10
29.7921329999999998
20
-24.8611070000000005
11
29.861106999999997
21
-24.7921329999999998
0
LINE
8
BLACK
6
CONTINUOUS
10
29.861106999999997
20
-24.7921329999999998
11
29.9512269999999994
21
-24.754804
0
LINE
8
BLACK
6
CONTINUOUS
10
29.9512269999999994
20
-24.754804
11
30.
21
-24.75
0
LINE
8
BLACK
6
CONTINUOUS
10
30.
20
-24.75
11
160.
21
-24.75
0
LINE
8
BLACK
6
CONTINUOUS
10
160.
20
-24.75
11
160.0487729999999829
21
-24.754804
0
LINE
8
BLACK
6
CONTINUOUS
10
30.25
20
-25.25
11
30.25
21
-48.3999999999999986
0
LINE
8
BLACK
6
CONTINUOUS
10
30.25
20
-48.3999999999999986
11
54.6499999999999986
21
-48.3999999999999986
0
LINE
8
BLACK
6
CONTINUOUS
10
54.6499999999999986
20
-48.3999999999999986
11
54.6987729999999956
21
-48.4048039999999986
0
LINE
8
BLACK
6
CONTINUOUS
10
54.6987729999999956
20
-48.4048039999999986
11
54.7888929999999945
21
-48.4421329999999983
0
LINE
8
BLACK
6
CONTINUOUS
10
54.7888929999999945
20
-48.4421329999999983
11
54.7888969999999986
21
-48.4421369999999953
0
LINE
8
BLACK
6
CONTINUOUS
10
54.7888969999999986
20
-48.4421369999999953
11
54.8267769999999999
21
-48.4732229999999973
0
LINE
8
BLACK
6
CONTINUOUS
10
54.8267769999999999
20
-48.4732229999999973
11
54.876776999999997
21
-48.523223999999999
0
LINE
8
BLACK
6
CONTINUOUS
10
54.876776999999997
20
-48.523223999999999
11
54.9078680000000006
21
-48.5611079999999973
0
LINE
8
BLACK
6
CONTINUOUS
10
54.9078680000000006
20
-48.5611079999999973
11
54.9451970000000003
21
-48.6512279999999961
0
LINE
8
BLACK
6
CONTINUOUS
10
54.9451970000000003
20
-48.6512279999999961
11
54.9451970000000003
21
-48.6512369999999947
0
LINE
8
BLACK
6
CONTINUOUS
10
54.9451970000000003
20
-48.6512369999999947
11
54.9499999999999957
21
-48.6999999999999957
0
LINE
8
BLACK
6
CONTINUOUS
10
54.9499999999999957
20
-48.6999999999999957
11
54.9499999999999957
21
-58.6499999999999986
0
LINE
8
BLACK
6
CONTINUOUS
10
54.9499999999999957
20
-58.6499999999999986
11
54.9451959999999957
21
-58.6987719999999982
0
LINE
8
BLACK
6
CONTINUOUS
10
54.9451959999999957
20
-58.6987719999999982
11
54.9451959999999957
21
-58.6987729999999956
0
LINE
8
BLACK
6
CONTINUOUS
10
54.9451959999999957
20
-58.6987729999999956
11
54.907866999999996
21
-58.7888929999999945
0
LINE
8
BLACK
6
CONTINUOUS
10
54.907866999999996
20
-58.7888929999999945
11
54.8388929999999988
21
-58.8578669999999988
0
LINE
8
BLACK
6
CONTINUOUS
10
54.8388929999999988
20
-58.8578669999999988
11
54.7487729999999999
21
-58.8951959999999985
0
LINE
8
BLACK
6
CONTINUOUS
10
54.7487729999999999
20
-58.8951959999999985
11
54.6999999999999957
21
-58.8999999999999986
0
LINE
8
BLACK
6
CONTINUOUS
10
54.6999999999999957
20
-58.8999999999999986
11
30.25
21
-58.8999999999999986
0
LINE
8
BLACK
6
CONTINUOUS
10
30.25
20
-58.8999999999999986
11
30.25
21
-75.3499999999999943
0
LINE
8
BLACK
6
CONTINUOUS
10
30.25
20
-75.3499999999999943
11
55.
21
-75.3499999999999943
0
LINE
8
BLACK
6
CONTINUOUS
10
55.
20
-75.3499999999999943
11
55.0487729999999971
21
-75.3548040000000015
0
LINE
8
BLACK
6
CONTINUOUS
10
55.0487729999999971
20
-75.3548040000000015
11
55.1388929999999959
21
-75.3921330000000012
0
LINE
8
BLACK
6
CONTINUOUS
10
55.1388929999999959
20
-75.3921330000000012
11
55.2078670000000002
21
-75.4611069999999984
0
LINE
8
BLACK
6
CONTINUOUS
10
55.2078670000000002
20
-75.4611069999999984
11
55.245196
21
-75.5512269999999972
0
LINE
8
BLACK
6
CONTINUOUS
10
55.245196
20
-75.5512269999999972
11
55.25
21
-75.5999999999999943
0
LINE
8
BLACK
6
CONTINUOUS
10
55.25
20
-75.5999999999999943
11
55.25
21
-85.5
0
LINE
8
BLACK
6
CONTINUOUS
10
55.25
20
-85.5
11
55.245196
21
-85.5487719999999996
0
LINE
8
BLACK
6
CONTINUOUS
10
55.245196
20
-85.5487719999999996
11
55.245196
21
-85.5487729999999971
0
LINE
8
BLACK
6
CONTINUOUS
10
55.245196
20
-85.5487729999999971
11
55.2078670000000002
21
-85.6388929999999959
0
LINE
8
BLACK
6
CONTINUOUS
10
55.2078670000000002
20
-85.6388929999999959
11
55.1388929999999959
21
-85.7078669999999931
0
LINE
8
BLACK
6
CONTINUOUS
10
55.1388929999999959
20
-85.7078669999999931
11
55.0487729999999971
21
-85.7451959999999929
0
LINE
8
BLACK
6
CONTINUOUS
10
55.0487729999999971
20
-85.7451959999999929
11
55.
21
-85.75
0
LINE
8
BLACK
6
CONTINUOUS
10
55.
20
-85.75
11
30.25
21
-85.75
0
LINE
8
BLACK
6
CONTINUOUS
10
30.25
20
-85.75
11
30.25
21
-139.75
0
LINE
8
BLACK
6
CONTINUOUS
10
30.25
20
-139.75
11
61.1499999999999986
21
-139.75
0
LINE
8
BLACK
6
CONTINUOUS
10
61.1499999999999986
20
-139.75
11
61.1499999999999986
21
-115.2999999999999972
0
LINE
8
BLACK
6
CONTINUOUS
10
61.1499999999999986
20
-115.2999999999999972
11
61.1548039999999986
21
-115.2512270000000001
0
LINE
8
BLACK
6
CONTINUOUS
10
61.1548039999999986
20
-115.2512270000000001
11
61.1921329999999983
21
-115.1611070000000012
0
LINE
8
BLACK
6
CONTINUOUS
10
61.1921329999999983
20
-115.1611070000000012
11
61.2611069999999955
21
-115.0921329999999898
0
LINE
8
BLACK
6
CONTINUOUS
10
61.2611069999999955
20
-115.0921329999999898
11
61.3512269999999944
21
-115.0548039999999901
0
LINE
8
BLACK
6
CONTINUOUS
10
61.3512269999999944
20
-115.0548039999999901
11
61.3999999999999986
21
-115.0499999999999972
0
LINE
8
BLACK
6
CONTINUOUS
10
61.3999999999999986
20
-115.0499999999999972
11
72.5999999999999943
21
-115.0499999999999972
0
LINE
8
BLACK
6
CONTINUOUS
10
72.5999999999999943
20
-115.0499999999999972
11
72.6487729999999914
21
-115.0548039999999901
0
LINE
8
BLACK
6
CONTINUOUS
10
72.6487729999999914
20
-115.0548039999999901
11
72.7388929999999903
21
-115.0921329999999898
0
LINE
8
BLACK
6
CONTINUOUS
10
72.7388929999999903
20
-115.0921329999999898
11
72.8078670000000017
21
-115.1611070000000012
0
LINE
8
BLACK
6
CONTINUOUS
10
72.8078670000000017
20
-115.1611070000000012
11
72.8451960000000014
21
-115.2512270000000001
0
LINE
8
BLACK
6
CONTINUOUS
10
72.8451960000000014
20
-115.2512270000000001
11
72.8499999999999943
21
-115.2999999999999972
0
LINE
8
BLACK
6
CONTINUOUS
10
72.8499999999999943
20
-115.2999999999999972
11
72.8499999999999943
21
-139.75
0
LINE
8
BLACK
6
CONTINUOUS
10
72.8499999999999943
20
-139.75
11
100.25
21
-139.75
0
LINE
8
BLACK
6
CONTINUOUS
10
100.25
20
-139.75
11
100.25
21
-114.7999999999999972
0
LINE
8
BLACK
6
CONTINUOUS
10
100.25
20
-114.7999999999999972
11
100.2548039999999929
21
-114.7512270000000001
0
LINE
8
BLACK
6
CONTINUOUS
10
100.2548039999999929
20
-114.7512270000000001
11
100.2921329999999926
21
-114.6611070000000012
0
LINE
8
BLACK
6
CONTINUOUS
10
100.2921329999999926
20
-114.6611070000000012
11
100.3611069999999899
21
-114.5921329999999898
0
LINE
8
BLACK
6
CONTINUOUS
10
100.3611069999999899
20
-114.5921329999999898
11
100.4512269999999887
21
-114.5548039999999901
0
LINE
8
BLACK
6
CONTINUOUS
10
100.4512269999999887
20
-114.5548039999999901
11
100.5
21
-114.5499999999999972
0
LINE
8
BLACK
6
CONTINUOUS
10
100.5
20
-114.5499999999999972
11
110.3999999999999915
21
-114.5499999999999972
0
LINE
8
BLACK
6
CONTINUOUS
10
110.3999999999999915
20
-114.5499999999999972
11
110.4487729999999885
21
-114.5548039999999901
0
LINE
8
BLACK
6
CONTINUOUS
10
110.4487729999999885
20
-114.5548039999999901
11
110.5388930000000016
21
-114.5921329999999898
0
LINE
8
BLACK
6
CONTINUOUS
10
110.5388930000000016
20
-114.5921329999999898
11
110.6078669999999988
21
-114.6611070000000012
0
LINE
8
BLACK
6
CONTINUOUS
10
110.6078669999999988
20
-114.6611070000000012
11
110.6451959999999985
21
-114.7512270000000001
0
LINE
8
BLACK
6
CONTINUOUS
10
110.6451959999999985
20
-114.7512270000000001
11
110.6499999999999915
21
-114.7999999999999972
0
LINE
8
BLACK
6
CONTINUOUS
10
110.6499999999999915
20
-114.7999999999999972
11
110.6499999999999915
21
-139.75
0
LINE
8
BLACK
6
CONTINUOUS
10
110.6499999999999915
20
-139.75
11
159.75
21
-139.75
0
LINE
8
BLACK
6
CONTINUOUS
10
159.75
20
-139.75
11
159.75
21
-85.25
0
LINE
8
BLACK
6
CONTINUOUS
10
159.75
20
-85.25
11
134.8499999999999943
21
-85.25
0
LINE
8
BLACK
6
CONTINUOUS
10
134.8499999999999943
20
-85.25
11
134.801226999999983
21
-85.2451959999999929
0
LINE
8
BLACK
6
CONTINUOUS
10
134.801226999999983
20
-85.2451959999999929
11
134.7111069999999984
21
-85.2078669999999931
0
LINE
8
BLACK
6
CONTINUOUS
10
134.7111069999999984
20
-85.2078669999999931
11
134.6421330000000012
21
-85.1388929999999959
0
LINE
8
BLACK
6
CONTINUOUS
10
134.6421330000000012
20
-85.1388929999999959
11
134.6048040000000015
21
-85.0487729999999971
0
LINE
8
BLACK
6
CONTINUOUS
10
134.6048040000000015
20
-85.0487729999999971
11
134.5999999999999943
21
-85.
0
LINE
8
BLACK
6
CONTINUOUS
10
134.5999999999999943
20
-85.
11
134.5999999999999943
21
-74.
0
LINE
8
BLACK
6
CONTINUOUS
10
134.5999999999999943
20
-74.
11
134.6048040000000015
21
-73.9512270000000029
0
LINE
8
BLACK
6
CONTINUOUS
10
134.6048040000000015
20
-73.9512270000000029
11
134.6421330000000012
21
-73.8611069999999899
0
LINE
8
BLACK
6
CONTINUOUS
10
134.6421330000000012
20
-73.8611069999999899
11
134.7111069999999984
21
-73.7921329999999926
0
LINE
8
BLACK
6
CONTINUOUS
10
134.7111069999999984
20
-73.7921329999999926
11
134.801226999999983
21
-73.7548039999999929
0
LINE
8
BLACK
6
CONTINUOUS
10
134.801226999999983
20
-73.7548039999999929
11
134.8499999999999943
21
-73.75
0
LINE
8
BLACK
6
CONTINUOUS
10
134.8499999999999943
20
-73.75
11
159.75
21
-73.75
0
LINE
8
BLACK
6
CONTINUOUS
10
159.75
20
-73.75
11
159.75
21
-53.25
0
LINE
8
BLACK
6
CONTINUOUS
10
159.75
20
-53.25
11
134.8499999999999943
21
-53.25
0
LINE
8
BLACK
6
CONTINUOUS
10
134.8499999999999943
20
-53.25
11
134.8012369999999862
21
-53.2451969999999974
0
LINE
8
BLACK
6
CONTINUOUS
10
134.8012369999999862
20
-53.2451969999999974
11
134.8012279999999805
21
-53.2451969999999974
0
LINE
8
BLACK
6
CONTINUOUS
10
134.8012279999999805
20
-53.2451969999999974
11
134.7111079999999959
21
-53.2078679999999977
0
LINE
8
BLACK
6
CONTINUOUS
10
134.7111079999999959
20
-53.2078679999999977
11
134.6732240000000047
21
-53.1767769999999942
0
LINE
8
BLACK
6
CONTINUOUS
10
134.6732240000000047
20
-53.1767769999999942
11
134.6232229999999959
21
-53.126776999999997
0
LINE
8
BLACK
6
CONTINUOUS
10
134.6232229999999959
20
-53.126776999999997
11
134.5921369999999797
21
-53.0888969999999958
0
LINE
8
BLACK
6
CONTINUOUS
10
134.5921369999999797
20
-53.0888969999999958
11
134.5921329999999898
21
-53.0888929999999988
0
LINE
8
BLACK
6
CONTINUOUS
10
134.5921329999999898
20
-53.0888929999999988
11
134.5548039999999901
21
-52.9987729999999999
0
LINE
8
BLACK
6
CONTINUOUS
10
134.5548039999999901
20
-52.9987729999999999
11
134.5499999999999829
21
-52.9499999999999957
0
LINE
8
BLACK
6
CONTINUOUS
10
134.5499999999999829
20
-52.9499999999999957
11
134.5499999999999829
21
-43.0499999999999972
0
LINE
8
BLACK
6
CONTINUOUS
10
134.5499999999999829
20
-43.0499999999999972
11
134.5548039999999901
21
-43.0012270000000001
0
LINE
8
BLACK
6
CONTINUOUS
10
134.5548039999999901
20
-43.0012270000000001
11
134.5921329999999898
21
-42.9111070000000012
0
LINE
8
BLACK
6
CONTINUOUS
10
134.5921329999999898
20
-42.9111070000000012
11
134.5921369999999797
21
-42.9111019999999996
0
LINE
8
BLACK
6
CONTINUOUS
10
134.5921369999999797
20
-42.9111019999999996
11
134.6232229999999959
21
-42.8732229999999959
0
LINE
8
BLACK
6
CONTINUOUS
10
134.6232229999999959
20
-42.8732229999999959
11
134.6732240000000047
21
-42.8232229999999987
0
LINE
8
BLACK
6
CONTINUOUS
10
134.6732240000000047
20
-42.8232229999999987
11
134.7111079999999959
21
-42.7921319999999952
0
LINE
8
BLACK
6
CONTINUOUS
10
134.7111079999999959
20
-42.7921319999999952
11
134.8012279999999805
21
-42.7548029999999954
0
LINE
8
BLACK
6
CONTINUOUS
10
134.8012279999999805
20
-42.7548029999999954
11
134.8012369999999862
21
-42.7548029999999954
0
LINE
8
BLACK
6
CONTINUOUS
10
134.8012369999999862
20
-42.7548029999999954
11
134.8499999999999943
21
-42.75
0
LINE
8
BLACK
6
CONTINUOUS
10
134.8499999999999943
20
-42.75
11
159.75
21
-42.75
0
LINE
8
BLACK
6
CONTINUOUS
10
159.75
20
-42.75
11
159.75
21
-25.25
0
LINE
8
BLACK
6
CONTINUOUS
10
159.75
20
-25.25
11
30.25
21
-25.25
  0
ENDSEC
  0
EOF
